M48
INCH,TZ
T1C0.012
T2C0.016
T3C0.039
T4C0.039
T5C0.051
T6C0.057
T7C0.051
T8C0.094
T9C0.128
%
G90
G05
T1
X49882Y-41811
X49921Y-40866
X50669Y-52323
X51339Y-39291
X51650Y-31450
X51850Y-51142
X52598Y-51772
X52992Y-47874
X53200Y-31450
X53600Y-29000
X53600Y-29300
X53600Y-29600
X54409Y-39803
X54528Y-42165
X55787Y-44803
X56181Y-52992
X56220Y-54488
X56250Y-38400
X56614Y-51378
X57323Y-41890
X57441Y-40709
X57559Y-43661
X57677Y-44685
X57913Y-44252
X57953Y-41102
X58031Y-43622
X58150Y-41457
X58268Y-42677
X58268Y-43622
X58350Y-33800
X58450Y-34050
X58500Y-39400
X58600Y-34300
X58600Y-34550
X58661Y-43701
X58701Y-28268
X58701Y-42795
X59094Y-41654
X59213Y-44528
X59724Y-34331
X59921Y-35709
X61100Y-27900
X61150Y-27100
X61220Y-46614
X61339Y-28937
X61457Y-41339
X61850Y-43543
X61969Y-40984
X62000Y-32775
X62323Y-38346
X62402Y-41654
X62850Y-41200
X63031Y-41772
X63543Y-41417
X63898Y-45276
X64252Y-44843
X64600Y-30600
X64961Y-30197
X65200Y-30550
X66299Y-31063
X66299Y-41260
X66339Y-51496
X66575Y-41417
X66575Y-44843
X66693Y-31496
X66772Y-30433
X67000Y-31500
X67520Y-52323
X68000Y-30550
X68228Y-50079
X68875Y-50550
X69803Y-44803
X69843Y-45748
X70276Y-45000
X70472Y-43031
X70551Y-44409
X70866Y-42992
X70906Y-45000
T2
X50600Y-31000
X53550Y-30500
X54882Y-44646
X55984Y-41890
X56496Y-38661
X56693Y-45591
X56969Y-40197
X57047Y-39370
X57300Y-31400
X57300Y-32000
X58425Y-46260
X58425Y-47205
X59882Y-42244
X60079Y-41417
X60118Y-27205
X60512Y-27362
X60551Y-47008
X60669Y-41457
X61181Y-42323
X61220Y-47677
X62350Y-27900
X62717Y-46260
X67126Y-47992
X67677Y-43031
X68583Y-31811
X69803Y-29803
X70591Y-37992
T3
X48900Y-28150
X48900Y-29150
X48900Y-30150
X48900Y-31150
X48900Y-32150
X48900Y-33150
X48900Y-34150
X48900Y-35150
X48900Y-36150
X48900Y-37150
X48900Y-38600
X48900Y-39600
X48900Y-40600
X48900Y-41600
X48900Y-42600
X48900Y-43600
X48900Y-44600
X48900Y-45600
X48900Y-46600
X48900Y-47600
X54700Y-37550
X54700Y-38550
X54900Y-25700
X54900Y-26700
X54900Y-27700
X55750Y-30850
X55750Y-31850
X56700Y-26400
X57700Y-26400
X58700Y-26400
X61700Y-26400
X62700Y-26400
X63700Y-26400
X65500Y-25700
X65500Y-26700
X65500Y-27700
X66000Y-36150
X66000Y-37150
X66000Y-38150
X68050Y-36150
X68050Y-37150
X68050Y-38150
X71750Y-28150
X71750Y-29150
X71750Y-30150
X71750Y-31150
X71750Y-32150
X71750Y-33150
X71750Y-34150
X71750Y-35150
X71750Y-36150
X71750Y-37150
X71750Y-38600
X71750Y-39600
X71750Y-40600
X71750Y-41600
X71750Y-42600
X71750Y-43600
X71750Y-44600
X71750Y-45600
X71750Y-46600
X71750Y-47600
T4
X50700Y-49650
X52288Y-49648
X52350Y-54150
X53800Y-54150
X53850Y-49650
X55250Y-54150
X55400Y-49650
X56950Y-49650
T5
X65422Y-55075
X66406Y-54091
X68375Y-55075
X70344Y-54091
X71328Y-55075
T6
X59255Y-54575
X59255Y-50575
X62995Y-50575
X62995Y-54575
X62995Y-57575
T7
X67391Y-59012
X69359Y-59012
T8
X65422Y-57044
X71328Y-57044
T9
X61125Y-50575
X61125Y-52575
X61125Y-57575
T0
M30
