G04 #@! TF.FileFunction,Copper,L2,Bot,Signal*
%FSLAX46Y46*%
G04 Gerber Fmt 4.6, Leading zero omitted, Abs format (unit mm)*
G04 Created by KiCad (PCBNEW 4.0.7) date 12/04/17 13:23:28*
%MOMM*%
%LPD*%
G01*
G04 APERTURE LIST*
%ADD10C,0.100000*%
%ADD11R,1.700000X1.700000*%
%ADD12O,1.700000X1.700000*%
%ADD13C,2.300000*%
%ADD14C,1.955800*%
%ADD15C,2.499360*%
%ADD16R,1.800000X1.800000*%
%ADD17O,1.800000X1.800000*%
%ADD18C,0.400000*%
%ADD19C,0.800000*%
%ADD20C,0.150000*%
%ADD21C,0.350000*%
%ADD22C,0.254000*%
G04 APERTURE END LIST*
D10*
D11*
X139446000Y-65278000D03*
D12*
X139446000Y-67818000D03*
X139446000Y-70358000D03*
D11*
X166370000Y-70358000D03*
D12*
X166370000Y-67818000D03*
X166370000Y-65278000D03*
D11*
X167640000Y-91821000D03*
D12*
X167640000Y-94361000D03*
X167640000Y-96901000D03*
D11*
X172847000Y-91821000D03*
D12*
X172847000Y-94361000D03*
X172847000Y-96901000D03*
D11*
X141605000Y-78359000D03*
D12*
X141605000Y-80899000D03*
D11*
X124206000Y-71501000D03*
D12*
X124206000Y-74041000D03*
X124206000Y-76581000D03*
X124206000Y-79121000D03*
X124206000Y-81661000D03*
X124206000Y-84201000D03*
X124206000Y-86741000D03*
X124206000Y-89281000D03*
X124206000Y-91821000D03*
X124206000Y-94361000D03*
D11*
X182245000Y-71501000D03*
D12*
X182245000Y-74041000D03*
X182245000Y-76581000D03*
X182245000Y-79121000D03*
X182245000Y-81661000D03*
X182245000Y-84201000D03*
X182245000Y-86741000D03*
X182245000Y-89281000D03*
X182245000Y-91821000D03*
X182245000Y-94361000D03*
D11*
X138938000Y-95377000D03*
D12*
X138938000Y-97917000D03*
D11*
X124206000Y-98044000D03*
D12*
X124206000Y-100584000D03*
X124206000Y-103124000D03*
X124206000Y-105664000D03*
X124206000Y-108204000D03*
X124206000Y-110744000D03*
X124206000Y-113284000D03*
X124206000Y-115824000D03*
X124206000Y-118364000D03*
X124206000Y-120904000D03*
D11*
X182245000Y-98044000D03*
D12*
X182245000Y-100584000D03*
X182245000Y-103124000D03*
X182245000Y-105664000D03*
X182245000Y-108204000D03*
X182245000Y-110744000D03*
X182245000Y-113284000D03*
X182245000Y-115824000D03*
X182245000Y-118364000D03*
X182245000Y-120904000D03*
D13*
X173672500Y-139890500D03*
X181172500Y-139890500D03*
X166172500Y-139890500D03*
X178672500Y-137390500D03*
X168672500Y-137390500D03*
D14*
X160007300Y-146240500D03*
X150507300Y-138620500D03*
X160007300Y-138620500D03*
X150507700Y-128460500D03*
X160007300Y-128460500D03*
D15*
X128778000Y-126111000D03*
X132969000Y-137541000D03*
X132812286Y-126105000D03*
X136652000Y-137541000D03*
X136779000Y-126111000D03*
X140335000Y-137541000D03*
X140716000Y-126111000D03*
X144653000Y-126111000D03*
D16*
X144018000Y-67056000D03*
D17*
X146558000Y-67056000D03*
X149098000Y-67056000D03*
D16*
X156718000Y-67056000D03*
D17*
X159258000Y-67056000D03*
X161798000Y-67056000D03*
D18*
X157100000Y-110600000D03*
X150400000Y-113100000D03*
X141700000Y-113800000D03*
X146500000Y-113500000D03*
X146200000Y-110900000D03*
X173300000Y-127200000D03*
X171500000Y-132900000D03*
X169100000Y-105200000D03*
X163200000Y-113900000D03*
X149100000Y-108700000D03*
X149000000Y-111000000D03*
X145900000Y-103400000D03*
X145600000Y-106400000D03*
X126700000Y-106200000D03*
X126800000Y-103800000D03*
X130400000Y-99800000D03*
X149100000Y-71800000D03*
X165000000Y-76700000D03*
X155800000Y-73500000D03*
X142700000Y-134600000D03*
X142800000Y-138400000D03*
X155321000Y-68834000D03*
X155194000Y-70866000D03*
D19*
X159300000Y-117500000D03*
X155400000Y-107500000D03*
X154100000Y-105300000D03*
X153700000Y-69500000D03*
X152700000Y-69100000D03*
X152600000Y-105200000D03*
X152100000Y-107300000D03*
X158369000Y-70866000D03*
X170500000Y-121900000D03*
X155500000Y-121100000D03*
X153800000Y-119400000D03*
X148400000Y-117500000D03*
X148400000Y-119900000D03*
X144000000Y-115800000D03*
X139400000Y-113400000D03*
X143500000Y-98200000D03*
X144900000Y-100000000D03*
X179300000Y-96500000D03*
X171900000Y-109300000D03*
X174200000Y-80800000D03*
X177300000Y-75700000D03*
X142200000Y-106400000D03*
X144700000Y-102100000D03*
X136017000Y-77470000D03*
X128524000Y-78740000D03*
X145542000Y-81280000D03*
X145542000Y-79756000D03*
D18*
X142875000Y-97536000D03*
X148590000Y-100076000D03*
X169100000Y-113900000D03*
X134600000Y-121600000D03*
X177300000Y-113800000D03*
X177400000Y-116200000D03*
X168500000Y-130800000D03*
X162300000Y-115000000D03*
X161400000Y-105200000D03*
X136144000Y-73660000D03*
X136144000Y-74422000D03*
X136144000Y-75184000D03*
X148209000Y-85852000D03*
X148463000Y-86487000D03*
X151700000Y-87200000D03*
X152200000Y-90700000D03*
X147100000Y-112400000D03*
X160100000Y-106100000D03*
X147700000Y-105300000D03*
X148844000Y-87122000D03*
X148844000Y-87757000D03*
X157480000Y-83248500D03*
X172720000Y-77597000D03*
X170180000Y-80010000D03*
X164084000Y-77724000D03*
X165608000Y-77597000D03*
X157400000Y-104100000D03*
X158300000Y-97400000D03*
X156100000Y-105000000D03*
X150100000Y-105800000D03*
X148000000Y-108400000D03*
X148000000Y-110800000D03*
X138200000Y-101100000D03*
X138500000Y-107100000D03*
X147200000Y-104400000D03*
X147400000Y-110800000D03*
X180000000Y-109200000D03*
X179000000Y-109300000D03*
X155500000Y-118400000D03*
X174942500Y-128397000D03*
X180100000Y-114300000D03*
X178500000Y-114300000D03*
X133600000Y-131500000D03*
X179200000Y-112800000D03*
X143800000Y-130500000D03*
X131700000Y-129900000D03*
X128700000Y-132900000D03*
X131191000Y-79883000D03*
X135128000Y-79883000D03*
X159639000Y-104648000D03*
X158500000Y-105800000D03*
X168400000Y-104800000D03*
X169400000Y-80000000D03*
X168400000Y-78900000D03*
X169600000Y-77300000D03*
D20*
X172847000Y-96901000D02*
X172847000Y-101453000D01*
X172847000Y-101453000D02*
X169100000Y-105200000D01*
X152900000Y-110600000D02*
X157100000Y-110600000D01*
X150400000Y-113100000D02*
X152900000Y-110600000D01*
X145600000Y-114400000D02*
X146500000Y-113500000D01*
X142300000Y-114400000D02*
X145600000Y-114400000D01*
X141700000Y-113800000D02*
X142300000Y-114400000D01*
X146500000Y-111200000D02*
X146500000Y-113500000D01*
X146200000Y-110900000D02*
X146500000Y-111200000D01*
X171700000Y-128800000D02*
X173300000Y-127200000D01*
X171700000Y-132700000D02*
X171700000Y-128800000D01*
X171500000Y-132900000D02*
X171700000Y-132700000D01*
X169100000Y-105200000D02*
X169100000Y-109900000D01*
X169100000Y-109900000D02*
X165100000Y-113900000D01*
X165100000Y-113900000D02*
X163200000Y-113900000D01*
X149100000Y-110900000D02*
X149100000Y-108700000D01*
X149000000Y-111000000D02*
X149100000Y-110900000D01*
X145900000Y-106100000D02*
X145900000Y-103400000D01*
X145600000Y-106400000D02*
X145900000Y-106100000D01*
X125156000Y-110744000D02*
X124206000Y-110744000D01*
X126600000Y-109300000D02*
X125156000Y-110744000D01*
X126600000Y-106300000D02*
X126600000Y-109300000D01*
X126700000Y-106200000D02*
X126600000Y-106300000D01*
X126800000Y-103400000D02*
X126800000Y-103800000D01*
X130400000Y-99800000D02*
X126800000Y-103400000D01*
X139446000Y-67818000D02*
X141518000Y-67818000D01*
X144614000Y-69000000D02*
X146558000Y-67056000D01*
X142700000Y-69000000D02*
X144614000Y-69000000D01*
X141518000Y-67818000D02*
X142700000Y-69000000D01*
X149100000Y-71800000D02*
X146558000Y-69258000D01*
X146558000Y-69258000D02*
X146558000Y-67056000D01*
X159000000Y-76700000D02*
X165000000Y-76700000D01*
X155800000Y-73500000D02*
X159000000Y-76700000D01*
X142700000Y-138300000D02*
X142700000Y-134600000D01*
X142800000Y-138400000D02*
X142700000Y-138300000D01*
X173672500Y-139890500D02*
X173409500Y-139890500D01*
X173409500Y-139890500D02*
X171500000Y-141800000D01*
X163186800Y-141800000D02*
X160007300Y-138620500D01*
X171500000Y-141800000D02*
X163186800Y-141800000D01*
X155194000Y-68961000D02*
X155194000Y-70866000D01*
X155321000Y-68834000D02*
X155194000Y-68961000D01*
D21*
X159300000Y-111400000D02*
X159300000Y-117500000D01*
X155400000Y-107500000D02*
X159300000Y-111400000D01*
X154100000Y-69900000D02*
X154100000Y-105300000D01*
X153700000Y-69500000D02*
X154100000Y-69900000D01*
X161798000Y-67437000D02*
X161798000Y-67056000D01*
X144653000Y-126111000D02*
X144653000Y-116347000D01*
X152700000Y-105100000D02*
X152700000Y-69100000D01*
X152600000Y-105200000D02*
X152700000Y-105100000D01*
X152100000Y-108900000D02*
X152100000Y-107300000D01*
X144653000Y-116347000D02*
X152100000Y-108900000D01*
X159258000Y-69977000D02*
X159258000Y-67056000D01*
X158369000Y-70866000D02*
X159258000Y-69977000D01*
X148400000Y-117500000D02*
X151900000Y-117500000D01*
X156300000Y-121900000D02*
X170500000Y-121900000D01*
X155500000Y-121100000D02*
X156300000Y-121900000D01*
X151900000Y-117500000D02*
X153800000Y-119400000D01*
X148400000Y-119900000D02*
X148400000Y-117500000D01*
X141800000Y-115800000D02*
X144000000Y-115800000D01*
X139400000Y-113400000D02*
X141800000Y-115800000D01*
X143500000Y-98600000D02*
X143500000Y-98200000D01*
X144900000Y-100000000D02*
X143500000Y-98600000D01*
X179300000Y-101900000D02*
X179300000Y-96500000D01*
X171900000Y-109300000D02*
X179300000Y-101900000D01*
X172847000Y-82153000D02*
X172847000Y-91821000D01*
X174200000Y-80800000D02*
X172847000Y-82153000D01*
X166370000Y-67818000D02*
X169418000Y-67818000D01*
X169418000Y-67818000D02*
X177300000Y-75700000D01*
X142200000Y-106400000D02*
X144700000Y-103900000D01*
X144700000Y-103900000D02*
X144700000Y-102100000D01*
X129794000Y-77470000D02*
X136017000Y-77470000D01*
X128524000Y-78740000D02*
X129794000Y-77470000D01*
X145542000Y-81280000D02*
X145542000Y-79756000D01*
D20*
X141605000Y-80899000D02*
X125984000Y-80899000D01*
X125984000Y-80899000D02*
X124206000Y-79121000D01*
X124206000Y-105664000D02*
X125954000Y-105664000D01*
X138938000Y-99441000D02*
X138938000Y-97917000D01*
X137922000Y-100457000D02*
X138938000Y-99441000D01*
X131161000Y-100457000D02*
X137922000Y-100457000D01*
X125954000Y-105664000D02*
X131161000Y-100457000D01*
X146050000Y-97536000D02*
X142875000Y-97536000D01*
X148590000Y-100076000D02*
X146050000Y-97536000D01*
X179876000Y-103124000D02*
X182245000Y-103124000D01*
X169100000Y-113900000D02*
X179876000Y-103124000D01*
X126284000Y-113284000D02*
X124206000Y-113284000D01*
X134600000Y-121600000D02*
X126284000Y-113284000D01*
X179500000Y-108409000D02*
X182245000Y-105664000D01*
X179500000Y-111600000D02*
X179500000Y-108409000D01*
X177300000Y-113800000D02*
X179500000Y-111600000D01*
X177400000Y-121900000D02*
X177400000Y-116200000D01*
X168500000Y-130800000D02*
X177400000Y-121900000D01*
X162300000Y-111500000D02*
X162300000Y-115000000D01*
X160700000Y-109900000D02*
X162300000Y-111500000D01*
X160700000Y-105900000D02*
X160700000Y-109900000D01*
X161400000Y-105200000D02*
X160700000Y-105900000D01*
X182245000Y-98044000D02*
X179832000Y-95631000D01*
X168910000Y-95631000D02*
X167640000Y-94361000D01*
X179832000Y-95631000D02*
X168910000Y-95631000D01*
X133985000Y-71501000D02*
X124206000Y-71501000D01*
X136144000Y-73660000D02*
X133985000Y-71501000D01*
X135763000Y-74041000D02*
X124206000Y-74041000D01*
X136144000Y-74422000D02*
X135763000Y-74041000D01*
X134747000Y-76581000D02*
X124206000Y-76581000D01*
X136144000Y-75184000D02*
X134747000Y-76581000D01*
X147320000Y-86741000D02*
X124206000Y-86741000D01*
X148209000Y-85852000D02*
X147320000Y-86741000D01*
X126365000Y-87122000D02*
X124206000Y-89281000D01*
X147828000Y-87122000D02*
X126365000Y-87122000D01*
X148463000Y-86487000D02*
X147828000Y-87122000D01*
X152200000Y-87700000D02*
X151700000Y-87200000D01*
X152200000Y-90700000D02*
X152200000Y-87700000D01*
X148400000Y-111100000D02*
X148400000Y-106000000D01*
X147100000Y-112400000D02*
X148400000Y-111100000D01*
X148400000Y-106000000D02*
X147700000Y-105300000D01*
X148600000Y-106200000D02*
X147700000Y-105300000D01*
X160000000Y-106200000D02*
X148600000Y-106200000D01*
X160100000Y-106100000D02*
X160000000Y-106200000D01*
X128524000Y-87503000D02*
X124206000Y-91821000D01*
X148463000Y-87503000D02*
X128524000Y-87503000D01*
X148844000Y-87122000D02*
X148463000Y-87503000D01*
X130683000Y-87884000D02*
X124206000Y-94361000D01*
X148717000Y-87884000D02*
X130683000Y-87884000D01*
X148844000Y-87757000D02*
X148717000Y-87884000D01*
X172720000Y-78676500D02*
X172720000Y-77597000D01*
X172021500Y-79375000D02*
X172720000Y-78676500D01*
X167386000Y-79375000D02*
X172021500Y-79375000D01*
X163512500Y-83248500D02*
X167386000Y-79375000D01*
X157480000Y-83248500D02*
X163512500Y-83248500D01*
X173736000Y-76581000D02*
X182245000Y-76581000D01*
X172720000Y-77597000D02*
X173736000Y-76581000D01*
X181229000Y-79121000D02*
X182245000Y-79121000D01*
X180340000Y-80010000D02*
X181229000Y-79121000D01*
X170180000Y-80010000D02*
X180340000Y-80010000D01*
X165481000Y-77724000D02*
X164084000Y-77724000D01*
X165608000Y-77597000D02*
X165481000Y-77724000D01*
X182245000Y-120904000D02*
X182896000Y-120904000D01*
X182896000Y-120904000D02*
X183800000Y-120000000D01*
X183800000Y-120000000D02*
X183800000Y-95916000D01*
X183800000Y-95916000D02*
X182245000Y-94361000D01*
X158400000Y-103100000D02*
X157400000Y-104100000D01*
X158400000Y-97500000D02*
X158400000Y-103100000D01*
X158300000Y-97400000D02*
X158400000Y-97500000D01*
X156100000Y-105300000D02*
X156100000Y-105000000D01*
X155500000Y-105900000D02*
X156100000Y-105300000D01*
X150200000Y-105900000D02*
X155500000Y-105900000D01*
X150100000Y-105800000D02*
X150200000Y-105900000D01*
X148000000Y-110800000D02*
X148000000Y-108400000D01*
X138200000Y-106800000D02*
X138200000Y-101100000D01*
X138500000Y-107100000D02*
X138200000Y-106800000D01*
X147200000Y-105700000D02*
X147200000Y-104400000D01*
X147500000Y-106000000D02*
X147200000Y-105700000D01*
X147500000Y-110700000D02*
X147500000Y-106000000D01*
X147400000Y-110800000D02*
X147500000Y-110700000D01*
X180996000Y-108204000D02*
X182245000Y-108204000D01*
X180000000Y-109200000D02*
X180996000Y-108204000D01*
X179000000Y-111200000D02*
X179000000Y-109300000D01*
X176700000Y-113500000D02*
X179000000Y-111200000D01*
X176700000Y-114300000D02*
X176700000Y-113500000D01*
X172600000Y-118400000D02*
X176700000Y-114300000D01*
X155500000Y-118400000D02*
X172600000Y-118400000D01*
X179641500Y-113347500D02*
X182245000Y-110744000D01*
X179641500Y-123698000D02*
X179641500Y-113347500D01*
X174942500Y-128397000D02*
X179641500Y-123698000D01*
X181116000Y-113284000D02*
X182245000Y-113284000D01*
X180100000Y-114300000D02*
X181116000Y-113284000D01*
X173100000Y-119700000D02*
X178500000Y-114300000D01*
X155900000Y-119700000D02*
X173100000Y-119700000D01*
X144500000Y-131100000D02*
X155900000Y-119700000D01*
X134000000Y-131100000D02*
X144500000Y-131100000D01*
X133600000Y-131500000D02*
X134000000Y-131100000D01*
X172900000Y-119100000D02*
X179200000Y-112800000D01*
X155200000Y-119100000D02*
X172900000Y-119100000D01*
X143800000Y-130500000D02*
X155200000Y-119100000D01*
X130300000Y-129900000D02*
X131700000Y-129900000D01*
X128600000Y-131600000D02*
X130300000Y-129900000D01*
X128600000Y-132800000D02*
X128600000Y-131600000D01*
X128700000Y-132900000D02*
X128600000Y-132800000D01*
X135128000Y-79883000D02*
X131191000Y-79883000D01*
X158500000Y-105800000D02*
X159639000Y-104648000D01*
X168400000Y-104300000D02*
X168400000Y-104800000D01*
X165800000Y-101700000D02*
X168400000Y-104300000D01*
X165800000Y-89600000D02*
X165800000Y-101700000D01*
X169900000Y-85500000D02*
X165800000Y-89600000D01*
X169900000Y-80500000D02*
X169900000Y-85500000D01*
X169400000Y-80000000D02*
X169900000Y-80500000D01*
X168400000Y-78500000D02*
X168400000Y-78900000D01*
X169600000Y-77300000D02*
X168400000Y-78500000D01*
D22*
G36*
X183495121Y-61836811D02*
X183738206Y-61960797D01*
X183931025Y-62153884D01*
X184054672Y-62397140D01*
X184098594Y-62676715D01*
X184052814Y-95600300D01*
X183318802Y-94866288D01*
X183355465Y-94811418D01*
X183445059Y-94361000D01*
X183355465Y-93910582D01*
X183100324Y-93528735D01*
X182718477Y-93273594D01*
X182268059Y-93184000D01*
X182221941Y-93184000D01*
X181771523Y-93273594D01*
X181389676Y-93528735D01*
X181134535Y-93910582D01*
X181044941Y-94361000D01*
X181134535Y-94811418D01*
X181389676Y-95193265D01*
X181771523Y-95448406D01*
X182221941Y-95538000D01*
X182268059Y-95538000D01*
X182718477Y-95448406D01*
X182745701Y-95430215D01*
X183398000Y-96082514D01*
X183398000Y-97061003D01*
X183333988Y-96961526D01*
X183224714Y-96886862D01*
X183095000Y-96860594D01*
X181630108Y-96860594D01*
X180116257Y-95346743D01*
X179985839Y-95259600D01*
X179832000Y-95229000D01*
X173648843Y-95229000D01*
X173702324Y-95193265D01*
X173957465Y-94811418D01*
X174047059Y-94361000D01*
X173957465Y-93910582D01*
X173702324Y-93528735D01*
X173320477Y-93273594D01*
X172870059Y-93184000D01*
X172823941Y-93184000D01*
X172373523Y-93273594D01*
X171991676Y-93528735D01*
X171736535Y-93910582D01*
X171646941Y-94361000D01*
X171736535Y-94811418D01*
X171991676Y-95193265D01*
X172045157Y-95229000D01*
X169076514Y-95229000D01*
X168713802Y-94866288D01*
X168750465Y-94811418D01*
X168840059Y-94361000D01*
X168750465Y-93910582D01*
X168495324Y-93528735D01*
X168113477Y-93273594D01*
X167663059Y-93184000D01*
X167616941Y-93184000D01*
X167166523Y-93273594D01*
X166784676Y-93528735D01*
X166529535Y-93910582D01*
X166439941Y-94361000D01*
X166529535Y-94811418D01*
X166784676Y-95193265D01*
X167166523Y-95448406D01*
X167265035Y-95468001D01*
X166758642Y-95705817D01*
X166368355Y-96134076D01*
X166202000Y-96535718D01*
X166202000Y-90971000D01*
X166456594Y-90971000D01*
X166456594Y-92671000D01*
X166479395Y-92792179D01*
X166551012Y-92903474D01*
X166660286Y-92978138D01*
X166790000Y-93004406D01*
X168490000Y-93004406D01*
X168611179Y-92981605D01*
X168722474Y-92909988D01*
X168797138Y-92800714D01*
X168823406Y-92671000D01*
X168823406Y-90971000D01*
X168800605Y-90849821D01*
X168728988Y-90738526D01*
X168619714Y-90663862D01*
X168490000Y-90637594D01*
X166790000Y-90637594D01*
X166668821Y-90660395D01*
X166557526Y-90732012D01*
X166482862Y-90841286D01*
X166456594Y-90971000D01*
X166202000Y-90971000D01*
X166202000Y-89766514D01*
X170184257Y-85784257D01*
X170271400Y-85653839D01*
X170302000Y-85500000D01*
X170302000Y-80529806D01*
X170478132Y-80457030D01*
X170523241Y-80412000D01*
X173573928Y-80412000D01*
X173473126Y-80654756D01*
X173472985Y-80817079D01*
X172492032Y-81798032D01*
X172383212Y-81960893D01*
X172344999Y-82153000D01*
X172345000Y-82153005D01*
X172345000Y-90637594D01*
X171997000Y-90637594D01*
X171875821Y-90660395D01*
X171764526Y-90732012D01*
X171689862Y-90841286D01*
X171663594Y-90971000D01*
X171663594Y-92671000D01*
X171686395Y-92792179D01*
X171758012Y-92903474D01*
X171867286Y-92978138D01*
X171997000Y-93004406D01*
X173697000Y-93004406D01*
X173818179Y-92981605D01*
X173929474Y-92909988D01*
X174004138Y-92800714D01*
X174030406Y-92671000D01*
X174030406Y-91821000D01*
X181044941Y-91821000D01*
X181134535Y-92271418D01*
X181389676Y-92653265D01*
X181771523Y-92908406D01*
X182221941Y-92998000D01*
X182268059Y-92998000D01*
X182718477Y-92908406D01*
X183100324Y-92653265D01*
X183355465Y-92271418D01*
X183445059Y-91821000D01*
X183355465Y-91370582D01*
X183100324Y-90988735D01*
X182718477Y-90733594D01*
X182268059Y-90644000D01*
X182221941Y-90644000D01*
X181771523Y-90733594D01*
X181389676Y-90988735D01*
X181134535Y-91370582D01*
X181044941Y-91821000D01*
X174030406Y-91821000D01*
X174030406Y-90971000D01*
X174007605Y-90849821D01*
X173935988Y-90738526D01*
X173826714Y-90663862D01*
X173697000Y-90637594D01*
X173349000Y-90637594D01*
X173349000Y-89281000D01*
X181044941Y-89281000D01*
X181134535Y-89731418D01*
X181389676Y-90113265D01*
X181771523Y-90368406D01*
X182221941Y-90458000D01*
X182268059Y-90458000D01*
X182718477Y-90368406D01*
X183100324Y-90113265D01*
X183355465Y-89731418D01*
X183445059Y-89281000D01*
X183355465Y-88830582D01*
X183100324Y-88448735D01*
X182718477Y-88193594D01*
X182268059Y-88104000D01*
X182221941Y-88104000D01*
X181771523Y-88193594D01*
X181389676Y-88448735D01*
X181134535Y-88830582D01*
X181044941Y-89281000D01*
X173349000Y-89281000D01*
X173349000Y-86741000D01*
X181044941Y-86741000D01*
X181134535Y-87191418D01*
X181389676Y-87573265D01*
X181771523Y-87828406D01*
X182221941Y-87918000D01*
X182268059Y-87918000D01*
X182718477Y-87828406D01*
X183100324Y-87573265D01*
X183355465Y-87191418D01*
X183445059Y-86741000D01*
X183355465Y-86290582D01*
X183100324Y-85908735D01*
X182718477Y-85653594D01*
X182268059Y-85564000D01*
X182221941Y-85564000D01*
X181771523Y-85653594D01*
X181389676Y-85908735D01*
X181134535Y-86290582D01*
X181044941Y-86741000D01*
X173349000Y-86741000D01*
X173349000Y-84201000D01*
X181044941Y-84201000D01*
X181134535Y-84651418D01*
X181389676Y-85033265D01*
X181771523Y-85288406D01*
X182221941Y-85378000D01*
X182268059Y-85378000D01*
X182718477Y-85288406D01*
X183100324Y-85033265D01*
X183355465Y-84651418D01*
X183445059Y-84201000D01*
X183355465Y-83750582D01*
X183100324Y-83368735D01*
X182718477Y-83113594D01*
X182268059Y-83024000D01*
X182221941Y-83024000D01*
X181771523Y-83113594D01*
X181389676Y-83368735D01*
X181134535Y-83750582D01*
X181044941Y-84201000D01*
X173349000Y-84201000D01*
X173349000Y-82360936D01*
X174048936Y-81661000D01*
X181044941Y-81661000D01*
X181134535Y-82111418D01*
X181389676Y-82493265D01*
X181771523Y-82748406D01*
X182221941Y-82838000D01*
X182268059Y-82838000D01*
X182718477Y-82748406D01*
X183100324Y-82493265D01*
X183355465Y-82111418D01*
X183445059Y-81661000D01*
X183355465Y-81210582D01*
X183100324Y-80828735D01*
X182718477Y-80573594D01*
X182268059Y-80484000D01*
X182221941Y-80484000D01*
X181771523Y-80573594D01*
X181389676Y-80828735D01*
X181134535Y-81210582D01*
X181044941Y-81661000D01*
X174048936Y-81661000D01*
X174182950Y-81526986D01*
X174343975Y-81527126D01*
X174611275Y-81416680D01*
X174815961Y-81212350D01*
X174926874Y-80945244D01*
X174927126Y-80656025D01*
X174826297Y-80412000D01*
X180340000Y-80412000D01*
X180493839Y-80381400D01*
X180624257Y-80294257D01*
X181219675Y-79698839D01*
X181389676Y-79953265D01*
X181771523Y-80208406D01*
X182221941Y-80298000D01*
X182268059Y-80298000D01*
X182718477Y-80208406D01*
X183100324Y-79953265D01*
X183355465Y-79571418D01*
X183445059Y-79121000D01*
X183355465Y-78670582D01*
X183100324Y-78288735D01*
X182718477Y-78033594D01*
X182268059Y-77944000D01*
X182221941Y-77944000D01*
X181771523Y-78033594D01*
X181389676Y-78288735D01*
X181134535Y-78670582D01*
X181120616Y-78740559D01*
X181075161Y-78749600D01*
X180944743Y-78836743D01*
X180173486Y-79608000D01*
X172357014Y-79608000D01*
X173004257Y-78960757D01*
X173091400Y-78830339D01*
X173122000Y-78676500D01*
X173122000Y-77940343D01*
X173166509Y-77895912D01*
X173246909Y-77702287D01*
X173246965Y-77638549D01*
X173902514Y-76983000D01*
X181124904Y-76983000D01*
X181134535Y-77031418D01*
X181389676Y-77413265D01*
X181771523Y-77668406D01*
X182221941Y-77758000D01*
X182268059Y-77758000D01*
X182718477Y-77668406D01*
X183100324Y-77413265D01*
X183355465Y-77031418D01*
X183445059Y-76581000D01*
X183355465Y-76130582D01*
X183100324Y-75748735D01*
X182718477Y-75493594D01*
X182268059Y-75404000D01*
X182221941Y-75404000D01*
X181771523Y-75493594D01*
X181389676Y-75748735D01*
X181134535Y-76130582D01*
X181124904Y-76179000D01*
X177849195Y-76179000D01*
X177915961Y-76112350D01*
X178026874Y-75845244D01*
X178027126Y-75556025D01*
X177916680Y-75288725D01*
X177712350Y-75084039D01*
X177445244Y-74973126D01*
X177282920Y-74972985D01*
X176350936Y-74041000D01*
X181044941Y-74041000D01*
X181134535Y-74491418D01*
X181389676Y-74873265D01*
X181771523Y-75128406D01*
X182221941Y-75218000D01*
X182268059Y-75218000D01*
X182718477Y-75128406D01*
X183100324Y-74873265D01*
X183355465Y-74491418D01*
X183445059Y-74041000D01*
X183355465Y-73590582D01*
X183100324Y-73208735D01*
X182718477Y-72953594D01*
X182268059Y-72864000D01*
X182221941Y-72864000D01*
X181771523Y-72953594D01*
X181389676Y-73208735D01*
X181134535Y-73590582D01*
X181044941Y-74041000D01*
X176350936Y-74041000D01*
X172960936Y-70651000D01*
X181061594Y-70651000D01*
X181061594Y-72351000D01*
X181084395Y-72472179D01*
X181156012Y-72583474D01*
X181265286Y-72658138D01*
X181395000Y-72684406D01*
X183095000Y-72684406D01*
X183216179Y-72661605D01*
X183327474Y-72589988D01*
X183402138Y-72480714D01*
X183428406Y-72351000D01*
X183428406Y-70651000D01*
X183405605Y-70529821D01*
X183333988Y-70418526D01*
X183224714Y-70343862D01*
X183095000Y-70317594D01*
X181395000Y-70317594D01*
X181273821Y-70340395D01*
X181162526Y-70412012D01*
X181087862Y-70521286D01*
X181061594Y-70651000D01*
X172960936Y-70651000D01*
X169772968Y-67463032D01*
X169610107Y-67354212D01*
X169418000Y-67315999D01*
X169417995Y-67316000D01*
X167445999Y-67316000D01*
X167225324Y-66985735D01*
X166843477Y-66730594D01*
X166393059Y-66641000D01*
X166346941Y-66641000D01*
X165896523Y-66730594D01*
X165514676Y-66985735D01*
X165259535Y-67367582D01*
X165169941Y-67818000D01*
X165259535Y-68268418D01*
X165514676Y-68650265D01*
X165896523Y-68905406D01*
X166346941Y-68995000D01*
X166393059Y-68995000D01*
X166843477Y-68905406D01*
X167225324Y-68650265D01*
X167445999Y-68320000D01*
X169210064Y-68320000D01*
X176573014Y-75682949D01*
X176572874Y-75843975D01*
X176683320Y-76111275D01*
X176750927Y-76179000D01*
X173736000Y-76179000D01*
X173582161Y-76209600D01*
X173451743Y-76296743D01*
X172678523Y-77069963D01*
X172615633Y-77069908D01*
X172421868Y-77149970D01*
X172273491Y-77298088D01*
X172193091Y-77491713D01*
X172192908Y-77701367D01*
X172272970Y-77895132D01*
X172318000Y-77940241D01*
X172318000Y-78509986D01*
X171854986Y-78973000D01*
X168926937Y-78973000D01*
X168927092Y-78795633D01*
X168852765Y-78615749D01*
X169641477Y-77827037D01*
X169704367Y-77827092D01*
X169898132Y-77747030D01*
X170046509Y-77598912D01*
X170126909Y-77405287D01*
X170127092Y-77195633D01*
X170047030Y-77001868D01*
X169898912Y-76853491D01*
X169705287Y-76773091D01*
X169495633Y-76772908D01*
X169301868Y-76852970D01*
X169153491Y-77001088D01*
X169073091Y-77194713D01*
X169073035Y-77258451D01*
X168115743Y-78215743D01*
X168028600Y-78346161D01*
X167998000Y-78500000D01*
X167998000Y-78556657D01*
X167953491Y-78601088D01*
X167873091Y-78794713D01*
X167872935Y-78973000D01*
X167386000Y-78973000D01*
X167232161Y-79003600D01*
X167101743Y-79090743D01*
X163345986Y-82846500D01*
X157823343Y-82846500D01*
X157778912Y-82801991D01*
X157585287Y-82721591D01*
X157375633Y-82721408D01*
X157181868Y-82801470D01*
X157033491Y-82949588D01*
X156953091Y-83143213D01*
X156952908Y-83352867D01*
X157032970Y-83546632D01*
X157181088Y-83695009D01*
X157374713Y-83775409D01*
X157584367Y-83775592D01*
X157778132Y-83695530D01*
X157823241Y-83650500D01*
X163512500Y-83650500D01*
X163666339Y-83619900D01*
X163796757Y-83532757D01*
X167552514Y-79777000D01*
X168921970Y-79777000D01*
X168873091Y-79894713D01*
X168872908Y-80104367D01*
X168952970Y-80298132D01*
X169101088Y-80446509D01*
X169294713Y-80526909D01*
X169358451Y-80526965D01*
X169498000Y-80666514D01*
X169498000Y-85333486D01*
X165515743Y-89315743D01*
X165428600Y-89446161D01*
X165398000Y-89600000D01*
X165398000Y-101700000D01*
X165428600Y-101853839D01*
X165515743Y-101984257D01*
X167993067Y-104461581D01*
X167953491Y-104501088D01*
X167873091Y-104694713D01*
X167872908Y-104904367D01*
X167952970Y-105098132D01*
X168101088Y-105246509D01*
X168294713Y-105326909D01*
X168504367Y-105327092D01*
X168698132Y-105247030D01*
X168846509Y-105098912D01*
X168926909Y-104905287D01*
X168927092Y-104695633D01*
X168847030Y-104501868D01*
X168802000Y-104456759D01*
X168802000Y-104300000D01*
X168771400Y-104146161D01*
X168684257Y-104015743D01*
X166202000Y-101533486D01*
X166202000Y-97266282D01*
X166368355Y-97667924D01*
X166758642Y-98096183D01*
X167283108Y-98342486D01*
X167513000Y-98221819D01*
X167513000Y-97028000D01*
X167767000Y-97028000D01*
X167767000Y-98221819D01*
X167996892Y-98342486D01*
X168521358Y-98096183D01*
X168911645Y-97667924D01*
X169081476Y-97257890D01*
X171405524Y-97257890D01*
X171575355Y-97667924D01*
X171965642Y-98096183D01*
X172490108Y-98342486D01*
X172720000Y-98221819D01*
X172720000Y-97028000D01*
X172974000Y-97028000D01*
X172974000Y-98221819D01*
X173203892Y-98342486D01*
X173728358Y-98096183D01*
X174118645Y-97667924D01*
X174288476Y-97257890D01*
X174167155Y-97028000D01*
X172974000Y-97028000D01*
X172720000Y-97028000D01*
X171526845Y-97028000D01*
X171405524Y-97257890D01*
X169081476Y-97257890D01*
X168960155Y-97028000D01*
X167767000Y-97028000D01*
X167513000Y-97028000D01*
X167493000Y-97028000D01*
X167493000Y-96774000D01*
X167513000Y-96774000D01*
X167513000Y-96754000D01*
X167767000Y-96754000D01*
X167767000Y-96774000D01*
X168960155Y-96774000D01*
X169081476Y-96544110D01*
X168911645Y-96134076D01*
X168799500Y-96011021D01*
X168910000Y-96033000D01*
X171667469Y-96033000D01*
X171575355Y-96134076D01*
X171405524Y-96544110D01*
X171526845Y-96774000D01*
X172720000Y-96774000D01*
X172720000Y-96754000D01*
X172974000Y-96754000D01*
X172974000Y-96774000D01*
X174167155Y-96774000D01*
X174288476Y-96544110D01*
X174118645Y-96134076D01*
X174026531Y-96033000D01*
X178738784Y-96033000D01*
X178684039Y-96087650D01*
X178573126Y-96354756D01*
X178572874Y-96643975D01*
X178683320Y-96911275D01*
X178798000Y-97026155D01*
X178798000Y-101692065D01*
X171917050Y-108573014D01*
X171756025Y-108572874D01*
X171488725Y-108683320D01*
X171284039Y-108887650D01*
X171173126Y-109154756D01*
X171172874Y-109443975D01*
X171283320Y-109711275D01*
X171487650Y-109915961D01*
X171754756Y-110026874D01*
X172043975Y-110027126D01*
X172311275Y-109916680D01*
X172515961Y-109712350D01*
X172626874Y-109445244D01*
X172627015Y-109282921D01*
X179654965Y-102254970D01*
X179654968Y-102254968D01*
X179757178Y-102102000D01*
X179763788Y-102092108D01*
X179802000Y-101900000D01*
X179802000Y-97026113D01*
X179915961Y-96912350D01*
X180026874Y-96645244D01*
X180027092Y-96394606D01*
X181061594Y-97429108D01*
X181061594Y-98894000D01*
X181084395Y-99015179D01*
X181156012Y-99126474D01*
X181265286Y-99201138D01*
X181395000Y-99227406D01*
X183095000Y-99227406D01*
X183216179Y-99204605D01*
X183327474Y-99132988D01*
X183398000Y-99029770D01*
X183398000Y-100347419D01*
X183355465Y-100133582D01*
X183100324Y-99751735D01*
X182718477Y-99496594D01*
X182268059Y-99407000D01*
X182221941Y-99407000D01*
X181771523Y-99496594D01*
X181389676Y-99751735D01*
X181134535Y-100133582D01*
X181044941Y-100584000D01*
X181134535Y-101034418D01*
X181389676Y-101416265D01*
X181771523Y-101671406D01*
X182221941Y-101761000D01*
X182268059Y-101761000D01*
X182718477Y-101671406D01*
X183100324Y-101416265D01*
X183355465Y-101034418D01*
X183398000Y-100820581D01*
X183398000Y-102887419D01*
X183355465Y-102673582D01*
X183100324Y-102291735D01*
X182718477Y-102036594D01*
X182268059Y-101947000D01*
X182221941Y-101947000D01*
X181771523Y-102036594D01*
X181389676Y-102291735D01*
X181134535Y-102673582D01*
X181124904Y-102722000D01*
X179876000Y-102722000D01*
X179722161Y-102752600D01*
X179591743Y-102839743D01*
X169058523Y-113372963D01*
X168995633Y-113372908D01*
X168801868Y-113452970D01*
X168653491Y-113601088D01*
X168573091Y-113794713D01*
X168572908Y-114004367D01*
X168652970Y-114198132D01*
X168801088Y-114346509D01*
X168994713Y-114426909D01*
X169204367Y-114427092D01*
X169398132Y-114347030D01*
X169546509Y-114198912D01*
X169626909Y-114005287D01*
X169626965Y-113941549D01*
X180042514Y-103526000D01*
X181124904Y-103526000D01*
X181134535Y-103574418D01*
X181389676Y-103956265D01*
X181771523Y-104211406D01*
X182221941Y-104301000D01*
X182268059Y-104301000D01*
X182718477Y-104211406D01*
X183100324Y-103956265D01*
X183355465Y-103574418D01*
X183398000Y-103360581D01*
X183398000Y-105427419D01*
X183355465Y-105213582D01*
X183100324Y-104831735D01*
X182718477Y-104576594D01*
X182268059Y-104487000D01*
X182221941Y-104487000D01*
X181771523Y-104576594D01*
X181389676Y-104831735D01*
X181134535Y-105213582D01*
X181044941Y-105664000D01*
X181134535Y-106114418D01*
X181171198Y-106169288D01*
X179215743Y-108124743D01*
X179128600Y-108255161D01*
X179098000Y-108409000D01*
X179098000Y-108773085D01*
X178895633Y-108772908D01*
X178701868Y-108852970D01*
X178553491Y-109001088D01*
X178473091Y-109194713D01*
X178472908Y-109404367D01*
X178552970Y-109598132D01*
X178598000Y-109643241D01*
X178598000Y-111033486D01*
X176415743Y-113215743D01*
X176328600Y-113346161D01*
X176298000Y-113500000D01*
X176298000Y-114133486D01*
X172433486Y-117998000D01*
X159830162Y-117998000D01*
X159915961Y-117912350D01*
X160026874Y-117645244D01*
X160027126Y-117356025D01*
X159916680Y-117088725D01*
X159802000Y-116973845D01*
X159802000Y-111400005D01*
X159802001Y-111400000D01*
X159763788Y-111207893D01*
X159654968Y-111045032D01*
X156126986Y-107517050D01*
X156127126Y-107356025D01*
X156016680Y-107088725D01*
X155812350Y-106884039D01*
X155545244Y-106773126D01*
X155256025Y-106772874D01*
X154988725Y-106883320D01*
X154784039Y-107087650D01*
X154673126Y-107354756D01*
X154672874Y-107643975D01*
X154783320Y-107911275D01*
X154987650Y-108115961D01*
X155254756Y-108226874D01*
X155417079Y-108227015D01*
X158798000Y-111607936D01*
X158798000Y-116973887D01*
X158684039Y-117087650D01*
X158573126Y-117354756D01*
X158572874Y-117643975D01*
X158683320Y-117911275D01*
X158769894Y-117998000D01*
X155843343Y-117998000D01*
X155798912Y-117953491D01*
X155605287Y-117873091D01*
X155395633Y-117872908D01*
X155201868Y-117952970D01*
X155053491Y-118101088D01*
X154973091Y-118294713D01*
X154972908Y-118504367D01*
X155052970Y-118698132D01*
X155077218Y-118722422D01*
X155046161Y-118728600D01*
X154915743Y-118815743D01*
X154512020Y-119219466D01*
X154416680Y-118988725D01*
X154212350Y-118784039D01*
X153945244Y-118673126D01*
X153782920Y-118672985D01*
X152254968Y-117145032D01*
X152092107Y-117036212D01*
X151900000Y-116997999D01*
X151899995Y-116998000D01*
X148926113Y-116998000D01*
X148812350Y-116884039D01*
X148545244Y-116773126D01*
X148256025Y-116772874D01*
X147988725Y-116883320D01*
X147784039Y-117087650D01*
X147673126Y-117354756D01*
X147672874Y-117643975D01*
X147783320Y-117911275D01*
X147898000Y-118026155D01*
X147898000Y-119373887D01*
X147784039Y-119487650D01*
X147673126Y-119754756D01*
X147672874Y-120043975D01*
X147783320Y-120311275D01*
X147987650Y-120515961D01*
X148254756Y-120626874D01*
X148543975Y-120627126D01*
X148811275Y-120516680D01*
X149015961Y-120312350D01*
X149126874Y-120045244D01*
X149127126Y-119756025D01*
X149016680Y-119488725D01*
X148902000Y-119373845D01*
X148902000Y-118026113D01*
X148926155Y-118002000D01*
X151692064Y-118002000D01*
X153073014Y-119382949D01*
X153072874Y-119543975D01*
X153183320Y-119811275D01*
X153387650Y-120015961D01*
X153619325Y-120112161D01*
X143758523Y-129972963D01*
X143695633Y-129972908D01*
X143501868Y-130052970D01*
X143353491Y-130201088D01*
X143273091Y-130394713D01*
X143272908Y-130604367D01*
X143311596Y-130698000D01*
X134000000Y-130698000D01*
X133846161Y-130728600D01*
X133715743Y-130815743D01*
X133558523Y-130972963D01*
X133495633Y-130972908D01*
X133301868Y-131052970D01*
X133153491Y-131201088D01*
X133073091Y-131394713D01*
X133072908Y-131604367D01*
X133152970Y-131798132D01*
X133301088Y-131946509D01*
X133494713Y-132026909D01*
X133704367Y-132027092D01*
X133898132Y-131947030D01*
X134046509Y-131798912D01*
X134126909Y-131605287D01*
X134126965Y-131541549D01*
X134166514Y-131502000D01*
X144500000Y-131502000D01*
X144653839Y-131471400D01*
X144784257Y-131384257D01*
X147449592Y-128718922D01*
X149202573Y-128718922D01*
X149400814Y-129198701D01*
X149767568Y-129566096D01*
X150247001Y-129765173D01*
X150766122Y-129765627D01*
X151245901Y-129567386D01*
X151613296Y-129200632D01*
X151760056Y-128847192D01*
X153304562Y-128847192D01*
X153601201Y-129565114D01*
X154149997Y-130114869D01*
X154867400Y-130412761D01*
X155644192Y-130413438D01*
X156362114Y-130116799D01*
X156911869Y-129568003D01*
X157209761Y-128850600D01*
X157209875Y-128718922D01*
X158702173Y-128718922D01*
X158900414Y-129198701D01*
X159267168Y-129566096D01*
X159746601Y-129765173D01*
X160265722Y-129765627D01*
X160745501Y-129567386D01*
X161112896Y-129200632D01*
X161311973Y-128721199D01*
X161312427Y-128202078D01*
X161114186Y-127722299D01*
X160747432Y-127354904D01*
X160267999Y-127155827D01*
X159748878Y-127155373D01*
X159269099Y-127353614D01*
X158901704Y-127720368D01*
X158702627Y-128199801D01*
X158702173Y-128718922D01*
X157209875Y-128718922D01*
X157210438Y-128073808D01*
X156913799Y-127355886D01*
X156365003Y-126806131D01*
X155647600Y-126508239D01*
X154870808Y-126507562D01*
X154152886Y-126804201D01*
X153603131Y-127352997D01*
X153305239Y-128070400D01*
X153304562Y-128847192D01*
X151760056Y-128847192D01*
X151812373Y-128721199D01*
X151812827Y-128202078D01*
X151614586Y-127722299D01*
X151247832Y-127354904D01*
X150768399Y-127155827D01*
X150249278Y-127155373D01*
X149769499Y-127353614D01*
X149402104Y-127720368D01*
X149203027Y-128199801D01*
X149202573Y-128718922D01*
X147449592Y-128718922D01*
X154817218Y-121351296D01*
X154883320Y-121511275D01*
X155087650Y-121715961D01*
X155354756Y-121826874D01*
X155517080Y-121827015D01*
X155945030Y-122254965D01*
X155945032Y-122254968D01*
X156107893Y-122363788D01*
X156300000Y-122402001D01*
X156300005Y-122402000D01*
X169973887Y-122402000D01*
X170087650Y-122515961D01*
X170354756Y-122626874D01*
X170643975Y-122627126D01*
X170911275Y-122516680D01*
X171115961Y-122312350D01*
X171226874Y-122045244D01*
X171227126Y-121756025D01*
X171116680Y-121488725D01*
X170912350Y-121284039D01*
X170645244Y-121173126D01*
X170356025Y-121172874D01*
X170088725Y-121283320D01*
X169973845Y-121398000D01*
X156507935Y-121398000D01*
X156226986Y-121117050D01*
X156227126Y-120956025D01*
X156116680Y-120688725D01*
X155912350Y-120484039D01*
X155751335Y-120417179D01*
X156066514Y-120102000D01*
X173100000Y-120102000D01*
X173253839Y-120071400D01*
X173384257Y-119984257D01*
X176928823Y-116439691D01*
X176952970Y-116498132D01*
X176998000Y-116543241D01*
X176998000Y-121733486D01*
X168458523Y-130272963D01*
X168395633Y-130272908D01*
X168201868Y-130352970D01*
X168053491Y-130501088D01*
X167973091Y-130694713D01*
X167972908Y-130904367D01*
X168052970Y-131098132D01*
X168201088Y-131246509D01*
X168394713Y-131326909D01*
X168604367Y-131327092D01*
X168798132Y-131247030D01*
X168946509Y-131098912D01*
X169026909Y-130905287D01*
X169026965Y-130841549D01*
X177684257Y-122184257D01*
X177771400Y-122053839D01*
X177802000Y-121900000D01*
X177802000Y-116543343D01*
X177846509Y-116498912D01*
X177926909Y-116305287D01*
X177927092Y-116095633D01*
X177847030Y-115901868D01*
X177698912Y-115753491D01*
X177639636Y-115728878D01*
X178541477Y-114827037D01*
X178604367Y-114827092D01*
X178798132Y-114747030D01*
X178946509Y-114598912D01*
X179026909Y-114405287D01*
X179027092Y-114195633D01*
X178947030Y-114001868D01*
X178798912Y-113853491D01*
X178739636Y-113828878D01*
X179241477Y-113327037D01*
X179243570Y-113327039D01*
X179239500Y-113347500D01*
X179239500Y-123531486D01*
X174901023Y-127869963D01*
X174838133Y-127869908D01*
X174644368Y-127949970D01*
X174495991Y-128098088D01*
X174415591Y-128291713D01*
X174415408Y-128501367D01*
X174495470Y-128695132D01*
X174643588Y-128843509D01*
X174837213Y-128923909D01*
X175046867Y-128924092D01*
X175240632Y-128844030D01*
X175389009Y-128695912D01*
X175469409Y-128502287D01*
X175469465Y-128438549D01*
X179925757Y-123982257D01*
X180012900Y-123851839D01*
X180043500Y-123698000D01*
X180043500Y-114826952D01*
X180204367Y-114827092D01*
X180398132Y-114747030D01*
X180546509Y-114598912D01*
X180626909Y-114405287D01*
X180626965Y-114341549D01*
X181174413Y-113794101D01*
X181389676Y-114116265D01*
X181771523Y-114371406D01*
X182221941Y-114461000D01*
X182268059Y-114461000D01*
X182718477Y-114371406D01*
X183100324Y-114116265D01*
X183355465Y-113734418D01*
X183398000Y-113520581D01*
X183398000Y-115587419D01*
X183355465Y-115373582D01*
X183100324Y-114991735D01*
X182718477Y-114736594D01*
X182268059Y-114647000D01*
X182221941Y-114647000D01*
X181771523Y-114736594D01*
X181389676Y-114991735D01*
X181134535Y-115373582D01*
X181044941Y-115824000D01*
X181134535Y-116274418D01*
X181389676Y-116656265D01*
X181771523Y-116911406D01*
X182221941Y-117001000D01*
X182268059Y-117001000D01*
X182718477Y-116911406D01*
X183100324Y-116656265D01*
X183355465Y-116274418D01*
X183398000Y-116060581D01*
X183398000Y-118127419D01*
X183355465Y-117913582D01*
X183100324Y-117531735D01*
X182718477Y-117276594D01*
X182268059Y-117187000D01*
X182221941Y-117187000D01*
X181771523Y-117276594D01*
X181389676Y-117531735D01*
X181134535Y-117913582D01*
X181044941Y-118364000D01*
X181134535Y-118814418D01*
X181389676Y-119196265D01*
X181771523Y-119451406D01*
X182221941Y-119541000D01*
X182268059Y-119541000D01*
X182718477Y-119451406D01*
X183100324Y-119196265D01*
X183355465Y-118814418D01*
X183398000Y-118600581D01*
X183398000Y-119833486D01*
X183124127Y-120107359D01*
X183100324Y-120071735D01*
X182718477Y-119816594D01*
X182268059Y-119727000D01*
X182221941Y-119727000D01*
X181771523Y-119816594D01*
X181389676Y-120071735D01*
X181134535Y-120453582D01*
X181044941Y-120904000D01*
X181134535Y-121354418D01*
X181389676Y-121736265D01*
X181771523Y-121991406D01*
X182221941Y-122081000D01*
X182268059Y-122081000D01*
X182718477Y-121991406D01*
X183100324Y-121736265D01*
X183355465Y-121354418D01*
X183440228Y-120928286D01*
X184018399Y-120350115D01*
X183974406Y-151988719D01*
X183905294Y-152333971D01*
X183716510Y-152615976D01*
X183434244Y-152804368D01*
X183088893Y-152873000D01*
X122811396Y-152873000D01*
X122531879Y-152828689D01*
X122288794Y-152704703D01*
X122095975Y-152511616D01*
X121972328Y-152268360D01*
X121928406Y-151988785D01*
X121931054Y-150083985D01*
X170195330Y-150083985D01*
X170343756Y-150443203D01*
X170618351Y-150718278D01*
X170977310Y-150867330D01*
X171365985Y-150867670D01*
X171725203Y-150719244D01*
X172000278Y-150444649D01*
X172149330Y-150085690D01*
X172149331Y-150083985D01*
X175195330Y-150083985D01*
X175343756Y-150443203D01*
X175618351Y-150718278D01*
X175977310Y-150867330D01*
X176365985Y-150867670D01*
X176725203Y-150719244D01*
X177000278Y-150444649D01*
X177149330Y-150085690D01*
X177149670Y-149697015D01*
X177001244Y-149337797D01*
X176726649Y-149062722D01*
X176367690Y-148913670D01*
X175979015Y-148913330D01*
X175619797Y-149061756D01*
X175344722Y-149336351D01*
X175195670Y-149695310D01*
X175195330Y-150083985D01*
X172149331Y-150083985D01*
X172149670Y-149697015D01*
X172001244Y-149337797D01*
X171726649Y-149062722D01*
X171367690Y-148913670D01*
X170979015Y-148913330D01*
X170619797Y-149061756D01*
X170344722Y-149336351D01*
X170195670Y-149695310D01*
X170195330Y-150083985D01*
X121931054Y-150083985D01*
X121935860Y-146627192D01*
X153304562Y-146627192D01*
X153601201Y-147345114D01*
X154149997Y-147894869D01*
X154867400Y-148192761D01*
X155644192Y-148193438D01*
X156362114Y-147896799D01*
X156911869Y-147348003D01*
X157209761Y-146630600D01*
X157209875Y-146498922D01*
X158702173Y-146498922D01*
X158900414Y-146978701D01*
X159267168Y-147346096D01*
X159746601Y-147545173D01*
X160265722Y-147545627D01*
X160745501Y-147347386D01*
X161112896Y-146980632D01*
X161311973Y-146501199D01*
X161312427Y-145982078D01*
X161114186Y-145502299D01*
X160805334Y-145192907D01*
X164645235Y-145192907D01*
X164877217Y-145754346D01*
X165306394Y-146184273D01*
X165867428Y-146417235D01*
X166474907Y-146417765D01*
X167036346Y-146185783D01*
X167466273Y-145756606D01*
X167699235Y-145195572D01*
X167699237Y-145192907D01*
X179645235Y-145192907D01*
X179877217Y-145754346D01*
X180306394Y-146184273D01*
X180867428Y-146417235D01*
X181474907Y-146417765D01*
X182036346Y-146185783D01*
X182466273Y-145756606D01*
X182699235Y-145195572D01*
X182699765Y-144588093D01*
X182467783Y-144026654D01*
X182038606Y-143596727D01*
X181477572Y-143363765D01*
X180870093Y-143363235D01*
X180308654Y-143595217D01*
X179878727Y-144024394D01*
X179645765Y-144585428D01*
X179645235Y-145192907D01*
X167699237Y-145192907D01*
X167699765Y-144588093D01*
X167467783Y-144026654D01*
X167038606Y-143596727D01*
X166477572Y-143363765D01*
X165870093Y-143363235D01*
X165308654Y-143595217D01*
X164878727Y-144024394D01*
X164645765Y-144585428D01*
X164645235Y-145192907D01*
X160805334Y-145192907D01*
X160747432Y-145134904D01*
X160267999Y-144935827D01*
X159748878Y-144935373D01*
X159269099Y-145133614D01*
X158901704Y-145500368D01*
X158702627Y-145979801D01*
X158702173Y-146498922D01*
X157209875Y-146498922D01*
X157210438Y-145853808D01*
X156913799Y-145135886D01*
X156365003Y-144586131D01*
X155647600Y-144288239D01*
X154870808Y-144287562D01*
X154152886Y-144584201D01*
X153603131Y-145132997D01*
X153305239Y-145850400D01*
X153304562Y-146627192D01*
X121935860Y-146627192D01*
X121948060Y-137853245D01*
X131392047Y-137853245D01*
X131631576Y-138432951D01*
X132074716Y-138876865D01*
X132654003Y-139117406D01*
X133281245Y-139117953D01*
X133860951Y-138878424D01*
X133865293Y-138874089D01*
X135498517Y-138874089D01*
X135627725Y-139166859D01*
X136327883Y-139435071D01*
X137077384Y-139414928D01*
X137676275Y-139166859D01*
X137805483Y-138874089D01*
X136652000Y-137720605D01*
X135498517Y-138874089D01*
X133865293Y-138874089D01*
X134304865Y-138435284D01*
X134545406Y-137855997D01*
X134545953Y-137228755D01*
X134541048Y-137216883D01*
X134757929Y-137216883D01*
X134778072Y-137966384D01*
X135026141Y-138565275D01*
X135318911Y-138694483D01*
X136472395Y-137541000D01*
X136831605Y-137541000D01*
X137985089Y-138694483D01*
X138277859Y-138565275D01*
X138546071Y-137865117D01*
X138545752Y-137853245D01*
X138758047Y-137853245D01*
X138997576Y-138432951D01*
X139440716Y-138876865D01*
X140020003Y-139117406D01*
X140647245Y-139117953D01*
X141225745Y-138878922D01*
X149202173Y-138878922D01*
X149400414Y-139358701D01*
X149767168Y-139726096D01*
X150246601Y-139925173D01*
X150765722Y-139925627D01*
X151173730Y-139757041D01*
X159050365Y-139757041D01*
X159146319Y-140021603D01*
X159748036Y-140244434D01*
X160389224Y-140220035D01*
X160478622Y-140183005D01*
X164695244Y-140183005D01*
X164919630Y-140726060D01*
X165334754Y-141141909D01*
X165877418Y-141367243D01*
X166465005Y-141367756D01*
X166988323Y-141151525D01*
X172591081Y-141151525D01*
X172708101Y-141433946D01*
X173372163Y-141685518D01*
X174081948Y-141663814D01*
X174636899Y-141433946D01*
X174753919Y-141151525D01*
X173672500Y-140070105D01*
X172591081Y-141151525D01*
X166988323Y-141151525D01*
X167008060Y-141143370D01*
X167423909Y-140728246D01*
X167649243Y-140185582D01*
X167649756Y-139597995D01*
X167646520Y-139590163D01*
X171877482Y-139590163D01*
X171899186Y-140299948D01*
X172129054Y-140854899D01*
X172411475Y-140971919D01*
X173492895Y-139890500D01*
X173852105Y-139890500D01*
X174933525Y-140971919D01*
X175215946Y-140854899D01*
X175467518Y-140190837D01*
X175467279Y-140183005D01*
X179695244Y-140183005D01*
X179919630Y-140726060D01*
X180334754Y-141141909D01*
X180877418Y-141367243D01*
X181465005Y-141367756D01*
X182008060Y-141143370D01*
X182423909Y-140728246D01*
X182649243Y-140185582D01*
X182649756Y-139597995D01*
X182425370Y-139054940D01*
X182010246Y-138639091D01*
X181467582Y-138413757D01*
X180879995Y-138413244D01*
X180336940Y-138637630D01*
X179921091Y-139052754D01*
X179695757Y-139595418D01*
X179695244Y-140183005D01*
X175467279Y-140183005D01*
X175445814Y-139481052D01*
X175215946Y-138926101D01*
X174933525Y-138809081D01*
X173852105Y-139890500D01*
X173492895Y-139890500D01*
X172411475Y-138809081D01*
X172129054Y-138926101D01*
X171877482Y-139590163D01*
X167646520Y-139590163D01*
X167425370Y-139054940D01*
X167010246Y-138639091D01*
X166467582Y-138413757D01*
X165879995Y-138413244D01*
X165336940Y-138637630D01*
X164921091Y-139052754D01*
X164695757Y-139595418D01*
X164695244Y-140183005D01*
X160478622Y-140183005D01*
X160868281Y-140021603D01*
X160964235Y-139757041D01*
X160007300Y-138800105D01*
X159050365Y-139757041D01*
X151173730Y-139757041D01*
X151245501Y-139727386D01*
X151612896Y-139360632D01*
X151811973Y-138881199D01*
X151812427Y-138362078D01*
X151812080Y-138361236D01*
X158383366Y-138361236D01*
X158407765Y-139002424D01*
X158606197Y-139481481D01*
X158870759Y-139577435D01*
X159827695Y-138620500D01*
X160186905Y-138620500D01*
X161143841Y-139577435D01*
X161408403Y-139481481D01*
X161631234Y-138879764D01*
X161606835Y-138238576D01*
X161408403Y-137759519D01*
X161197441Y-137683005D01*
X167195244Y-137683005D01*
X167419630Y-138226060D01*
X167834754Y-138641909D01*
X168377418Y-138867243D01*
X168965005Y-138867756D01*
X169508060Y-138643370D01*
X169521979Y-138629475D01*
X172591081Y-138629475D01*
X173672500Y-139710895D01*
X174753919Y-138629475D01*
X174636899Y-138347054D01*
X173972837Y-138095482D01*
X173263052Y-138117186D01*
X172708101Y-138347054D01*
X172591081Y-138629475D01*
X169521979Y-138629475D01*
X169923909Y-138228246D01*
X170149243Y-137685582D01*
X170149245Y-137683005D01*
X177195244Y-137683005D01*
X177419630Y-138226060D01*
X177834754Y-138641909D01*
X178377418Y-138867243D01*
X178965005Y-138867756D01*
X179508060Y-138643370D01*
X179923909Y-138228246D01*
X180149243Y-137685582D01*
X180149756Y-137097995D01*
X179925370Y-136554940D01*
X179510246Y-136139091D01*
X178967582Y-135913757D01*
X178379995Y-135913244D01*
X177836940Y-136137630D01*
X177421091Y-136552754D01*
X177195757Y-137095418D01*
X177195244Y-137683005D01*
X170149245Y-137683005D01*
X170149756Y-137097995D01*
X169925370Y-136554940D01*
X169510246Y-136139091D01*
X168967582Y-135913757D01*
X168379995Y-135913244D01*
X167836940Y-136137630D01*
X167421091Y-136552754D01*
X167195757Y-137095418D01*
X167195244Y-137683005D01*
X161197441Y-137683005D01*
X161143841Y-137663565D01*
X160186905Y-138620500D01*
X159827695Y-138620500D01*
X158870759Y-137663565D01*
X158606197Y-137759519D01*
X158383366Y-138361236D01*
X151812080Y-138361236D01*
X151614186Y-137882299D01*
X151247432Y-137514904D01*
X151172908Y-137483959D01*
X159050365Y-137483959D01*
X160007300Y-138440895D01*
X160964235Y-137483959D01*
X160868281Y-137219397D01*
X160266564Y-136996566D01*
X159625376Y-137020965D01*
X159146319Y-137219397D01*
X159050365Y-137483959D01*
X151172908Y-137483959D01*
X150767999Y-137315827D01*
X150248878Y-137315373D01*
X149769099Y-137513614D01*
X149401704Y-137880368D01*
X149202627Y-138359801D01*
X149202173Y-138878922D01*
X141225745Y-138878922D01*
X141226951Y-138878424D01*
X141670865Y-138435284D01*
X141911406Y-137855997D01*
X141911953Y-137228755D01*
X141672424Y-136649049D01*
X141229284Y-136205135D01*
X140649997Y-135964594D01*
X140022755Y-135964047D01*
X139443049Y-136203576D01*
X138999135Y-136646716D01*
X138758594Y-137226003D01*
X138758047Y-137853245D01*
X138545752Y-137853245D01*
X138525928Y-137115616D01*
X138277859Y-136516725D01*
X137985089Y-136387517D01*
X136831605Y-137541000D01*
X136472395Y-137541000D01*
X135318911Y-136387517D01*
X135026141Y-136516725D01*
X134757929Y-137216883D01*
X134541048Y-137216883D01*
X134306424Y-136649049D01*
X133866056Y-136207911D01*
X135498517Y-136207911D01*
X136652000Y-137361395D01*
X137805483Y-136207911D01*
X137676275Y-135915141D01*
X136976117Y-135646929D01*
X136226616Y-135667072D01*
X135627725Y-135915141D01*
X135498517Y-136207911D01*
X133866056Y-136207911D01*
X133863284Y-136205135D01*
X133283997Y-135964594D01*
X132656755Y-135964047D01*
X132077049Y-136203576D01*
X131633135Y-136646716D01*
X131392594Y-137226003D01*
X131392047Y-137853245D01*
X121948060Y-137853245D01*
X121953518Y-133927192D01*
X153304562Y-133927192D01*
X153601201Y-134645114D01*
X154149997Y-135194869D01*
X154867400Y-135492761D01*
X155644192Y-135493438D01*
X156362114Y-135196799D01*
X156911869Y-134648003D01*
X157209761Y-133930600D01*
X157210438Y-133153808D01*
X156913799Y-132435886D01*
X156365003Y-131886131D01*
X155647600Y-131588239D01*
X154870808Y-131587562D01*
X154152886Y-131884201D01*
X153603131Y-132432997D01*
X153305239Y-133150400D01*
X153304562Y-133927192D01*
X121953518Y-133927192D01*
X121954802Y-133004367D01*
X128172908Y-133004367D01*
X128252970Y-133198132D01*
X128401088Y-133346509D01*
X128594713Y-133426909D01*
X128804367Y-133427092D01*
X128998132Y-133347030D01*
X129146509Y-133198912D01*
X129226909Y-133005287D01*
X129227092Y-132795633D01*
X129147030Y-132601868D01*
X129002000Y-132456584D01*
X129002000Y-131766514D01*
X130466514Y-130302000D01*
X131356657Y-130302000D01*
X131401088Y-130346509D01*
X131594713Y-130426909D01*
X131804367Y-130427092D01*
X131998132Y-130347030D01*
X132146509Y-130198912D01*
X132226909Y-130005287D01*
X132227092Y-129795633D01*
X132147030Y-129601868D01*
X131998912Y-129453491D01*
X131805287Y-129373091D01*
X131595633Y-129372908D01*
X131401868Y-129452970D01*
X131356759Y-129498000D01*
X130300000Y-129498000D01*
X130146161Y-129528600D01*
X130015743Y-129615743D01*
X128315743Y-131315743D01*
X128228600Y-131446161D01*
X128198000Y-131600000D01*
X128198000Y-132734725D01*
X128173091Y-132794713D01*
X128172908Y-133004367D01*
X121954802Y-133004367D01*
X121963953Y-126423245D01*
X127201047Y-126423245D01*
X127440576Y-127002951D01*
X127883716Y-127446865D01*
X128463003Y-127687406D01*
X129090245Y-127687953D01*
X129669951Y-127448424D01*
X130113865Y-127005284D01*
X130354406Y-126425997D01*
X130354413Y-126417245D01*
X131235333Y-126417245D01*
X131474862Y-126996951D01*
X131918002Y-127440865D01*
X132497289Y-127681406D01*
X133124531Y-127681953D01*
X133704237Y-127442424D01*
X134148151Y-126999284D01*
X134387343Y-126423245D01*
X135202047Y-126423245D01*
X135441576Y-127002951D01*
X135884716Y-127446865D01*
X136464003Y-127687406D01*
X137091245Y-127687953D01*
X137670951Y-127448424D01*
X138114865Y-127005284D01*
X138355406Y-126425997D01*
X138355408Y-126423245D01*
X139139047Y-126423245D01*
X139378576Y-127002951D01*
X139821716Y-127446865D01*
X140401003Y-127687406D01*
X141028245Y-127687953D01*
X141607951Y-127448424D01*
X142051865Y-127005284D01*
X142292406Y-126425997D01*
X142292953Y-125798755D01*
X142053424Y-125219049D01*
X141610284Y-124775135D01*
X141030997Y-124534594D01*
X140403755Y-124534047D01*
X139824049Y-124773576D01*
X139380135Y-125216716D01*
X139139594Y-125796003D01*
X139139047Y-126423245D01*
X138355408Y-126423245D01*
X138355953Y-125798755D01*
X138116424Y-125219049D01*
X137673284Y-124775135D01*
X137093997Y-124534594D01*
X136466755Y-124534047D01*
X135887049Y-124773576D01*
X135443135Y-125216716D01*
X135202594Y-125796003D01*
X135202047Y-126423245D01*
X134387343Y-126423245D01*
X134388692Y-126419997D01*
X134389239Y-125792755D01*
X134149710Y-125213049D01*
X133706570Y-124769135D01*
X133127283Y-124528594D01*
X132500041Y-124528047D01*
X131920335Y-124767576D01*
X131476421Y-125210716D01*
X131235880Y-125790003D01*
X131235333Y-126417245D01*
X130354413Y-126417245D01*
X130354953Y-125798755D01*
X130115424Y-125219049D01*
X129672284Y-124775135D01*
X129092997Y-124534594D01*
X128465755Y-124534047D01*
X127886049Y-124773576D01*
X127442135Y-125216716D01*
X127201594Y-125796003D01*
X127201047Y-126423245D01*
X121963953Y-126423245D01*
X121971628Y-120904000D01*
X123005941Y-120904000D01*
X123095535Y-121354418D01*
X123350676Y-121736265D01*
X123732523Y-121991406D01*
X124182941Y-122081000D01*
X124229059Y-122081000D01*
X124679477Y-121991406D01*
X125061324Y-121736265D01*
X125316465Y-121354418D01*
X125406059Y-120904000D01*
X125316465Y-120453582D01*
X125061324Y-120071735D01*
X124679477Y-119816594D01*
X124229059Y-119727000D01*
X124182941Y-119727000D01*
X123732523Y-119816594D01*
X123350676Y-120071735D01*
X123095535Y-120453582D01*
X123005941Y-120904000D01*
X121971628Y-120904000D01*
X121975160Y-118364000D01*
X123005941Y-118364000D01*
X123095535Y-118814418D01*
X123350676Y-119196265D01*
X123732523Y-119451406D01*
X124182941Y-119541000D01*
X124229059Y-119541000D01*
X124679477Y-119451406D01*
X125061324Y-119196265D01*
X125316465Y-118814418D01*
X125406059Y-118364000D01*
X125316465Y-117913582D01*
X125061324Y-117531735D01*
X124679477Y-117276594D01*
X124229059Y-117187000D01*
X124182941Y-117187000D01*
X123732523Y-117276594D01*
X123350676Y-117531735D01*
X123095535Y-117913582D01*
X123005941Y-118364000D01*
X121975160Y-118364000D01*
X121978692Y-115824000D01*
X123005941Y-115824000D01*
X123095535Y-116274418D01*
X123350676Y-116656265D01*
X123732523Y-116911406D01*
X124182941Y-117001000D01*
X124229059Y-117001000D01*
X124679477Y-116911406D01*
X125061324Y-116656265D01*
X125316465Y-116274418D01*
X125406059Y-115824000D01*
X125316465Y-115373582D01*
X125061324Y-114991735D01*
X124679477Y-114736594D01*
X124229059Y-114647000D01*
X124182941Y-114647000D01*
X123732523Y-114736594D01*
X123350676Y-114991735D01*
X123095535Y-115373582D01*
X123005941Y-115824000D01*
X121978692Y-115824000D01*
X121985260Y-111100890D01*
X122764524Y-111100890D01*
X122934355Y-111510924D01*
X123324642Y-111939183D01*
X123831035Y-112176999D01*
X123732523Y-112196594D01*
X123350676Y-112451735D01*
X123095535Y-112833582D01*
X123005941Y-113284000D01*
X123095535Y-113734418D01*
X123350676Y-114116265D01*
X123732523Y-114371406D01*
X124182941Y-114461000D01*
X124229059Y-114461000D01*
X124679477Y-114371406D01*
X125061324Y-114116265D01*
X125316465Y-113734418D01*
X125326096Y-113686000D01*
X126117486Y-113686000D01*
X134072963Y-121641477D01*
X134072908Y-121704367D01*
X134152970Y-121898132D01*
X134301088Y-122046509D01*
X134494713Y-122126909D01*
X134704367Y-122127092D01*
X134898132Y-122047030D01*
X135046509Y-121898912D01*
X135126909Y-121705287D01*
X135127092Y-121495633D01*
X135047030Y-121301868D01*
X134898912Y-121153491D01*
X134705287Y-121073091D01*
X134641549Y-121073035D01*
X127112489Y-113543975D01*
X138672874Y-113543975D01*
X138783320Y-113811275D01*
X138987650Y-114015961D01*
X139254756Y-114126874D01*
X139417080Y-114127015D01*
X141445030Y-116154965D01*
X141445032Y-116154968D01*
X141607893Y-116263788D01*
X141800000Y-116302001D01*
X141800005Y-116302000D01*
X143473887Y-116302000D01*
X143587650Y-116415961D01*
X143854756Y-116526874D01*
X144143975Y-116527126D01*
X144151000Y-116524223D01*
X144151000Y-124612452D01*
X143761049Y-124773576D01*
X143317135Y-125216716D01*
X143076594Y-125796003D01*
X143076047Y-126423245D01*
X143315576Y-127002951D01*
X143758716Y-127446865D01*
X144338003Y-127687406D01*
X144965245Y-127687953D01*
X145544951Y-127448424D01*
X145988865Y-127005284D01*
X146229406Y-126425997D01*
X146229953Y-125798755D01*
X145990424Y-125219049D01*
X145547284Y-124775135D01*
X145155000Y-124612244D01*
X145155000Y-116554936D01*
X152454965Y-109254970D01*
X152454968Y-109254968D01*
X152527670Y-109146161D01*
X152563788Y-109092108D01*
X152602000Y-108900000D01*
X152602000Y-107826113D01*
X152715961Y-107712350D01*
X152826874Y-107445244D01*
X152827126Y-107156025D01*
X152716680Y-106888725D01*
X152512350Y-106684039D01*
X152314780Y-106602000D01*
X159934725Y-106602000D01*
X159994713Y-106626909D01*
X160204367Y-106627092D01*
X160298000Y-106588404D01*
X160298000Y-109900000D01*
X160328600Y-110053839D01*
X160415743Y-110184257D01*
X161898000Y-111666514D01*
X161898000Y-114656657D01*
X161853491Y-114701088D01*
X161773091Y-114894713D01*
X161772908Y-115104367D01*
X161852970Y-115298132D01*
X162001088Y-115446509D01*
X162194713Y-115526909D01*
X162404367Y-115527092D01*
X162598132Y-115447030D01*
X162746509Y-115298912D01*
X162826909Y-115105287D01*
X162827092Y-114895633D01*
X162747030Y-114701868D01*
X162702000Y-114656759D01*
X162702000Y-111500000D01*
X162671400Y-111346161D01*
X162584257Y-111215743D01*
X161102000Y-109733486D01*
X161102000Y-106066514D01*
X161441477Y-105727037D01*
X161504367Y-105727092D01*
X161698132Y-105647030D01*
X161846509Y-105498912D01*
X161926909Y-105305287D01*
X161927092Y-105095633D01*
X161847030Y-104901868D01*
X161698912Y-104753491D01*
X161505287Y-104673091D01*
X161295633Y-104672908D01*
X161101868Y-104752970D01*
X160953491Y-104901088D01*
X160873091Y-105094713D01*
X160873035Y-105158451D01*
X160415743Y-105615743D01*
X160392343Y-105650763D01*
X160205287Y-105573091D01*
X159995633Y-105572908D01*
X159801868Y-105652970D01*
X159656584Y-105798000D01*
X159067292Y-105798000D01*
X159683223Y-105175040D01*
X159743367Y-105175092D01*
X159937132Y-105095030D01*
X160085509Y-104946912D01*
X160165909Y-104753287D01*
X160166092Y-104543633D01*
X160086030Y-104349868D01*
X159937912Y-104201491D01*
X159744287Y-104121091D01*
X159534633Y-104120908D01*
X159340868Y-104200970D01*
X159192491Y-104349088D01*
X159112091Y-104542713D01*
X159112033Y-104609214D01*
X158455777Y-105272960D01*
X158395633Y-105272908D01*
X158201868Y-105352970D01*
X158053491Y-105501088D01*
X157973091Y-105694713D01*
X157973001Y-105798000D01*
X156170514Y-105798000D01*
X156384257Y-105584257D01*
X156471400Y-105453839D01*
X156491243Y-105354082D01*
X156546509Y-105298912D01*
X156626909Y-105105287D01*
X156627092Y-104895633D01*
X156547030Y-104701868D01*
X156398912Y-104553491D01*
X156205287Y-104473091D01*
X155995633Y-104472908D01*
X155801868Y-104552970D01*
X155653491Y-104701088D01*
X155573091Y-104894713D01*
X155572908Y-105104367D01*
X155617996Y-105213490D01*
X155333486Y-105498000D01*
X154804968Y-105498000D01*
X154826874Y-105445244D01*
X154827126Y-105156025D01*
X154716680Y-104888725D01*
X154602000Y-104773845D01*
X154602000Y-104204367D01*
X156872908Y-104204367D01*
X156952970Y-104398132D01*
X157101088Y-104546509D01*
X157294713Y-104626909D01*
X157504367Y-104627092D01*
X157698132Y-104547030D01*
X157846509Y-104398912D01*
X157926909Y-104205287D01*
X157926965Y-104141549D01*
X158684257Y-103384257D01*
X158771400Y-103253839D01*
X158802000Y-103100000D01*
X158802000Y-97565275D01*
X158826909Y-97505287D01*
X158827092Y-97295633D01*
X158747030Y-97101868D01*
X158598912Y-96953491D01*
X158405287Y-96873091D01*
X158195633Y-96872908D01*
X158001868Y-96952970D01*
X157853491Y-97101088D01*
X157773091Y-97294713D01*
X157772908Y-97504367D01*
X157852970Y-97698132D01*
X157998000Y-97843416D01*
X157998000Y-102933486D01*
X157358523Y-103572963D01*
X157295633Y-103572908D01*
X157101868Y-103652970D01*
X156953491Y-103801088D01*
X156873091Y-103994713D01*
X156872908Y-104204367D01*
X154602000Y-104204367D01*
X154602000Y-77828367D01*
X163556908Y-77828367D01*
X163636970Y-78022132D01*
X163785088Y-78170509D01*
X163978713Y-78250909D01*
X164188367Y-78251092D01*
X164382132Y-78171030D01*
X164427241Y-78126000D01*
X165481000Y-78126000D01*
X165499085Y-78122403D01*
X165502713Y-78123909D01*
X165712367Y-78124092D01*
X165906132Y-78044030D01*
X166054509Y-77895912D01*
X166134909Y-77702287D01*
X166135092Y-77492633D01*
X166055030Y-77298868D01*
X165906912Y-77150491D01*
X165713287Y-77070091D01*
X165503633Y-77069908D01*
X165309868Y-77149970D01*
X165161491Y-77298088D01*
X165151562Y-77322000D01*
X164427343Y-77322000D01*
X164382912Y-77277491D01*
X164189287Y-77197091D01*
X163979633Y-77196908D01*
X163785868Y-77276970D01*
X163637491Y-77425088D01*
X163557091Y-77618713D01*
X163556908Y-77828367D01*
X154602000Y-77828367D01*
X154602000Y-69900000D01*
X154563788Y-69707893D01*
X154563788Y-69707892D01*
X154520200Y-69642660D01*
X154454968Y-69545032D01*
X154454965Y-69545030D01*
X154426986Y-69517051D01*
X154427126Y-69356025D01*
X154316680Y-69088725D01*
X154112350Y-68884039D01*
X153845244Y-68773126D01*
X153556025Y-68772874D01*
X153381283Y-68845076D01*
X153316680Y-68688725D01*
X153112350Y-68484039D01*
X152845244Y-68373126D01*
X152556025Y-68372874D01*
X152288725Y-68483320D01*
X152084039Y-68687650D01*
X151973126Y-68954756D01*
X151972874Y-69243975D01*
X152083320Y-69511275D01*
X152198000Y-69626155D01*
X152198000Y-87025225D01*
X152147030Y-86901868D01*
X151998912Y-86753491D01*
X151805287Y-86673091D01*
X151595633Y-86672908D01*
X151401868Y-86752970D01*
X151253491Y-86901088D01*
X151173091Y-87094713D01*
X151172908Y-87304367D01*
X151252970Y-87498132D01*
X151401088Y-87646509D01*
X151594713Y-87726909D01*
X151658451Y-87726965D01*
X151798000Y-87866514D01*
X151798000Y-90356657D01*
X151753491Y-90401088D01*
X151673091Y-90594713D01*
X151672908Y-90804367D01*
X151752970Y-90998132D01*
X151901088Y-91146509D01*
X152094713Y-91226909D01*
X152198000Y-91226999D01*
X152198000Y-104579488D01*
X152188725Y-104583320D01*
X151984039Y-104787650D01*
X151873126Y-105054756D01*
X151872874Y-105343975D01*
X151936516Y-105498000D01*
X150543169Y-105498000D01*
X150398912Y-105353491D01*
X150205287Y-105273091D01*
X149995633Y-105272908D01*
X149801868Y-105352970D01*
X149653491Y-105501088D01*
X149573091Y-105694713D01*
X149573001Y-105798000D01*
X148766514Y-105798000D01*
X148227037Y-105258523D01*
X148227092Y-105195633D01*
X148147030Y-105001868D01*
X147998912Y-104853491D01*
X147805287Y-104773091D01*
X147602000Y-104772914D01*
X147602000Y-104743343D01*
X147646509Y-104698912D01*
X147726909Y-104505287D01*
X147727092Y-104295633D01*
X147647030Y-104101868D01*
X147498912Y-103953491D01*
X147305287Y-103873091D01*
X147095633Y-103872908D01*
X146901868Y-103952970D01*
X146753491Y-104101088D01*
X146673091Y-104294713D01*
X146672908Y-104504367D01*
X146752970Y-104698132D01*
X146798000Y-104743241D01*
X146798000Y-105700000D01*
X146828600Y-105853839D01*
X146915743Y-105984257D01*
X147098000Y-106166514D01*
X147098000Y-110356831D01*
X146953491Y-110501088D01*
X146873091Y-110694713D01*
X146872908Y-110904367D01*
X146952970Y-111098132D01*
X147101088Y-111246509D01*
X147294713Y-111326909D01*
X147504367Y-111327092D01*
X147674826Y-111256660D01*
X147058523Y-111872963D01*
X146995633Y-111872908D01*
X146801868Y-111952970D01*
X146653491Y-112101088D01*
X146573091Y-112294713D01*
X146572908Y-112504367D01*
X146652970Y-112698132D01*
X146801088Y-112846509D01*
X146994713Y-112926909D01*
X147204367Y-112927092D01*
X147398132Y-112847030D01*
X147546509Y-112698912D01*
X147626909Y-112505287D01*
X147626965Y-112441549D01*
X148684257Y-111384257D01*
X148771400Y-111253839D01*
X148802000Y-111100000D01*
X148802000Y-106602000D01*
X151885535Y-106602000D01*
X151688725Y-106683320D01*
X151484039Y-106887650D01*
X151373126Y-107154756D01*
X151372874Y-107443975D01*
X151483320Y-107711275D01*
X151598000Y-107826155D01*
X151598000Y-108692065D01*
X144699909Y-115590155D01*
X144616680Y-115388725D01*
X144412350Y-115184039D01*
X144145244Y-115073126D01*
X143856025Y-115072874D01*
X143588725Y-115183320D01*
X143473845Y-115298000D01*
X142007935Y-115298000D01*
X140126986Y-113417050D01*
X140127126Y-113256025D01*
X140016680Y-112988725D01*
X139812350Y-112784039D01*
X139545244Y-112673126D01*
X139256025Y-112672874D01*
X138988725Y-112783320D01*
X138784039Y-112987650D01*
X138673126Y-113254756D01*
X138672874Y-113543975D01*
X127112489Y-113543975D01*
X126568257Y-112999743D01*
X126437839Y-112912600D01*
X126284000Y-112882000D01*
X125326096Y-112882000D01*
X125316465Y-112833582D01*
X125061324Y-112451735D01*
X124679477Y-112196594D01*
X124580965Y-112176999D01*
X125087358Y-111939183D01*
X125477645Y-111510924D01*
X125647476Y-111100890D01*
X125526155Y-110871000D01*
X124333000Y-110871000D01*
X124333000Y-110891000D01*
X124079000Y-110891000D01*
X124079000Y-110871000D01*
X122885845Y-110871000D01*
X122764524Y-111100890D01*
X121985260Y-111100890D01*
X121986252Y-110387110D01*
X122764524Y-110387110D01*
X122885845Y-110617000D01*
X124079000Y-110617000D01*
X124079000Y-110597000D01*
X124333000Y-110597000D01*
X124333000Y-110617000D01*
X125526155Y-110617000D01*
X125647476Y-110387110D01*
X125477645Y-109977076D01*
X125087358Y-109548817D01*
X124580965Y-109311001D01*
X124679477Y-109291406D01*
X125061324Y-109036265D01*
X125316465Y-108654418D01*
X125406059Y-108204000D01*
X125316465Y-107753582D01*
X125061324Y-107371735D01*
X124679477Y-107116594D01*
X124229059Y-107027000D01*
X124182941Y-107027000D01*
X123732523Y-107116594D01*
X123350676Y-107371735D01*
X123095535Y-107753582D01*
X123005941Y-108204000D01*
X123095535Y-108654418D01*
X123350676Y-109036265D01*
X123732523Y-109291406D01*
X123831035Y-109311001D01*
X123324642Y-109548817D01*
X122934355Y-109977076D01*
X122764524Y-110387110D01*
X121986252Y-110387110D01*
X121992819Y-105664000D01*
X123005941Y-105664000D01*
X123095535Y-106114418D01*
X123350676Y-106496265D01*
X123732523Y-106751406D01*
X124182941Y-106841000D01*
X124229059Y-106841000D01*
X124679477Y-106751406D01*
X125061324Y-106496265D01*
X125316465Y-106114418D01*
X125326096Y-106066000D01*
X125954000Y-106066000D01*
X126107839Y-106035400D01*
X126238257Y-105948257D01*
X131327514Y-100859000D01*
X137729444Y-100859000D01*
X137673091Y-100994713D01*
X137672908Y-101204367D01*
X137752970Y-101398132D01*
X137798000Y-101443241D01*
X137798000Y-106800000D01*
X137828600Y-106953839D01*
X137915743Y-107084257D01*
X137972963Y-107141477D01*
X137972908Y-107204367D01*
X138052970Y-107398132D01*
X138201088Y-107546509D01*
X138394713Y-107626909D01*
X138604367Y-107627092D01*
X138798132Y-107547030D01*
X138946509Y-107398912D01*
X139026909Y-107205287D01*
X139027092Y-106995633D01*
X138947030Y-106801868D01*
X138798912Y-106653491D01*
X138605287Y-106573091D01*
X138602000Y-106573088D01*
X138602000Y-106543975D01*
X141472874Y-106543975D01*
X141583320Y-106811275D01*
X141787650Y-107015961D01*
X142054756Y-107126874D01*
X142343975Y-107127126D01*
X142611275Y-107016680D01*
X142815961Y-106812350D01*
X142926874Y-106545244D01*
X142927015Y-106382921D01*
X145054968Y-104254968D01*
X145163788Y-104092107D01*
X145202001Y-103900000D01*
X145202000Y-103899995D01*
X145202000Y-102626113D01*
X145315961Y-102512350D01*
X145426874Y-102245244D01*
X145427126Y-101956025D01*
X145316680Y-101688725D01*
X145112350Y-101484039D01*
X144845244Y-101373126D01*
X144556025Y-101372874D01*
X144288725Y-101483320D01*
X144084039Y-101687650D01*
X143973126Y-101954756D01*
X143972874Y-102243975D01*
X144083320Y-102511275D01*
X144198000Y-102626155D01*
X144198000Y-103692064D01*
X142217050Y-105673014D01*
X142056025Y-105672874D01*
X141788725Y-105783320D01*
X141584039Y-105987650D01*
X141473126Y-106254756D01*
X141472874Y-106543975D01*
X138602000Y-106543975D01*
X138602000Y-101443343D01*
X138646509Y-101398912D01*
X138726909Y-101205287D01*
X138727092Y-100995633D01*
X138647030Y-100801868D01*
X138498912Y-100653491D01*
X138354138Y-100593376D01*
X139222257Y-99725257D01*
X139309400Y-99594839D01*
X139340000Y-99441000D01*
X139340000Y-99018624D01*
X139411477Y-99004406D01*
X139793324Y-98749265D01*
X140048465Y-98367418D01*
X140138059Y-97917000D01*
X140083034Y-97640367D01*
X142347908Y-97640367D01*
X142427970Y-97834132D01*
X142576088Y-97982509D01*
X142769713Y-98062909D01*
X142773119Y-98062912D01*
X142772874Y-98343975D01*
X142883320Y-98611275D01*
X143029337Y-98757547D01*
X143036212Y-98792107D01*
X143145032Y-98954968D01*
X144173014Y-99982950D01*
X144172874Y-100143975D01*
X144283320Y-100411275D01*
X144487650Y-100615961D01*
X144754756Y-100726874D01*
X145043975Y-100727126D01*
X145311275Y-100616680D01*
X145515961Y-100412350D01*
X145626874Y-100145244D01*
X145627126Y-99856025D01*
X145516680Y-99588725D01*
X145312350Y-99384039D01*
X145045244Y-99273126D01*
X144882921Y-99272985D01*
X144147157Y-98537221D01*
X144226874Y-98345244D01*
X144227126Y-98056025D01*
X144178359Y-97938000D01*
X145883486Y-97938000D01*
X148062963Y-100117477D01*
X148062908Y-100180367D01*
X148142970Y-100374132D01*
X148291088Y-100522509D01*
X148484713Y-100602909D01*
X148694367Y-100603092D01*
X148888132Y-100523030D01*
X149036509Y-100374912D01*
X149116909Y-100181287D01*
X149117092Y-99971633D01*
X149037030Y-99777868D01*
X148888912Y-99629491D01*
X148695287Y-99549091D01*
X148631549Y-99549035D01*
X146334257Y-97251743D01*
X146203839Y-97164600D01*
X146050000Y-97134000D01*
X143218343Y-97134000D01*
X143173912Y-97089491D01*
X142980287Y-97009091D01*
X142770633Y-97008908D01*
X142576868Y-97088970D01*
X142428491Y-97237088D01*
X142348091Y-97430713D01*
X142347908Y-97640367D01*
X140083034Y-97640367D01*
X140048465Y-97466582D01*
X139793324Y-97084735D01*
X139411477Y-96829594D01*
X138961059Y-96740000D01*
X138914941Y-96740000D01*
X138464523Y-96829594D01*
X138082676Y-97084735D01*
X137827535Y-97466582D01*
X137737941Y-97917000D01*
X137827535Y-98367418D01*
X138082676Y-98749265D01*
X138464523Y-99004406D01*
X138536000Y-99018624D01*
X138536000Y-99274486D01*
X137755486Y-100055000D01*
X131161000Y-100055000D01*
X131007161Y-100085600D01*
X130876743Y-100172743D01*
X125787486Y-105262000D01*
X125326096Y-105262000D01*
X125316465Y-105213582D01*
X125061324Y-104831735D01*
X124679477Y-104576594D01*
X124229059Y-104487000D01*
X124182941Y-104487000D01*
X123732523Y-104576594D01*
X123350676Y-104831735D01*
X123095535Y-105213582D01*
X123005941Y-105664000D01*
X121992819Y-105664000D01*
X121996350Y-103124000D01*
X123005941Y-103124000D01*
X123095535Y-103574418D01*
X123350676Y-103956265D01*
X123732523Y-104211406D01*
X124182941Y-104301000D01*
X124229059Y-104301000D01*
X124679477Y-104211406D01*
X125061324Y-103956265D01*
X125316465Y-103574418D01*
X125406059Y-103124000D01*
X125316465Y-102673582D01*
X125061324Y-102291735D01*
X124679477Y-102036594D01*
X124229059Y-101947000D01*
X124182941Y-101947000D01*
X123732523Y-102036594D01*
X123350676Y-102291735D01*
X123095535Y-102673582D01*
X123005941Y-103124000D01*
X121996350Y-103124000D01*
X121999881Y-100584000D01*
X123005941Y-100584000D01*
X123095535Y-101034418D01*
X123350676Y-101416265D01*
X123732523Y-101671406D01*
X124182941Y-101761000D01*
X124229059Y-101761000D01*
X124679477Y-101671406D01*
X125061324Y-101416265D01*
X125316465Y-101034418D01*
X125406059Y-100584000D01*
X125316465Y-100133582D01*
X125061324Y-99751735D01*
X124679477Y-99496594D01*
X124229059Y-99407000D01*
X124182941Y-99407000D01*
X123732523Y-99496594D01*
X123350676Y-99751735D01*
X123095535Y-100133582D01*
X123005941Y-100584000D01*
X121999881Y-100584000D01*
X122004595Y-97194000D01*
X123022594Y-97194000D01*
X123022594Y-98894000D01*
X123045395Y-99015179D01*
X123117012Y-99126474D01*
X123226286Y-99201138D01*
X123356000Y-99227406D01*
X125056000Y-99227406D01*
X125177179Y-99204605D01*
X125288474Y-99132988D01*
X125363138Y-99023714D01*
X125389406Y-98894000D01*
X125389406Y-97194000D01*
X125366605Y-97072821D01*
X125294988Y-96961526D01*
X125185714Y-96886862D01*
X125056000Y-96860594D01*
X123356000Y-96860594D01*
X123234821Y-96883395D01*
X123123526Y-96955012D01*
X123048862Y-97064286D01*
X123022594Y-97194000D01*
X122004595Y-97194000D01*
X122022167Y-84557890D01*
X122764524Y-84557890D01*
X122934355Y-84967924D01*
X123324642Y-85396183D01*
X123831035Y-85633999D01*
X123732523Y-85653594D01*
X123350676Y-85908735D01*
X123095535Y-86290582D01*
X123005941Y-86741000D01*
X123095535Y-87191418D01*
X123350676Y-87573265D01*
X123732523Y-87828406D01*
X124182941Y-87918000D01*
X124229059Y-87918000D01*
X124679477Y-87828406D01*
X125061324Y-87573265D01*
X125316465Y-87191418D01*
X125326096Y-87143000D01*
X125775486Y-87143000D01*
X124706701Y-88211785D01*
X124679477Y-88193594D01*
X124229059Y-88104000D01*
X124182941Y-88104000D01*
X123732523Y-88193594D01*
X123350676Y-88448735D01*
X123095535Y-88830582D01*
X123005941Y-89281000D01*
X123095535Y-89731418D01*
X123350676Y-90113265D01*
X123732523Y-90368406D01*
X124182941Y-90458000D01*
X124229059Y-90458000D01*
X124679477Y-90368406D01*
X125061324Y-90113265D01*
X125316465Y-89731418D01*
X125406059Y-89281000D01*
X125316465Y-88830582D01*
X125279802Y-88775712D01*
X126531514Y-87524000D01*
X127934486Y-87524000D01*
X124706701Y-90751785D01*
X124679477Y-90733594D01*
X124229059Y-90644000D01*
X124182941Y-90644000D01*
X123732523Y-90733594D01*
X123350676Y-90988735D01*
X123095535Y-91370582D01*
X123005941Y-91821000D01*
X123095535Y-92271418D01*
X123350676Y-92653265D01*
X123732523Y-92908406D01*
X124182941Y-92998000D01*
X124229059Y-92998000D01*
X124679477Y-92908406D01*
X125061324Y-92653265D01*
X125316465Y-92271418D01*
X125406059Y-91821000D01*
X125316465Y-91370582D01*
X125279802Y-91315712D01*
X128690514Y-87905000D01*
X130093486Y-87905000D01*
X124706701Y-93291785D01*
X124679477Y-93273594D01*
X124229059Y-93184000D01*
X124182941Y-93184000D01*
X123732523Y-93273594D01*
X123350676Y-93528735D01*
X123095535Y-93910582D01*
X123005941Y-94361000D01*
X123095535Y-94811418D01*
X123350676Y-95193265D01*
X123732523Y-95448406D01*
X124182941Y-95538000D01*
X124229059Y-95538000D01*
X124679477Y-95448406D01*
X125061324Y-95193265D01*
X125316465Y-94811418D01*
X125373039Y-94527000D01*
X137754594Y-94527000D01*
X137754594Y-96227000D01*
X137777395Y-96348179D01*
X137849012Y-96459474D01*
X137958286Y-96534138D01*
X138088000Y-96560406D01*
X139788000Y-96560406D01*
X139909179Y-96537605D01*
X140020474Y-96465988D01*
X140095138Y-96356714D01*
X140121406Y-96227000D01*
X140121406Y-94527000D01*
X140098605Y-94405821D01*
X140026988Y-94294526D01*
X139917714Y-94219862D01*
X139788000Y-94193594D01*
X138088000Y-94193594D01*
X137966821Y-94216395D01*
X137855526Y-94288012D01*
X137780862Y-94397286D01*
X137754594Y-94527000D01*
X125373039Y-94527000D01*
X125406059Y-94361000D01*
X125316465Y-93910582D01*
X125279802Y-93855712D01*
X130849514Y-88286000D01*
X148717000Y-88286000D01*
X148735085Y-88282403D01*
X148738713Y-88283909D01*
X148948367Y-88284092D01*
X149142132Y-88204030D01*
X149290509Y-88055912D01*
X149370909Y-87862287D01*
X149371092Y-87652633D01*
X149291030Y-87458868D01*
X149271792Y-87439596D01*
X149290509Y-87420912D01*
X149370909Y-87227287D01*
X149371092Y-87017633D01*
X149291030Y-86823868D01*
X149142912Y-86675491D01*
X148982942Y-86609066D01*
X148989909Y-86592287D01*
X148990092Y-86382633D01*
X148910030Y-86188868D01*
X148761912Y-86040491D01*
X148710265Y-86019045D01*
X148735909Y-85957287D01*
X148736092Y-85747633D01*
X148656030Y-85553868D01*
X148507912Y-85405491D01*
X148314287Y-85325091D01*
X148104633Y-85324908D01*
X147910868Y-85404970D01*
X147762491Y-85553088D01*
X147682091Y-85746713D01*
X147682035Y-85810451D01*
X147153486Y-86339000D01*
X125326096Y-86339000D01*
X125316465Y-86290582D01*
X125061324Y-85908735D01*
X124679477Y-85653594D01*
X124580965Y-85633999D01*
X125087358Y-85396183D01*
X125477645Y-84967924D01*
X125647476Y-84557890D01*
X125526155Y-84328000D01*
X124333000Y-84328000D01*
X124333000Y-84348000D01*
X124079000Y-84348000D01*
X124079000Y-84328000D01*
X122885845Y-84328000D01*
X122764524Y-84557890D01*
X122022167Y-84557890D01*
X122023159Y-83844110D01*
X122764524Y-83844110D01*
X122885845Y-84074000D01*
X124079000Y-84074000D01*
X124079000Y-84054000D01*
X124333000Y-84054000D01*
X124333000Y-84074000D01*
X125526155Y-84074000D01*
X125647476Y-83844110D01*
X125477645Y-83434076D01*
X125087358Y-83005817D01*
X124580965Y-82768001D01*
X124679477Y-82748406D01*
X125061324Y-82493265D01*
X125316465Y-82111418D01*
X125406059Y-81661000D01*
X125316465Y-81210582D01*
X125061324Y-80828735D01*
X124679477Y-80573594D01*
X124229059Y-80484000D01*
X124182941Y-80484000D01*
X123732523Y-80573594D01*
X123350676Y-80828735D01*
X123095535Y-81210582D01*
X123005941Y-81661000D01*
X123095535Y-82111418D01*
X123350676Y-82493265D01*
X123732523Y-82748406D01*
X123831035Y-82768001D01*
X123324642Y-83005817D01*
X122934355Y-83434076D01*
X122764524Y-83844110D01*
X122023159Y-83844110D01*
X122029726Y-79121000D01*
X123005941Y-79121000D01*
X123095535Y-79571418D01*
X123350676Y-79953265D01*
X123732523Y-80208406D01*
X124182941Y-80298000D01*
X124229059Y-80298000D01*
X124679477Y-80208406D01*
X124706701Y-80190215D01*
X125699743Y-81183257D01*
X125830161Y-81270400D01*
X125984000Y-81301000D01*
X140484904Y-81301000D01*
X140494535Y-81349418D01*
X140749676Y-81731265D01*
X141131523Y-81986406D01*
X141581941Y-82076000D01*
X141628059Y-82076000D01*
X142078477Y-81986406D01*
X142460324Y-81731265D01*
X142715465Y-81349418D01*
X142805059Y-80899000D01*
X142715465Y-80448582D01*
X142460324Y-80066735D01*
X142210750Y-79899975D01*
X144814874Y-79899975D01*
X144925320Y-80167275D01*
X145040000Y-80282155D01*
X145040000Y-80753887D01*
X144926039Y-80867650D01*
X144815126Y-81134756D01*
X144814874Y-81423975D01*
X144925320Y-81691275D01*
X145129650Y-81895961D01*
X145396756Y-82006874D01*
X145685975Y-82007126D01*
X145953275Y-81896680D01*
X146157961Y-81692350D01*
X146268874Y-81425244D01*
X146269126Y-81136025D01*
X146158680Y-80868725D01*
X146044000Y-80753845D01*
X146044000Y-80282113D01*
X146157961Y-80168350D01*
X146268874Y-79901244D01*
X146269126Y-79612025D01*
X146158680Y-79344725D01*
X145954350Y-79140039D01*
X145687244Y-79029126D01*
X145398025Y-79028874D01*
X145130725Y-79139320D01*
X144926039Y-79343650D01*
X144815126Y-79610756D01*
X144814874Y-79899975D01*
X142210750Y-79899975D01*
X142078477Y-79811594D01*
X141628059Y-79722000D01*
X141581941Y-79722000D01*
X141131523Y-79811594D01*
X140749676Y-80066735D01*
X140494535Y-80448582D01*
X140484904Y-80497000D01*
X126150514Y-80497000D01*
X125640881Y-79987367D01*
X130663908Y-79987367D01*
X130743970Y-80181132D01*
X130892088Y-80329509D01*
X131085713Y-80409909D01*
X131295367Y-80410092D01*
X131489132Y-80330030D01*
X131534241Y-80285000D01*
X134784657Y-80285000D01*
X134829088Y-80329509D01*
X135022713Y-80409909D01*
X135232367Y-80410092D01*
X135426132Y-80330030D01*
X135574509Y-80181912D01*
X135654909Y-79988287D01*
X135655092Y-79778633D01*
X135575030Y-79584868D01*
X135426912Y-79436491D01*
X135233287Y-79356091D01*
X135023633Y-79355908D01*
X134829868Y-79435970D01*
X134784759Y-79481000D01*
X131534343Y-79481000D01*
X131489912Y-79436491D01*
X131296287Y-79356091D01*
X131086633Y-79355908D01*
X130892868Y-79435970D01*
X130744491Y-79584088D01*
X130664091Y-79777713D01*
X130663908Y-79987367D01*
X125640881Y-79987367D01*
X125279802Y-79626288D01*
X125316465Y-79571418D01*
X125406059Y-79121000D01*
X125316465Y-78670582D01*
X125061324Y-78288735D01*
X124679477Y-78033594D01*
X124229059Y-77944000D01*
X124182941Y-77944000D01*
X123732523Y-78033594D01*
X123350676Y-78288735D01*
X123095535Y-78670582D01*
X123005941Y-79121000D01*
X122029726Y-79121000D01*
X122036790Y-74041000D01*
X123005941Y-74041000D01*
X123095535Y-74491418D01*
X123350676Y-74873265D01*
X123732523Y-75128406D01*
X124182941Y-75218000D01*
X124229059Y-75218000D01*
X124679477Y-75128406D01*
X125061324Y-74873265D01*
X125316465Y-74491418D01*
X125326096Y-74443000D01*
X135596486Y-74443000D01*
X135616963Y-74463477D01*
X135616908Y-74526367D01*
X135696970Y-74720132D01*
X135779708Y-74803015D01*
X135697491Y-74885088D01*
X135617091Y-75078713D01*
X135617035Y-75142451D01*
X134580486Y-76179000D01*
X125326096Y-76179000D01*
X125316465Y-76130582D01*
X125061324Y-75748735D01*
X124679477Y-75493594D01*
X124229059Y-75404000D01*
X124182941Y-75404000D01*
X123732523Y-75493594D01*
X123350676Y-75748735D01*
X123095535Y-76130582D01*
X123005941Y-76581000D01*
X123095535Y-77031418D01*
X123350676Y-77413265D01*
X123732523Y-77668406D01*
X124182941Y-77758000D01*
X124229059Y-77758000D01*
X124679477Y-77668406D01*
X125061324Y-77413265D01*
X125316465Y-77031418D01*
X125326096Y-76983000D01*
X129718589Y-76983000D01*
X129601892Y-77006212D01*
X129564169Y-77031418D01*
X129439032Y-77115032D01*
X129439030Y-77115035D01*
X128541050Y-78013014D01*
X128380025Y-78012874D01*
X128112725Y-78123320D01*
X127908039Y-78327650D01*
X127797126Y-78594756D01*
X127796874Y-78883975D01*
X127907320Y-79151275D01*
X128111650Y-79355961D01*
X128378756Y-79466874D01*
X128667975Y-79467126D01*
X128935275Y-79356680D01*
X129139961Y-79152350D01*
X129250874Y-78885244D01*
X129251015Y-78722920D01*
X130001935Y-77972000D01*
X135490887Y-77972000D01*
X135604650Y-78085961D01*
X135871756Y-78196874D01*
X136160975Y-78197126D01*
X136428275Y-78086680D01*
X136632961Y-77882350D01*
X136743874Y-77615244D01*
X136743966Y-77509000D01*
X140421594Y-77509000D01*
X140421594Y-79209000D01*
X140444395Y-79330179D01*
X140516012Y-79441474D01*
X140625286Y-79516138D01*
X140755000Y-79542406D01*
X142455000Y-79542406D01*
X142576179Y-79519605D01*
X142687474Y-79447988D01*
X142762138Y-79338714D01*
X142788406Y-79209000D01*
X142788406Y-77509000D01*
X142765605Y-77387821D01*
X142693988Y-77276526D01*
X142584714Y-77201862D01*
X142455000Y-77175594D01*
X140755000Y-77175594D01*
X140633821Y-77198395D01*
X140522526Y-77270012D01*
X140447862Y-77379286D01*
X140421594Y-77509000D01*
X136743966Y-77509000D01*
X136744126Y-77326025D01*
X136633680Y-77058725D01*
X136429350Y-76854039D01*
X136162244Y-76743126D01*
X135873025Y-76742874D01*
X135605725Y-76853320D01*
X135490845Y-76968000D01*
X134822411Y-76968000D01*
X134900839Y-76952400D01*
X135031257Y-76865257D01*
X136185477Y-75711037D01*
X136248367Y-75711092D01*
X136442132Y-75631030D01*
X136590509Y-75482912D01*
X136670909Y-75289287D01*
X136671092Y-75079633D01*
X136591030Y-74885868D01*
X136508292Y-74802985D01*
X136590509Y-74720912D01*
X136670909Y-74527287D01*
X136671092Y-74317633D01*
X136591030Y-74123868D01*
X136508292Y-74040985D01*
X136590509Y-73958912D01*
X136670909Y-73765287D01*
X136671092Y-73555633D01*
X136591030Y-73361868D01*
X136442912Y-73213491D01*
X136249287Y-73133091D01*
X136185549Y-73133035D01*
X134269257Y-71216743D01*
X134138839Y-71129600D01*
X133985000Y-71099000D01*
X125389406Y-71099000D01*
X125389406Y-70651000D01*
X125366605Y-70529821D01*
X125294988Y-70418526D01*
X125185714Y-70343862D01*
X125056000Y-70317594D01*
X123356000Y-70317594D01*
X123234821Y-70340395D01*
X123123526Y-70412012D01*
X123048862Y-70521286D01*
X123022594Y-70651000D01*
X123022594Y-72351000D01*
X123045395Y-72472179D01*
X123117012Y-72583474D01*
X123226286Y-72658138D01*
X123356000Y-72684406D01*
X125056000Y-72684406D01*
X125177179Y-72661605D01*
X125288474Y-72589988D01*
X125363138Y-72480714D01*
X125389406Y-72351000D01*
X125389406Y-71903000D01*
X133818486Y-71903000D01*
X135554486Y-73639000D01*
X125326096Y-73639000D01*
X125316465Y-73590582D01*
X125061324Y-73208735D01*
X124679477Y-72953594D01*
X124229059Y-72864000D01*
X124182941Y-72864000D01*
X123732523Y-72953594D01*
X123350676Y-73208735D01*
X123095535Y-73590582D01*
X123005941Y-74041000D01*
X122036790Y-74041000D01*
X122044947Y-68174890D01*
X138004524Y-68174890D01*
X138174355Y-68584924D01*
X138564642Y-69013183D01*
X139071035Y-69250999D01*
X138972523Y-69270594D01*
X138590676Y-69525735D01*
X138335535Y-69907582D01*
X138245941Y-70358000D01*
X138335535Y-70808418D01*
X138590676Y-71190265D01*
X138972523Y-71445406D01*
X139422941Y-71535000D01*
X139469059Y-71535000D01*
X139919477Y-71445406D01*
X140301324Y-71190265D01*
X140556465Y-70808418D01*
X140646059Y-70358000D01*
X140556465Y-69907582D01*
X140301324Y-69525735D01*
X139919477Y-69270594D01*
X139820965Y-69250999D01*
X140327358Y-69013183D01*
X140717645Y-68584924D01*
X140887476Y-68174890D01*
X140766155Y-67945000D01*
X139573000Y-67945000D01*
X139573000Y-67965000D01*
X139319000Y-67965000D01*
X139319000Y-67945000D01*
X138125845Y-67945000D01*
X138004524Y-68174890D01*
X122044947Y-68174890D01*
X122045939Y-67461110D01*
X138004524Y-67461110D01*
X138125845Y-67691000D01*
X139319000Y-67691000D01*
X139319000Y-67671000D01*
X139573000Y-67671000D01*
X139573000Y-67691000D01*
X140766155Y-67691000D01*
X140887476Y-67461110D01*
X140717645Y-67051076D01*
X140327358Y-66622817D01*
X139983657Y-66461406D01*
X140296000Y-66461406D01*
X140417179Y-66438605D01*
X140528474Y-66366988D01*
X140603138Y-66257714D01*
X140623735Y-66156000D01*
X142784594Y-66156000D01*
X142784594Y-67956000D01*
X142807395Y-68077179D01*
X142879012Y-68188474D01*
X142988286Y-68263138D01*
X143118000Y-68289406D01*
X144918000Y-68289406D01*
X145039179Y-68266605D01*
X145150474Y-68194988D01*
X145225138Y-68085714D01*
X145251406Y-67956000D01*
X145251406Y-67858578D01*
X145650424Y-68293966D01*
X146193258Y-68547046D01*
X146431000Y-68426997D01*
X146431000Y-67183000D01*
X146411000Y-67183000D01*
X146411000Y-66929000D01*
X146431000Y-66929000D01*
X146431000Y-65685003D01*
X146685000Y-65685003D01*
X146685000Y-66929000D01*
X146705000Y-66929000D01*
X146705000Y-67183000D01*
X146685000Y-67183000D01*
X146685000Y-68426997D01*
X146922742Y-68547046D01*
X147465576Y-68293966D01*
X147870240Y-67852417D01*
X147980650Y-67585848D01*
X148206342Y-67923620D01*
X148604409Y-68189600D01*
X149073962Y-68283000D01*
X149122038Y-68283000D01*
X149591591Y-68189600D01*
X149989658Y-67923620D01*
X150255638Y-67525553D01*
X150292198Y-67341750D01*
X155183000Y-67341750D01*
X155183000Y-68082310D01*
X155279673Y-68315699D01*
X155458302Y-68494327D01*
X155691691Y-68591000D01*
X156432250Y-68591000D01*
X156591000Y-68432250D01*
X156591000Y-67183000D01*
X155341750Y-67183000D01*
X155183000Y-67341750D01*
X150292198Y-67341750D01*
X150349038Y-67056000D01*
X150255638Y-66586447D01*
X149989658Y-66188380D01*
X149752162Y-66029690D01*
X155183000Y-66029690D01*
X155183000Y-66770250D01*
X155341750Y-66929000D01*
X156591000Y-66929000D01*
X156591000Y-65679750D01*
X156845000Y-65679750D01*
X156845000Y-66929000D01*
X156865000Y-66929000D01*
X156865000Y-67183000D01*
X156845000Y-67183000D01*
X156845000Y-68432250D01*
X157003750Y-68591000D01*
X157744309Y-68591000D01*
X157977698Y-68494327D01*
X158156327Y-68315699D01*
X158253000Y-68082310D01*
X158253000Y-67753992D01*
X158366342Y-67923620D01*
X158756000Y-68183981D01*
X158756000Y-69769064D01*
X158386050Y-70139014D01*
X158225025Y-70138874D01*
X157957725Y-70249320D01*
X157753039Y-70453650D01*
X157642126Y-70720756D01*
X157641874Y-71009975D01*
X157752320Y-71277275D01*
X157956650Y-71481961D01*
X158223756Y-71592874D01*
X158512975Y-71593126D01*
X158780275Y-71482680D01*
X158984961Y-71278350D01*
X159095874Y-71011244D01*
X159096015Y-70848921D01*
X159612968Y-70331968D01*
X159721788Y-70169107D01*
X159760001Y-69977000D01*
X159760000Y-69976995D01*
X159760000Y-69508000D01*
X165186594Y-69508000D01*
X165186594Y-71208000D01*
X165209395Y-71329179D01*
X165281012Y-71440474D01*
X165390286Y-71515138D01*
X165520000Y-71541406D01*
X167220000Y-71541406D01*
X167341179Y-71518605D01*
X167452474Y-71446988D01*
X167527138Y-71337714D01*
X167553406Y-71208000D01*
X167553406Y-69508000D01*
X167530605Y-69386821D01*
X167458988Y-69275526D01*
X167349714Y-69200862D01*
X167220000Y-69174594D01*
X165520000Y-69174594D01*
X165398821Y-69197395D01*
X165287526Y-69269012D01*
X165212862Y-69378286D01*
X165186594Y-69508000D01*
X159760000Y-69508000D01*
X159760000Y-68183981D01*
X160149658Y-67923620D01*
X160415638Y-67525553D01*
X160509038Y-67056000D01*
X160546962Y-67056000D01*
X160640362Y-67525553D01*
X160906342Y-67923620D01*
X161304409Y-68189600D01*
X161773962Y-68283000D01*
X161822038Y-68283000D01*
X162291591Y-68189600D01*
X162689658Y-67923620D01*
X162955638Y-67525553D01*
X163049038Y-67056000D01*
X162955638Y-66586447D01*
X162689658Y-66188380D01*
X162291591Y-65922400D01*
X161822038Y-65829000D01*
X161773962Y-65829000D01*
X161304409Y-65922400D01*
X160906342Y-66188380D01*
X160640362Y-66586447D01*
X160546962Y-67056000D01*
X160509038Y-67056000D01*
X160415638Y-66586447D01*
X160149658Y-66188380D01*
X159751591Y-65922400D01*
X159282038Y-65829000D01*
X159233962Y-65829000D01*
X158764409Y-65922400D01*
X158366342Y-66188380D01*
X158253000Y-66358008D01*
X158253000Y-66029690D01*
X158156327Y-65796301D01*
X157977698Y-65617673D01*
X157744309Y-65521000D01*
X157003750Y-65521000D01*
X156845000Y-65679750D01*
X156591000Y-65679750D01*
X156432250Y-65521000D01*
X155691691Y-65521000D01*
X155458302Y-65617673D01*
X155279673Y-65796301D01*
X155183000Y-66029690D01*
X149752162Y-66029690D01*
X149591591Y-65922400D01*
X149122038Y-65829000D01*
X149073962Y-65829000D01*
X148604409Y-65922400D01*
X148206342Y-66188380D01*
X147980650Y-66526152D01*
X147870240Y-66259583D01*
X147465576Y-65818034D01*
X146922742Y-65564954D01*
X146685000Y-65685003D01*
X146431000Y-65685003D01*
X146193258Y-65564954D01*
X145650424Y-65818034D01*
X145251406Y-66253422D01*
X145251406Y-66156000D01*
X145228605Y-66034821D01*
X145156988Y-65923526D01*
X145047714Y-65848862D01*
X144918000Y-65822594D01*
X143118000Y-65822594D01*
X142996821Y-65845395D01*
X142885526Y-65917012D01*
X142810862Y-66026286D01*
X142784594Y-66156000D01*
X140623735Y-66156000D01*
X140629406Y-66128000D01*
X140629406Y-65278000D01*
X165169941Y-65278000D01*
X165259535Y-65728418D01*
X165514676Y-66110265D01*
X165896523Y-66365406D01*
X166346941Y-66455000D01*
X166393059Y-66455000D01*
X166843477Y-66365406D01*
X167225324Y-66110265D01*
X167480465Y-65728418D01*
X167570059Y-65278000D01*
X167480465Y-64827582D01*
X167225324Y-64445735D01*
X166843477Y-64190594D01*
X166393059Y-64101000D01*
X166346941Y-64101000D01*
X165896523Y-64190594D01*
X165514676Y-64445735D01*
X165259535Y-64827582D01*
X165169941Y-65278000D01*
X140629406Y-65278000D01*
X140629406Y-64428000D01*
X140606605Y-64306821D01*
X140534988Y-64195526D01*
X140425714Y-64120862D01*
X140296000Y-64094594D01*
X138596000Y-64094594D01*
X138474821Y-64117395D01*
X138363526Y-64189012D01*
X138288862Y-64298286D01*
X138262594Y-64428000D01*
X138262594Y-66128000D01*
X138285395Y-66249179D01*
X138357012Y-66360474D01*
X138466286Y-66435138D01*
X138596000Y-66461406D01*
X138908343Y-66461406D01*
X138564642Y-66622817D01*
X138174355Y-67051076D01*
X138004524Y-67461110D01*
X122045939Y-67461110D01*
X122052594Y-62676781D01*
X122121706Y-62331529D01*
X122310490Y-62049524D01*
X122592756Y-61861132D01*
X122938107Y-61792500D01*
X183215604Y-61792500D01*
X183495121Y-61836811D01*
X183495121Y-61836811D01*
G37*
X183495121Y-61836811D02*
X183738206Y-61960797D01*
X183931025Y-62153884D01*
X184054672Y-62397140D01*
X184098594Y-62676715D01*
X184052814Y-95600300D01*
X183318802Y-94866288D01*
X183355465Y-94811418D01*
X183445059Y-94361000D01*
X183355465Y-93910582D01*
X183100324Y-93528735D01*
X182718477Y-93273594D01*
X182268059Y-93184000D01*
X182221941Y-93184000D01*
X181771523Y-93273594D01*
X181389676Y-93528735D01*
X181134535Y-93910582D01*
X181044941Y-94361000D01*
X181134535Y-94811418D01*
X181389676Y-95193265D01*
X181771523Y-95448406D01*
X182221941Y-95538000D01*
X182268059Y-95538000D01*
X182718477Y-95448406D01*
X182745701Y-95430215D01*
X183398000Y-96082514D01*
X183398000Y-97061003D01*
X183333988Y-96961526D01*
X183224714Y-96886862D01*
X183095000Y-96860594D01*
X181630108Y-96860594D01*
X180116257Y-95346743D01*
X179985839Y-95259600D01*
X179832000Y-95229000D01*
X173648843Y-95229000D01*
X173702324Y-95193265D01*
X173957465Y-94811418D01*
X174047059Y-94361000D01*
X173957465Y-93910582D01*
X173702324Y-93528735D01*
X173320477Y-93273594D01*
X172870059Y-93184000D01*
X172823941Y-93184000D01*
X172373523Y-93273594D01*
X171991676Y-93528735D01*
X171736535Y-93910582D01*
X171646941Y-94361000D01*
X171736535Y-94811418D01*
X171991676Y-95193265D01*
X172045157Y-95229000D01*
X169076514Y-95229000D01*
X168713802Y-94866288D01*
X168750465Y-94811418D01*
X168840059Y-94361000D01*
X168750465Y-93910582D01*
X168495324Y-93528735D01*
X168113477Y-93273594D01*
X167663059Y-93184000D01*
X167616941Y-93184000D01*
X167166523Y-93273594D01*
X166784676Y-93528735D01*
X166529535Y-93910582D01*
X166439941Y-94361000D01*
X166529535Y-94811418D01*
X166784676Y-95193265D01*
X167166523Y-95448406D01*
X167265035Y-95468001D01*
X166758642Y-95705817D01*
X166368355Y-96134076D01*
X166202000Y-96535718D01*
X166202000Y-90971000D01*
X166456594Y-90971000D01*
X166456594Y-92671000D01*
X166479395Y-92792179D01*
X166551012Y-92903474D01*
X166660286Y-92978138D01*
X166790000Y-93004406D01*
X168490000Y-93004406D01*
X168611179Y-92981605D01*
X168722474Y-92909988D01*
X168797138Y-92800714D01*
X168823406Y-92671000D01*
X168823406Y-90971000D01*
X168800605Y-90849821D01*
X168728988Y-90738526D01*
X168619714Y-90663862D01*
X168490000Y-90637594D01*
X166790000Y-90637594D01*
X166668821Y-90660395D01*
X166557526Y-90732012D01*
X166482862Y-90841286D01*
X166456594Y-90971000D01*
X166202000Y-90971000D01*
X166202000Y-89766514D01*
X170184257Y-85784257D01*
X170271400Y-85653839D01*
X170302000Y-85500000D01*
X170302000Y-80529806D01*
X170478132Y-80457030D01*
X170523241Y-80412000D01*
X173573928Y-80412000D01*
X173473126Y-80654756D01*
X173472985Y-80817079D01*
X172492032Y-81798032D01*
X172383212Y-81960893D01*
X172344999Y-82153000D01*
X172345000Y-82153005D01*
X172345000Y-90637594D01*
X171997000Y-90637594D01*
X171875821Y-90660395D01*
X171764526Y-90732012D01*
X171689862Y-90841286D01*
X171663594Y-90971000D01*
X171663594Y-92671000D01*
X171686395Y-92792179D01*
X171758012Y-92903474D01*
X171867286Y-92978138D01*
X171997000Y-93004406D01*
X173697000Y-93004406D01*
X173818179Y-92981605D01*
X173929474Y-92909988D01*
X174004138Y-92800714D01*
X174030406Y-92671000D01*
X174030406Y-91821000D01*
X181044941Y-91821000D01*
X181134535Y-92271418D01*
X181389676Y-92653265D01*
X181771523Y-92908406D01*
X182221941Y-92998000D01*
X182268059Y-92998000D01*
X182718477Y-92908406D01*
X183100324Y-92653265D01*
X183355465Y-92271418D01*
X183445059Y-91821000D01*
X183355465Y-91370582D01*
X183100324Y-90988735D01*
X182718477Y-90733594D01*
X182268059Y-90644000D01*
X182221941Y-90644000D01*
X181771523Y-90733594D01*
X181389676Y-90988735D01*
X181134535Y-91370582D01*
X181044941Y-91821000D01*
X174030406Y-91821000D01*
X174030406Y-90971000D01*
X174007605Y-90849821D01*
X173935988Y-90738526D01*
X173826714Y-90663862D01*
X173697000Y-90637594D01*
X173349000Y-90637594D01*
X173349000Y-89281000D01*
X181044941Y-89281000D01*
X181134535Y-89731418D01*
X181389676Y-90113265D01*
X181771523Y-90368406D01*
X182221941Y-90458000D01*
X182268059Y-90458000D01*
X182718477Y-90368406D01*
X183100324Y-90113265D01*
X183355465Y-89731418D01*
X183445059Y-89281000D01*
X183355465Y-88830582D01*
X183100324Y-88448735D01*
X182718477Y-88193594D01*
X182268059Y-88104000D01*
X182221941Y-88104000D01*
X181771523Y-88193594D01*
X181389676Y-88448735D01*
X181134535Y-88830582D01*
X181044941Y-89281000D01*
X173349000Y-89281000D01*
X173349000Y-86741000D01*
X181044941Y-86741000D01*
X181134535Y-87191418D01*
X181389676Y-87573265D01*
X181771523Y-87828406D01*
X182221941Y-87918000D01*
X182268059Y-87918000D01*
X182718477Y-87828406D01*
X183100324Y-87573265D01*
X183355465Y-87191418D01*
X183445059Y-86741000D01*
X183355465Y-86290582D01*
X183100324Y-85908735D01*
X182718477Y-85653594D01*
X182268059Y-85564000D01*
X182221941Y-85564000D01*
X181771523Y-85653594D01*
X181389676Y-85908735D01*
X181134535Y-86290582D01*
X181044941Y-86741000D01*
X173349000Y-86741000D01*
X173349000Y-84201000D01*
X181044941Y-84201000D01*
X181134535Y-84651418D01*
X181389676Y-85033265D01*
X181771523Y-85288406D01*
X182221941Y-85378000D01*
X182268059Y-85378000D01*
X182718477Y-85288406D01*
X183100324Y-85033265D01*
X183355465Y-84651418D01*
X183445059Y-84201000D01*
X183355465Y-83750582D01*
X183100324Y-83368735D01*
X182718477Y-83113594D01*
X182268059Y-83024000D01*
X182221941Y-83024000D01*
X181771523Y-83113594D01*
X181389676Y-83368735D01*
X181134535Y-83750582D01*
X181044941Y-84201000D01*
X173349000Y-84201000D01*
X173349000Y-82360936D01*
X174048936Y-81661000D01*
X181044941Y-81661000D01*
X181134535Y-82111418D01*
X181389676Y-82493265D01*
X181771523Y-82748406D01*
X182221941Y-82838000D01*
X182268059Y-82838000D01*
X182718477Y-82748406D01*
X183100324Y-82493265D01*
X183355465Y-82111418D01*
X183445059Y-81661000D01*
X183355465Y-81210582D01*
X183100324Y-80828735D01*
X182718477Y-80573594D01*
X182268059Y-80484000D01*
X182221941Y-80484000D01*
X181771523Y-80573594D01*
X181389676Y-80828735D01*
X181134535Y-81210582D01*
X181044941Y-81661000D01*
X174048936Y-81661000D01*
X174182950Y-81526986D01*
X174343975Y-81527126D01*
X174611275Y-81416680D01*
X174815961Y-81212350D01*
X174926874Y-80945244D01*
X174927126Y-80656025D01*
X174826297Y-80412000D01*
X180340000Y-80412000D01*
X180493839Y-80381400D01*
X180624257Y-80294257D01*
X181219675Y-79698839D01*
X181389676Y-79953265D01*
X181771523Y-80208406D01*
X182221941Y-80298000D01*
X182268059Y-80298000D01*
X182718477Y-80208406D01*
X183100324Y-79953265D01*
X183355465Y-79571418D01*
X183445059Y-79121000D01*
X183355465Y-78670582D01*
X183100324Y-78288735D01*
X182718477Y-78033594D01*
X182268059Y-77944000D01*
X182221941Y-77944000D01*
X181771523Y-78033594D01*
X181389676Y-78288735D01*
X181134535Y-78670582D01*
X181120616Y-78740559D01*
X181075161Y-78749600D01*
X180944743Y-78836743D01*
X180173486Y-79608000D01*
X172357014Y-79608000D01*
X173004257Y-78960757D01*
X173091400Y-78830339D01*
X173122000Y-78676500D01*
X173122000Y-77940343D01*
X173166509Y-77895912D01*
X173246909Y-77702287D01*
X173246965Y-77638549D01*
X173902514Y-76983000D01*
X181124904Y-76983000D01*
X181134535Y-77031418D01*
X181389676Y-77413265D01*
X181771523Y-77668406D01*
X182221941Y-77758000D01*
X182268059Y-77758000D01*
X182718477Y-77668406D01*
X183100324Y-77413265D01*
X183355465Y-77031418D01*
X183445059Y-76581000D01*
X183355465Y-76130582D01*
X183100324Y-75748735D01*
X182718477Y-75493594D01*
X182268059Y-75404000D01*
X182221941Y-75404000D01*
X181771523Y-75493594D01*
X181389676Y-75748735D01*
X181134535Y-76130582D01*
X181124904Y-76179000D01*
X177849195Y-76179000D01*
X177915961Y-76112350D01*
X178026874Y-75845244D01*
X178027126Y-75556025D01*
X177916680Y-75288725D01*
X177712350Y-75084039D01*
X177445244Y-74973126D01*
X177282920Y-74972985D01*
X176350936Y-74041000D01*
X181044941Y-74041000D01*
X181134535Y-74491418D01*
X181389676Y-74873265D01*
X181771523Y-75128406D01*
X182221941Y-75218000D01*
X182268059Y-75218000D01*
X182718477Y-75128406D01*
X183100324Y-74873265D01*
X183355465Y-74491418D01*
X183445059Y-74041000D01*
X183355465Y-73590582D01*
X183100324Y-73208735D01*
X182718477Y-72953594D01*
X182268059Y-72864000D01*
X182221941Y-72864000D01*
X181771523Y-72953594D01*
X181389676Y-73208735D01*
X181134535Y-73590582D01*
X181044941Y-74041000D01*
X176350936Y-74041000D01*
X172960936Y-70651000D01*
X181061594Y-70651000D01*
X181061594Y-72351000D01*
X181084395Y-72472179D01*
X181156012Y-72583474D01*
X181265286Y-72658138D01*
X181395000Y-72684406D01*
X183095000Y-72684406D01*
X183216179Y-72661605D01*
X183327474Y-72589988D01*
X183402138Y-72480714D01*
X183428406Y-72351000D01*
X183428406Y-70651000D01*
X183405605Y-70529821D01*
X183333988Y-70418526D01*
X183224714Y-70343862D01*
X183095000Y-70317594D01*
X181395000Y-70317594D01*
X181273821Y-70340395D01*
X181162526Y-70412012D01*
X181087862Y-70521286D01*
X181061594Y-70651000D01*
X172960936Y-70651000D01*
X169772968Y-67463032D01*
X169610107Y-67354212D01*
X169418000Y-67315999D01*
X169417995Y-67316000D01*
X167445999Y-67316000D01*
X167225324Y-66985735D01*
X166843477Y-66730594D01*
X166393059Y-66641000D01*
X166346941Y-66641000D01*
X165896523Y-66730594D01*
X165514676Y-66985735D01*
X165259535Y-67367582D01*
X165169941Y-67818000D01*
X165259535Y-68268418D01*
X165514676Y-68650265D01*
X165896523Y-68905406D01*
X166346941Y-68995000D01*
X166393059Y-68995000D01*
X166843477Y-68905406D01*
X167225324Y-68650265D01*
X167445999Y-68320000D01*
X169210064Y-68320000D01*
X176573014Y-75682949D01*
X176572874Y-75843975D01*
X176683320Y-76111275D01*
X176750927Y-76179000D01*
X173736000Y-76179000D01*
X173582161Y-76209600D01*
X173451743Y-76296743D01*
X172678523Y-77069963D01*
X172615633Y-77069908D01*
X172421868Y-77149970D01*
X172273491Y-77298088D01*
X172193091Y-77491713D01*
X172192908Y-77701367D01*
X172272970Y-77895132D01*
X172318000Y-77940241D01*
X172318000Y-78509986D01*
X171854986Y-78973000D01*
X168926937Y-78973000D01*
X168927092Y-78795633D01*
X168852765Y-78615749D01*
X169641477Y-77827037D01*
X169704367Y-77827092D01*
X169898132Y-77747030D01*
X170046509Y-77598912D01*
X170126909Y-77405287D01*
X170127092Y-77195633D01*
X170047030Y-77001868D01*
X169898912Y-76853491D01*
X169705287Y-76773091D01*
X169495633Y-76772908D01*
X169301868Y-76852970D01*
X169153491Y-77001088D01*
X169073091Y-77194713D01*
X169073035Y-77258451D01*
X168115743Y-78215743D01*
X168028600Y-78346161D01*
X167998000Y-78500000D01*
X167998000Y-78556657D01*
X167953491Y-78601088D01*
X167873091Y-78794713D01*
X167872935Y-78973000D01*
X167386000Y-78973000D01*
X167232161Y-79003600D01*
X167101743Y-79090743D01*
X163345986Y-82846500D01*
X157823343Y-82846500D01*
X157778912Y-82801991D01*
X157585287Y-82721591D01*
X157375633Y-82721408D01*
X157181868Y-82801470D01*
X157033491Y-82949588D01*
X156953091Y-83143213D01*
X156952908Y-83352867D01*
X157032970Y-83546632D01*
X157181088Y-83695009D01*
X157374713Y-83775409D01*
X157584367Y-83775592D01*
X157778132Y-83695530D01*
X157823241Y-83650500D01*
X163512500Y-83650500D01*
X163666339Y-83619900D01*
X163796757Y-83532757D01*
X167552514Y-79777000D01*
X168921970Y-79777000D01*
X168873091Y-79894713D01*
X168872908Y-80104367D01*
X168952970Y-80298132D01*
X169101088Y-80446509D01*
X169294713Y-80526909D01*
X169358451Y-80526965D01*
X169498000Y-80666514D01*
X169498000Y-85333486D01*
X165515743Y-89315743D01*
X165428600Y-89446161D01*
X165398000Y-89600000D01*
X165398000Y-101700000D01*
X165428600Y-101853839D01*
X165515743Y-101984257D01*
X167993067Y-104461581D01*
X167953491Y-104501088D01*
X167873091Y-104694713D01*
X167872908Y-104904367D01*
X167952970Y-105098132D01*
X168101088Y-105246509D01*
X168294713Y-105326909D01*
X168504367Y-105327092D01*
X168698132Y-105247030D01*
X168846509Y-105098912D01*
X168926909Y-104905287D01*
X168927092Y-104695633D01*
X168847030Y-104501868D01*
X168802000Y-104456759D01*
X168802000Y-104300000D01*
X168771400Y-104146161D01*
X168684257Y-104015743D01*
X166202000Y-101533486D01*
X166202000Y-97266282D01*
X166368355Y-97667924D01*
X166758642Y-98096183D01*
X167283108Y-98342486D01*
X167513000Y-98221819D01*
X167513000Y-97028000D01*
X167767000Y-97028000D01*
X167767000Y-98221819D01*
X167996892Y-98342486D01*
X168521358Y-98096183D01*
X168911645Y-97667924D01*
X169081476Y-97257890D01*
X171405524Y-97257890D01*
X171575355Y-97667924D01*
X171965642Y-98096183D01*
X172490108Y-98342486D01*
X172720000Y-98221819D01*
X172720000Y-97028000D01*
X172974000Y-97028000D01*
X172974000Y-98221819D01*
X173203892Y-98342486D01*
X173728358Y-98096183D01*
X174118645Y-97667924D01*
X174288476Y-97257890D01*
X174167155Y-97028000D01*
X172974000Y-97028000D01*
X172720000Y-97028000D01*
X171526845Y-97028000D01*
X171405524Y-97257890D01*
X169081476Y-97257890D01*
X168960155Y-97028000D01*
X167767000Y-97028000D01*
X167513000Y-97028000D01*
X167493000Y-97028000D01*
X167493000Y-96774000D01*
X167513000Y-96774000D01*
X167513000Y-96754000D01*
X167767000Y-96754000D01*
X167767000Y-96774000D01*
X168960155Y-96774000D01*
X169081476Y-96544110D01*
X168911645Y-96134076D01*
X168799500Y-96011021D01*
X168910000Y-96033000D01*
X171667469Y-96033000D01*
X171575355Y-96134076D01*
X171405524Y-96544110D01*
X171526845Y-96774000D01*
X172720000Y-96774000D01*
X172720000Y-96754000D01*
X172974000Y-96754000D01*
X172974000Y-96774000D01*
X174167155Y-96774000D01*
X174288476Y-96544110D01*
X174118645Y-96134076D01*
X174026531Y-96033000D01*
X178738784Y-96033000D01*
X178684039Y-96087650D01*
X178573126Y-96354756D01*
X178572874Y-96643975D01*
X178683320Y-96911275D01*
X178798000Y-97026155D01*
X178798000Y-101692065D01*
X171917050Y-108573014D01*
X171756025Y-108572874D01*
X171488725Y-108683320D01*
X171284039Y-108887650D01*
X171173126Y-109154756D01*
X171172874Y-109443975D01*
X171283320Y-109711275D01*
X171487650Y-109915961D01*
X171754756Y-110026874D01*
X172043975Y-110027126D01*
X172311275Y-109916680D01*
X172515961Y-109712350D01*
X172626874Y-109445244D01*
X172627015Y-109282921D01*
X179654965Y-102254970D01*
X179654968Y-102254968D01*
X179757178Y-102102000D01*
X179763788Y-102092108D01*
X179802000Y-101900000D01*
X179802000Y-97026113D01*
X179915961Y-96912350D01*
X180026874Y-96645244D01*
X180027092Y-96394606D01*
X181061594Y-97429108D01*
X181061594Y-98894000D01*
X181084395Y-99015179D01*
X181156012Y-99126474D01*
X181265286Y-99201138D01*
X181395000Y-99227406D01*
X183095000Y-99227406D01*
X183216179Y-99204605D01*
X183327474Y-99132988D01*
X183398000Y-99029770D01*
X183398000Y-100347419D01*
X183355465Y-100133582D01*
X183100324Y-99751735D01*
X182718477Y-99496594D01*
X182268059Y-99407000D01*
X182221941Y-99407000D01*
X181771523Y-99496594D01*
X181389676Y-99751735D01*
X181134535Y-100133582D01*
X181044941Y-100584000D01*
X181134535Y-101034418D01*
X181389676Y-101416265D01*
X181771523Y-101671406D01*
X182221941Y-101761000D01*
X182268059Y-101761000D01*
X182718477Y-101671406D01*
X183100324Y-101416265D01*
X183355465Y-101034418D01*
X183398000Y-100820581D01*
X183398000Y-102887419D01*
X183355465Y-102673582D01*
X183100324Y-102291735D01*
X182718477Y-102036594D01*
X182268059Y-101947000D01*
X182221941Y-101947000D01*
X181771523Y-102036594D01*
X181389676Y-102291735D01*
X181134535Y-102673582D01*
X181124904Y-102722000D01*
X179876000Y-102722000D01*
X179722161Y-102752600D01*
X179591743Y-102839743D01*
X169058523Y-113372963D01*
X168995633Y-113372908D01*
X168801868Y-113452970D01*
X168653491Y-113601088D01*
X168573091Y-113794713D01*
X168572908Y-114004367D01*
X168652970Y-114198132D01*
X168801088Y-114346509D01*
X168994713Y-114426909D01*
X169204367Y-114427092D01*
X169398132Y-114347030D01*
X169546509Y-114198912D01*
X169626909Y-114005287D01*
X169626965Y-113941549D01*
X180042514Y-103526000D01*
X181124904Y-103526000D01*
X181134535Y-103574418D01*
X181389676Y-103956265D01*
X181771523Y-104211406D01*
X182221941Y-104301000D01*
X182268059Y-104301000D01*
X182718477Y-104211406D01*
X183100324Y-103956265D01*
X183355465Y-103574418D01*
X183398000Y-103360581D01*
X183398000Y-105427419D01*
X183355465Y-105213582D01*
X183100324Y-104831735D01*
X182718477Y-104576594D01*
X182268059Y-104487000D01*
X182221941Y-104487000D01*
X181771523Y-104576594D01*
X181389676Y-104831735D01*
X181134535Y-105213582D01*
X181044941Y-105664000D01*
X181134535Y-106114418D01*
X181171198Y-106169288D01*
X179215743Y-108124743D01*
X179128600Y-108255161D01*
X179098000Y-108409000D01*
X179098000Y-108773085D01*
X178895633Y-108772908D01*
X178701868Y-108852970D01*
X178553491Y-109001088D01*
X178473091Y-109194713D01*
X178472908Y-109404367D01*
X178552970Y-109598132D01*
X178598000Y-109643241D01*
X178598000Y-111033486D01*
X176415743Y-113215743D01*
X176328600Y-113346161D01*
X176298000Y-113500000D01*
X176298000Y-114133486D01*
X172433486Y-117998000D01*
X159830162Y-117998000D01*
X159915961Y-117912350D01*
X160026874Y-117645244D01*
X160027126Y-117356025D01*
X159916680Y-117088725D01*
X159802000Y-116973845D01*
X159802000Y-111400005D01*
X159802001Y-111400000D01*
X159763788Y-111207893D01*
X159654968Y-111045032D01*
X156126986Y-107517050D01*
X156127126Y-107356025D01*
X156016680Y-107088725D01*
X155812350Y-106884039D01*
X155545244Y-106773126D01*
X155256025Y-106772874D01*
X154988725Y-106883320D01*
X154784039Y-107087650D01*
X154673126Y-107354756D01*
X154672874Y-107643975D01*
X154783320Y-107911275D01*
X154987650Y-108115961D01*
X155254756Y-108226874D01*
X155417079Y-108227015D01*
X158798000Y-111607936D01*
X158798000Y-116973887D01*
X158684039Y-117087650D01*
X158573126Y-117354756D01*
X158572874Y-117643975D01*
X158683320Y-117911275D01*
X158769894Y-117998000D01*
X155843343Y-117998000D01*
X155798912Y-117953491D01*
X155605287Y-117873091D01*
X155395633Y-117872908D01*
X155201868Y-117952970D01*
X155053491Y-118101088D01*
X154973091Y-118294713D01*
X154972908Y-118504367D01*
X155052970Y-118698132D01*
X155077218Y-118722422D01*
X155046161Y-118728600D01*
X154915743Y-118815743D01*
X154512020Y-119219466D01*
X154416680Y-118988725D01*
X154212350Y-118784039D01*
X153945244Y-118673126D01*
X153782920Y-118672985D01*
X152254968Y-117145032D01*
X152092107Y-117036212D01*
X151900000Y-116997999D01*
X151899995Y-116998000D01*
X148926113Y-116998000D01*
X148812350Y-116884039D01*
X148545244Y-116773126D01*
X148256025Y-116772874D01*
X147988725Y-116883320D01*
X147784039Y-117087650D01*
X147673126Y-117354756D01*
X147672874Y-117643975D01*
X147783320Y-117911275D01*
X147898000Y-118026155D01*
X147898000Y-119373887D01*
X147784039Y-119487650D01*
X147673126Y-119754756D01*
X147672874Y-120043975D01*
X147783320Y-120311275D01*
X147987650Y-120515961D01*
X148254756Y-120626874D01*
X148543975Y-120627126D01*
X148811275Y-120516680D01*
X149015961Y-120312350D01*
X149126874Y-120045244D01*
X149127126Y-119756025D01*
X149016680Y-119488725D01*
X148902000Y-119373845D01*
X148902000Y-118026113D01*
X148926155Y-118002000D01*
X151692064Y-118002000D01*
X153073014Y-119382949D01*
X153072874Y-119543975D01*
X153183320Y-119811275D01*
X153387650Y-120015961D01*
X153619325Y-120112161D01*
X143758523Y-129972963D01*
X143695633Y-129972908D01*
X143501868Y-130052970D01*
X143353491Y-130201088D01*
X143273091Y-130394713D01*
X143272908Y-130604367D01*
X143311596Y-130698000D01*
X134000000Y-130698000D01*
X133846161Y-130728600D01*
X133715743Y-130815743D01*
X133558523Y-130972963D01*
X133495633Y-130972908D01*
X133301868Y-131052970D01*
X133153491Y-131201088D01*
X133073091Y-131394713D01*
X133072908Y-131604367D01*
X133152970Y-131798132D01*
X133301088Y-131946509D01*
X133494713Y-132026909D01*
X133704367Y-132027092D01*
X133898132Y-131947030D01*
X134046509Y-131798912D01*
X134126909Y-131605287D01*
X134126965Y-131541549D01*
X134166514Y-131502000D01*
X144500000Y-131502000D01*
X144653839Y-131471400D01*
X144784257Y-131384257D01*
X147449592Y-128718922D01*
X149202573Y-128718922D01*
X149400814Y-129198701D01*
X149767568Y-129566096D01*
X150247001Y-129765173D01*
X150766122Y-129765627D01*
X151245901Y-129567386D01*
X151613296Y-129200632D01*
X151760056Y-128847192D01*
X153304562Y-128847192D01*
X153601201Y-129565114D01*
X154149997Y-130114869D01*
X154867400Y-130412761D01*
X155644192Y-130413438D01*
X156362114Y-130116799D01*
X156911869Y-129568003D01*
X157209761Y-128850600D01*
X157209875Y-128718922D01*
X158702173Y-128718922D01*
X158900414Y-129198701D01*
X159267168Y-129566096D01*
X159746601Y-129765173D01*
X160265722Y-129765627D01*
X160745501Y-129567386D01*
X161112896Y-129200632D01*
X161311973Y-128721199D01*
X161312427Y-128202078D01*
X161114186Y-127722299D01*
X160747432Y-127354904D01*
X160267999Y-127155827D01*
X159748878Y-127155373D01*
X159269099Y-127353614D01*
X158901704Y-127720368D01*
X158702627Y-128199801D01*
X158702173Y-128718922D01*
X157209875Y-128718922D01*
X157210438Y-128073808D01*
X156913799Y-127355886D01*
X156365003Y-126806131D01*
X155647600Y-126508239D01*
X154870808Y-126507562D01*
X154152886Y-126804201D01*
X153603131Y-127352997D01*
X153305239Y-128070400D01*
X153304562Y-128847192D01*
X151760056Y-128847192D01*
X151812373Y-128721199D01*
X151812827Y-128202078D01*
X151614586Y-127722299D01*
X151247832Y-127354904D01*
X150768399Y-127155827D01*
X150249278Y-127155373D01*
X149769499Y-127353614D01*
X149402104Y-127720368D01*
X149203027Y-128199801D01*
X149202573Y-128718922D01*
X147449592Y-128718922D01*
X154817218Y-121351296D01*
X154883320Y-121511275D01*
X155087650Y-121715961D01*
X155354756Y-121826874D01*
X155517080Y-121827015D01*
X155945030Y-122254965D01*
X155945032Y-122254968D01*
X156107893Y-122363788D01*
X156300000Y-122402001D01*
X156300005Y-122402000D01*
X169973887Y-122402000D01*
X170087650Y-122515961D01*
X170354756Y-122626874D01*
X170643975Y-122627126D01*
X170911275Y-122516680D01*
X171115961Y-122312350D01*
X171226874Y-122045244D01*
X171227126Y-121756025D01*
X171116680Y-121488725D01*
X170912350Y-121284039D01*
X170645244Y-121173126D01*
X170356025Y-121172874D01*
X170088725Y-121283320D01*
X169973845Y-121398000D01*
X156507935Y-121398000D01*
X156226986Y-121117050D01*
X156227126Y-120956025D01*
X156116680Y-120688725D01*
X155912350Y-120484039D01*
X155751335Y-120417179D01*
X156066514Y-120102000D01*
X173100000Y-120102000D01*
X173253839Y-120071400D01*
X173384257Y-119984257D01*
X176928823Y-116439691D01*
X176952970Y-116498132D01*
X176998000Y-116543241D01*
X176998000Y-121733486D01*
X168458523Y-130272963D01*
X168395633Y-130272908D01*
X168201868Y-130352970D01*
X168053491Y-130501088D01*
X167973091Y-130694713D01*
X167972908Y-130904367D01*
X168052970Y-131098132D01*
X168201088Y-131246509D01*
X168394713Y-131326909D01*
X168604367Y-131327092D01*
X168798132Y-131247030D01*
X168946509Y-131098912D01*
X169026909Y-130905287D01*
X169026965Y-130841549D01*
X177684257Y-122184257D01*
X177771400Y-122053839D01*
X177802000Y-121900000D01*
X177802000Y-116543343D01*
X177846509Y-116498912D01*
X177926909Y-116305287D01*
X177927092Y-116095633D01*
X177847030Y-115901868D01*
X177698912Y-115753491D01*
X177639636Y-115728878D01*
X178541477Y-114827037D01*
X178604367Y-114827092D01*
X178798132Y-114747030D01*
X178946509Y-114598912D01*
X179026909Y-114405287D01*
X179027092Y-114195633D01*
X178947030Y-114001868D01*
X178798912Y-113853491D01*
X178739636Y-113828878D01*
X179241477Y-113327037D01*
X179243570Y-113327039D01*
X179239500Y-113347500D01*
X179239500Y-123531486D01*
X174901023Y-127869963D01*
X174838133Y-127869908D01*
X174644368Y-127949970D01*
X174495991Y-128098088D01*
X174415591Y-128291713D01*
X174415408Y-128501367D01*
X174495470Y-128695132D01*
X174643588Y-128843509D01*
X174837213Y-128923909D01*
X175046867Y-128924092D01*
X175240632Y-128844030D01*
X175389009Y-128695912D01*
X175469409Y-128502287D01*
X175469465Y-128438549D01*
X179925757Y-123982257D01*
X180012900Y-123851839D01*
X180043500Y-123698000D01*
X180043500Y-114826952D01*
X180204367Y-114827092D01*
X180398132Y-114747030D01*
X180546509Y-114598912D01*
X180626909Y-114405287D01*
X180626965Y-114341549D01*
X181174413Y-113794101D01*
X181389676Y-114116265D01*
X181771523Y-114371406D01*
X182221941Y-114461000D01*
X182268059Y-114461000D01*
X182718477Y-114371406D01*
X183100324Y-114116265D01*
X183355465Y-113734418D01*
X183398000Y-113520581D01*
X183398000Y-115587419D01*
X183355465Y-115373582D01*
X183100324Y-114991735D01*
X182718477Y-114736594D01*
X182268059Y-114647000D01*
X182221941Y-114647000D01*
X181771523Y-114736594D01*
X181389676Y-114991735D01*
X181134535Y-115373582D01*
X181044941Y-115824000D01*
X181134535Y-116274418D01*
X181389676Y-116656265D01*
X181771523Y-116911406D01*
X182221941Y-117001000D01*
X182268059Y-117001000D01*
X182718477Y-116911406D01*
X183100324Y-116656265D01*
X183355465Y-116274418D01*
X183398000Y-116060581D01*
X183398000Y-118127419D01*
X183355465Y-117913582D01*
X183100324Y-117531735D01*
X182718477Y-117276594D01*
X182268059Y-117187000D01*
X182221941Y-117187000D01*
X181771523Y-117276594D01*
X181389676Y-117531735D01*
X181134535Y-117913582D01*
X181044941Y-118364000D01*
X181134535Y-118814418D01*
X181389676Y-119196265D01*
X181771523Y-119451406D01*
X182221941Y-119541000D01*
X182268059Y-119541000D01*
X182718477Y-119451406D01*
X183100324Y-119196265D01*
X183355465Y-118814418D01*
X183398000Y-118600581D01*
X183398000Y-119833486D01*
X183124127Y-120107359D01*
X183100324Y-120071735D01*
X182718477Y-119816594D01*
X182268059Y-119727000D01*
X182221941Y-119727000D01*
X181771523Y-119816594D01*
X181389676Y-120071735D01*
X181134535Y-120453582D01*
X181044941Y-120904000D01*
X181134535Y-121354418D01*
X181389676Y-121736265D01*
X181771523Y-121991406D01*
X182221941Y-122081000D01*
X182268059Y-122081000D01*
X182718477Y-121991406D01*
X183100324Y-121736265D01*
X183355465Y-121354418D01*
X183440228Y-120928286D01*
X184018399Y-120350115D01*
X183974406Y-151988719D01*
X183905294Y-152333971D01*
X183716510Y-152615976D01*
X183434244Y-152804368D01*
X183088893Y-152873000D01*
X122811396Y-152873000D01*
X122531879Y-152828689D01*
X122288794Y-152704703D01*
X122095975Y-152511616D01*
X121972328Y-152268360D01*
X121928406Y-151988785D01*
X121931054Y-150083985D01*
X170195330Y-150083985D01*
X170343756Y-150443203D01*
X170618351Y-150718278D01*
X170977310Y-150867330D01*
X171365985Y-150867670D01*
X171725203Y-150719244D01*
X172000278Y-150444649D01*
X172149330Y-150085690D01*
X172149331Y-150083985D01*
X175195330Y-150083985D01*
X175343756Y-150443203D01*
X175618351Y-150718278D01*
X175977310Y-150867330D01*
X176365985Y-150867670D01*
X176725203Y-150719244D01*
X177000278Y-150444649D01*
X177149330Y-150085690D01*
X177149670Y-149697015D01*
X177001244Y-149337797D01*
X176726649Y-149062722D01*
X176367690Y-148913670D01*
X175979015Y-148913330D01*
X175619797Y-149061756D01*
X175344722Y-149336351D01*
X175195670Y-149695310D01*
X175195330Y-150083985D01*
X172149331Y-150083985D01*
X172149670Y-149697015D01*
X172001244Y-149337797D01*
X171726649Y-149062722D01*
X171367690Y-148913670D01*
X170979015Y-148913330D01*
X170619797Y-149061756D01*
X170344722Y-149336351D01*
X170195670Y-149695310D01*
X170195330Y-150083985D01*
X121931054Y-150083985D01*
X121935860Y-146627192D01*
X153304562Y-146627192D01*
X153601201Y-147345114D01*
X154149997Y-147894869D01*
X154867400Y-148192761D01*
X155644192Y-148193438D01*
X156362114Y-147896799D01*
X156911869Y-147348003D01*
X157209761Y-146630600D01*
X157209875Y-146498922D01*
X158702173Y-146498922D01*
X158900414Y-146978701D01*
X159267168Y-147346096D01*
X159746601Y-147545173D01*
X160265722Y-147545627D01*
X160745501Y-147347386D01*
X161112896Y-146980632D01*
X161311973Y-146501199D01*
X161312427Y-145982078D01*
X161114186Y-145502299D01*
X160805334Y-145192907D01*
X164645235Y-145192907D01*
X164877217Y-145754346D01*
X165306394Y-146184273D01*
X165867428Y-146417235D01*
X166474907Y-146417765D01*
X167036346Y-146185783D01*
X167466273Y-145756606D01*
X167699235Y-145195572D01*
X167699237Y-145192907D01*
X179645235Y-145192907D01*
X179877217Y-145754346D01*
X180306394Y-146184273D01*
X180867428Y-146417235D01*
X181474907Y-146417765D01*
X182036346Y-146185783D01*
X182466273Y-145756606D01*
X182699235Y-145195572D01*
X182699765Y-144588093D01*
X182467783Y-144026654D01*
X182038606Y-143596727D01*
X181477572Y-143363765D01*
X180870093Y-143363235D01*
X180308654Y-143595217D01*
X179878727Y-144024394D01*
X179645765Y-144585428D01*
X179645235Y-145192907D01*
X167699237Y-145192907D01*
X167699765Y-144588093D01*
X167467783Y-144026654D01*
X167038606Y-143596727D01*
X166477572Y-143363765D01*
X165870093Y-143363235D01*
X165308654Y-143595217D01*
X164878727Y-144024394D01*
X164645765Y-144585428D01*
X164645235Y-145192907D01*
X160805334Y-145192907D01*
X160747432Y-145134904D01*
X160267999Y-144935827D01*
X159748878Y-144935373D01*
X159269099Y-145133614D01*
X158901704Y-145500368D01*
X158702627Y-145979801D01*
X158702173Y-146498922D01*
X157209875Y-146498922D01*
X157210438Y-145853808D01*
X156913799Y-145135886D01*
X156365003Y-144586131D01*
X155647600Y-144288239D01*
X154870808Y-144287562D01*
X154152886Y-144584201D01*
X153603131Y-145132997D01*
X153305239Y-145850400D01*
X153304562Y-146627192D01*
X121935860Y-146627192D01*
X121948060Y-137853245D01*
X131392047Y-137853245D01*
X131631576Y-138432951D01*
X132074716Y-138876865D01*
X132654003Y-139117406D01*
X133281245Y-139117953D01*
X133860951Y-138878424D01*
X133865293Y-138874089D01*
X135498517Y-138874089D01*
X135627725Y-139166859D01*
X136327883Y-139435071D01*
X137077384Y-139414928D01*
X137676275Y-139166859D01*
X137805483Y-138874089D01*
X136652000Y-137720605D01*
X135498517Y-138874089D01*
X133865293Y-138874089D01*
X134304865Y-138435284D01*
X134545406Y-137855997D01*
X134545953Y-137228755D01*
X134541048Y-137216883D01*
X134757929Y-137216883D01*
X134778072Y-137966384D01*
X135026141Y-138565275D01*
X135318911Y-138694483D01*
X136472395Y-137541000D01*
X136831605Y-137541000D01*
X137985089Y-138694483D01*
X138277859Y-138565275D01*
X138546071Y-137865117D01*
X138545752Y-137853245D01*
X138758047Y-137853245D01*
X138997576Y-138432951D01*
X139440716Y-138876865D01*
X140020003Y-139117406D01*
X140647245Y-139117953D01*
X141225745Y-138878922D01*
X149202173Y-138878922D01*
X149400414Y-139358701D01*
X149767168Y-139726096D01*
X150246601Y-139925173D01*
X150765722Y-139925627D01*
X151173730Y-139757041D01*
X159050365Y-139757041D01*
X159146319Y-140021603D01*
X159748036Y-140244434D01*
X160389224Y-140220035D01*
X160478622Y-140183005D01*
X164695244Y-140183005D01*
X164919630Y-140726060D01*
X165334754Y-141141909D01*
X165877418Y-141367243D01*
X166465005Y-141367756D01*
X166988323Y-141151525D01*
X172591081Y-141151525D01*
X172708101Y-141433946D01*
X173372163Y-141685518D01*
X174081948Y-141663814D01*
X174636899Y-141433946D01*
X174753919Y-141151525D01*
X173672500Y-140070105D01*
X172591081Y-141151525D01*
X166988323Y-141151525D01*
X167008060Y-141143370D01*
X167423909Y-140728246D01*
X167649243Y-140185582D01*
X167649756Y-139597995D01*
X167646520Y-139590163D01*
X171877482Y-139590163D01*
X171899186Y-140299948D01*
X172129054Y-140854899D01*
X172411475Y-140971919D01*
X173492895Y-139890500D01*
X173852105Y-139890500D01*
X174933525Y-140971919D01*
X175215946Y-140854899D01*
X175467518Y-140190837D01*
X175467279Y-140183005D01*
X179695244Y-140183005D01*
X179919630Y-140726060D01*
X180334754Y-141141909D01*
X180877418Y-141367243D01*
X181465005Y-141367756D01*
X182008060Y-141143370D01*
X182423909Y-140728246D01*
X182649243Y-140185582D01*
X182649756Y-139597995D01*
X182425370Y-139054940D01*
X182010246Y-138639091D01*
X181467582Y-138413757D01*
X180879995Y-138413244D01*
X180336940Y-138637630D01*
X179921091Y-139052754D01*
X179695757Y-139595418D01*
X179695244Y-140183005D01*
X175467279Y-140183005D01*
X175445814Y-139481052D01*
X175215946Y-138926101D01*
X174933525Y-138809081D01*
X173852105Y-139890500D01*
X173492895Y-139890500D01*
X172411475Y-138809081D01*
X172129054Y-138926101D01*
X171877482Y-139590163D01*
X167646520Y-139590163D01*
X167425370Y-139054940D01*
X167010246Y-138639091D01*
X166467582Y-138413757D01*
X165879995Y-138413244D01*
X165336940Y-138637630D01*
X164921091Y-139052754D01*
X164695757Y-139595418D01*
X164695244Y-140183005D01*
X160478622Y-140183005D01*
X160868281Y-140021603D01*
X160964235Y-139757041D01*
X160007300Y-138800105D01*
X159050365Y-139757041D01*
X151173730Y-139757041D01*
X151245501Y-139727386D01*
X151612896Y-139360632D01*
X151811973Y-138881199D01*
X151812427Y-138362078D01*
X151812080Y-138361236D01*
X158383366Y-138361236D01*
X158407765Y-139002424D01*
X158606197Y-139481481D01*
X158870759Y-139577435D01*
X159827695Y-138620500D01*
X160186905Y-138620500D01*
X161143841Y-139577435D01*
X161408403Y-139481481D01*
X161631234Y-138879764D01*
X161606835Y-138238576D01*
X161408403Y-137759519D01*
X161197441Y-137683005D01*
X167195244Y-137683005D01*
X167419630Y-138226060D01*
X167834754Y-138641909D01*
X168377418Y-138867243D01*
X168965005Y-138867756D01*
X169508060Y-138643370D01*
X169521979Y-138629475D01*
X172591081Y-138629475D01*
X173672500Y-139710895D01*
X174753919Y-138629475D01*
X174636899Y-138347054D01*
X173972837Y-138095482D01*
X173263052Y-138117186D01*
X172708101Y-138347054D01*
X172591081Y-138629475D01*
X169521979Y-138629475D01*
X169923909Y-138228246D01*
X170149243Y-137685582D01*
X170149245Y-137683005D01*
X177195244Y-137683005D01*
X177419630Y-138226060D01*
X177834754Y-138641909D01*
X178377418Y-138867243D01*
X178965005Y-138867756D01*
X179508060Y-138643370D01*
X179923909Y-138228246D01*
X180149243Y-137685582D01*
X180149756Y-137097995D01*
X179925370Y-136554940D01*
X179510246Y-136139091D01*
X178967582Y-135913757D01*
X178379995Y-135913244D01*
X177836940Y-136137630D01*
X177421091Y-136552754D01*
X177195757Y-137095418D01*
X177195244Y-137683005D01*
X170149245Y-137683005D01*
X170149756Y-137097995D01*
X169925370Y-136554940D01*
X169510246Y-136139091D01*
X168967582Y-135913757D01*
X168379995Y-135913244D01*
X167836940Y-136137630D01*
X167421091Y-136552754D01*
X167195757Y-137095418D01*
X167195244Y-137683005D01*
X161197441Y-137683005D01*
X161143841Y-137663565D01*
X160186905Y-138620500D01*
X159827695Y-138620500D01*
X158870759Y-137663565D01*
X158606197Y-137759519D01*
X158383366Y-138361236D01*
X151812080Y-138361236D01*
X151614186Y-137882299D01*
X151247432Y-137514904D01*
X151172908Y-137483959D01*
X159050365Y-137483959D01*
X160007300Y-138440895D01*
X160964235Y-137483959D01*
X160868281Y-137219397D01*
X160266564Y-136996566D01*
X159625376Y-137020965D01*
X159146319Y-137219397D01*
X159050365Y-137483959D01*
X151172908Y-137483959D01*
X150767999Y-137315827D01*
X150248878Y-137315373D01*
X149769099Y-137513614D01*
X149401704Y-137880368D01*
X149202627Y-138359801D01*
X149202173Y-138878922D01*
X141225745Y-138878922D01*
X141226951Y-138878424D01*
X141670865Y-138435284D01*
X141911406Y-137855997D01*
X141911953Y-137228755D01*
X141672424Y-136649049D01*
X141229284Y-136205135D01*
X140649997Y-135964594D01*
X140022755Y-135964047D01*
X139443049Y-136203576D01*
X138999135Y-136646716D01*
X138758594Y-137226003D01*
X138758047Y-137853245D01*
X138545752Y-137853245D01*
X138525928Y-137115616D01*
X138277859Y-136516725D01*
X137985089Y-136387517D01*
X136831605Y-137541000D01*
X136472395Y-137541000D01*
X135318911Y-136387517D01*
X135026141Y-136516725D01*
X134757929Y-137216883D01*
X134541048Y-137216883D01*
X134306424Y-136649049D01*
X133866056Y-136207911D01*
X135498517Y-136207911D01*
X136652000Y-137361395D01*
X137805483Y-136207911D01*
X137676275Y-135915141D01*
X136976117Y-135646929D01*
X136226616Y-135667072D01*
X135627725Y-135915141D01*
X135498517Y-136207911D01*
X133866056Y-136207911D01*
X133863284Y-136205135D01*
X133283997Y-135964594D01*
X132656755Y-135964047D01*
X132077049Y-136203576D01*
X131633135Y-136646716D01*
X131392594Y-137226003D01*
X131392047Y-137853245D01*
X121948060Y-137853245D01*
X121953518Y-133927192D01*
X153304562Y-133927192D01*
X153601201Y-134645114D01*
X154149997Y-135194869D01*
X154867400Y-135492761D01*
X155644192Y-135493438D01*
X156362114Y-135196799D01*
X156911869Y-134648003D01*
X157209761Y-133930600D01*
X157210438Y-133153808D01*
X156913799Y-132435886D01*
X156365003Y-131886131D01*
X155647600Y-131588239D01*
X154870808Y-131587562D01*
X154152886Y-131884201D01*
X153603131Y-132432997D01*
X153305239Y-133150400D01*
X153304562Y-133927192D01*
X121953518Y-133927192D01*
X121954802Y-133004367D01*
X128172908Y-133004367D01*
X128252970Y-133198132D01*
X128401088Y-133346509D01*
X128594713Y-133426909D01*
X128804367Y-133427092D01*
X128998132Y-133347030D01*
X129146509Y-133198912D01*
X129226909Y-133005287D01*
X129227092Y-132795633D01*
X129147030Y-132601868D01*
X129002000Y-132456584D01*
X129002000Y-131766514D01*
X130466514Y-130302000D01*
X131356657Y-130302000D01*
X131401088Y-130346509D01*
X131594713Y-130426909D01*
X131804367Y-130427092D01*
X131998132Y-130347030D01*
X132146509Y-130198912D01*
X132226909Y-130005287D01*
X132227092Y-129795633D01*
X132147030Y-129601868D01*
X131998912Y-129453491D01*
X131805287Y-129373091D01*
X131595633Y-129372908D01*
X131401868Y-129452970D01*
X131356759Y-129498000D01*
X130300000Y-129498000D01*
X130146161Y-129528600D01*
X130015743Y-129615743D01*
X128315743Y-131315743D01*
X128228600Y-131446161D01*
X128198000Y-131600000D01*
X128198000Y-132734725D01*
X128173091Y-132794713D01*
X128172908Y-133004367D01*
X121954802Y-133004367D01*
X121963953Y-126423245D01*
X127201047Y-126423245D01*
X127440576Y-127002951D01*
X127883716Y-127446865D01*
X128463003Y-127687406D01*
X129090245Y-127687953D01*
X129669951Y-127448424D01*
X130113865Y-127005284D01*
X130354406Y-126425997D01*
X130354413Y-126417245D01*
X131235333Y-126417245D01*
X131474862Y-126996951D01*
X131918002Y-127440865D01*
X132497289Y-127681406D01*
X133124531Y-127681953D01*
X133704237Y-127442424D01*
X134148151Y-126999284D01*
X134387343Y-126423245D01*
X135202047Y-126423245D01*
X135441576Y-127002951D01*
X135884716Y-127446865D01*
X136464003Y-127687406D01*
X137091245Y-127687953D01*
X137670951Y-127448424D01*
X138114865Y-127005284D01*
X138355406Y-126425997D01*
X138355408Y-126423245D01*
X139139047Y-126423245D01*
X139378576Y-127002951D01*
X139821716Y-127446865D01*
X140401003Y-127687406D01*
X141028245Y-127687953D01*
X141607951Y-127448424D01*
X142051865Y-127005284D01*
X142292406Y-126425997D01*
X142292953Y-125798755D01*
X142053424Y-125219049D01*
X141610284Y-124775135D01*
X141030997Y-124534594D01*
X140403755Y-124534047D01*
X139824049Y-124773576D01*
X139380135Y-125216716D01*
X139139594Y-125796003D01*
X139139047Y-126423245D01*
X138355408Y-126423245D01*
X138355953Y-125798755D01*
X138116424Y-125219049D01*
X137673284Y-124775135D01*
X137093997Y-124534594D01*
X136466755Y-124534047D01*
X135887049Y-124773576D01*
X135443135Y-125216716D01*
X135202594Y-125796003D01*
X135202047Y-126423245D01*
X134387343Y-126423245D01*
X134388692Y-126419997D01*
X134389239Y-125792755D01*
X134149710Y-125213049D01*
X133706570Y-124769135D01*
X133127283Y-124528594D01*
X132500041Y-124528047D01*
X131920335Y-124767576D01*
X131476421Y-125210716D01*
X131235880Y-125790003D01*
X131235333Y-126417245D01*
X130354413Y-126417245D01*
X130354953Y-125798755D01*
X130115424Y-125219049D01*
X129672284Y-124775135D01*
X129092997Y-124534594D01*
X128465755Y-124534047D01*
X127886049Y-124773576D01*
X127442135Y-125216716D01*
X127201594Y-125796003D01*
X127201047Y-126423245D01*
X121963953Y-126423245D01*
X121971628Y-120904000D01*
X123005941Y-120904000D01*
X123095535Y-121354418D01*
X123350676Y-121736265D01*
X123732523Y-121991406D01*
X124182941Y-122081000D01*
X124229059Y-122081000D01*
X124679477Y-121991406D01*
X125061324Y-121736265D01*
X125316465Y-121354418D01*
X125406059Y-120904000D01*
X125316465Y-120453582D01*
X125061324Y-120071735D01*
X124679477Y-119816594D01*
X124229059Y-119727000D01*
X124182941Y-119727000D01*
X123732523Y-119816594D01*
X123350676Y-120071735D01*
X123095535Y-120453582D01*
X123005941Y-120904000D01*
X121971628Y-120904000D01*
X121975160Y-118364000D01*
X123005941Y-118364000D01*
X123095535Y-118814418D01*
X123350676Y-119196265D01*
X123732523Y-119451406D01*
X124182941Y-119541000D01*
X124229059Y-119541000D01*
X124679477Y-119451406D01*
X125061324Y-119196265D01*
X125316465Y-118814418D01*
X125406059Y-118364000D01*
X125316465Y-117913582D01*
X125061324Y-117531735D01*
X124679477Y-117276594D01*
X124229059Y-117187000D01*
X124182941Y-117187000D01*
X123732523Y-117276594D01*
X123350676Y-117531735D01*
X123095535Y-117913582D01*
X123005941Y-118364000D01*
X121975160Y-118364000D01*
X121978692Y-115824000D01*
X123005941Y-115824000D01*
X123095535Y-116274418D01*
X123350676Y-116656265D01*
X123732523Y-116911406D01*
X124182941Y-117001000D01*
X124229059Y-117001000D01*
X124679477Y-116911406D01*
X125061324Y-116656265D01*
X125316465Y-116274418D01*
X125406059Y-115824000D01*
X125316465Y-115373582D01*
X125061324Y-114991735D01*
X124679477Y-114736594D01*
X124229059Y-114647000D01*
X124182941Y-114647000D01*
X123732523Y-114736594D01*
X123350676Y-114991735D01*
X123095535Y-115373582D01*
X123005941Y-115824000D01*
X121978692Y-115824000D01*
X121985260Y-111100890D01*
X122764524Y-111100890D01*
X122934355Y-111510924D01*
X123324642Y-111939183D01*
X123831035Y-112176999D01*
X123732523Y-112196594D01*
X123350676Y-112451735D01*
X123095535Y-112833582D01*
X123005941Y-113284000D01*
X123095535Y-113734418D01*
X123350676Y-114116265D01*
X123732523Y-114371406D01*
X124182941Y-114461000D01*
X124229059Y-114461000D01*
X124679477Y-114371406D01*
X125061324Y-114116265D01*
X125316465Y-113734418D01*
X125326096Y-113686000D01*
X126117486Y-113686000D01*
X134072963Y-121641477D01*
X134072908Y-121704367D01*
X134152970Y-121898132D01*
X134301088Y-122046509D01*
X134494713Y-122126909D01*
X134704367Y-122127092D01*
X134898132Y-122047030D01*
X135046509Y-121898912D01*
X135126909Y-121705287D01*
X135127092Y-121495633D01*
X135047030Y-121301868D01*
X134898912Y-121153491D01*
X134705287Y-121073091D01*
X134641549Y-121073035D01*
X127112489Y-113543975D01*
X138672874Y-113543975D01*
X138783320Y-113811275D01*
X138987650Y-114015961D01*
X139254756Y-114126874D01*
X139417080Y-114127015D01*
X141445030Y-116154965D01*
X141445032Y-116154968D01*
X141607893Y-116263788D01*
X141800000Y-116302001D01*
X141800005Y-116302000D01*
X143473887Y-116302000D01*
X143587650Y-116415961D01*
X143854756Y-116526874D01*
X144143975Y-116527126D01*
X144151000Y-116524223D01*
X144151000Y-124612452D01*
X143761049Y-124773576D01*
X143317135Y-125216716D01*
X143076594Y-125796003D01*
X143076047Y-126423245D01*
X143315576Y-127002951D01*
X143758716Y-127446865D01*
X144338003Y-127687406D01*
X144965245Y-127687953D01*
X145544951Y-127448424D01*
X145988865Y-127005284D01*
X146229406Y-126425997D01*
X146229953Y-125798755D01*
X145990424Y-125219049D01*
X145547284Y-124775135D01*
X145155000Y-124612244D01*
X145155000Y-116554936D01*
X152454965Y-109254970D01*
X152454968Y-109254968D01*
X152527670Y-109146161D01*
X152563788Y-109092108D01*
X152602000Y-108900000D01*
X152602000Y-107826113D01*
X152715961Y-107712350D01*
X152826874Y-107445244D01*
X152827126Y-107156025D01*
X152716680Y-106888725D01*
X152512350Y-106684039D01*
X152314780Y-106602000D01*
X159934725Y-106602000D01*
X159994713Y-106626909D01*
X160204367Y-106627092D01*
X160298000Y-106588404D01*
X160298000Y-109900000D01*
X160328600Y-110053839D01*
X160415743Y-110184257D01*
X161898000Y-111666514D01*
X161898000Y-114656657D01*
X161853491Y-114701088D01*
X161773091Y-114894713D01*
X161772908Y-115104367D01*
X161852970Y-115298132D01*
X162001088Y-115446509D01*
X162194713Y-115526909D01*
X162404367Y-115527092D01*
X162598132Y-115447030D01*
X162746509Y-115298912D01*
X162826909Y-115105287D01*
X162827092Y-114895633D01*
X162747030Y-114701868D01*
X162702000Y-114656759D01*
X162702000Y-111500000D01*
X162671400Y-111346161D01*
X162584257Y-111215743D01*
X161102000Y-109733486D01*
X161102000Y-106066514D01*
X161441477Y-105727037D01*
X161504367Y-105727092D01*
X161698132Y-105647030D01*
X161846509Y-105498912D01*
X161926909Y-105305287D01*
X161927092Y-105095633D01*
X161847030Y-104901868D01*
X161698912Y-104753491D01*
X161505287Y-104673091D01*
X161295633Y-104672908D01*
X161101868Y-104752970D01*
X160953491Y-104901088D01*
X160873091Y-105094713D01*
X160873035Y-105158451D01*
X160415743Y-105615743D01*
X160392343Y-105650763D01*
X160205287Y-105573091D01*
X159995633Y-105572908D01*
X159801868Y-105652970D01*
X159656584Y-105798000D01*
X159067292Y-105798000D01*
X159683223Y-105175040D01*
X159743367Y-105175092D01*
X159937132Y-105095030D01*
X160085509Y-104946912D01*
X160165909Y-104753287D01*
X160166092Y-104543633D01*
X160086030Y-104349868D01*
X159937912Y-104201491D01*
X159744287Y-104121091D01*
X159534633Y-104120908D01*
X159340868Y-104200970D01*
X159192491Y-104349088D01*
X159112091Y-104542713D01*
X159112033Y-104609214D01*
X158455777Y-105272960D01*
X158395633Y-105272908D01*
X158201868Y-105352970D01*
X158053491Y-105501088D01*
X157973091Y-105694713D01*
X157973001Y-105798000D01*
X156170514Y-105798000D01*
X156384257Y-105584257D01*
X156471400Y-105453839D01*
X156491243Y-105354082D01*
X156546509Y-105298912D01*
X156626909Y-105105287D01*
X156627092Y-104895633D01*
X156547030Y-104701868D01*
X156398912Y-104553491D01*
X156205287Y-104473091D01*
X155995633Y-104472908D01*
X155801868Y-104552970D01*
X155653491Y-104701088D01*
X155573091Y-104894713D01*
X155572908Y-105104367D01*
X155617996Y-105213490D01*
X155333486Y-105498000D01*
X154804968Y-105498000D01*
X154826874Y-105445244D01*
X154827126Y-105156025D01*
X154716680Y-104888725D01*
X154602000Y-104773845D01*
X154602000Y-104204367D01*
X156872908Y-104204367D01*
X156952970Y-104398132D01*
X157101088Y-104546509D01*
X157294713Y-104626909D01*
X157504367Y-104627092D01*
X157698132Y-104547030D01*
X157846509Y-104398912D01*
X157926909Y-104205287D01*
X157926965Y-104141549D01*
X158684257Y-103384257D01*
X158771400Y-103253839D01*
X158802000Y-103100000D01*
X158802000Y-97565275D01*
X158826909Y-97505287D01*
X158827092Y-97295633D01*
X158747030Y-97101868D01*
X158598912Y-96953491D01*
X158405287Y-96873091D01*
X158195633Y-96872908D01*
X158001868Y-96952970D01*
X157853491Y-97101088D01*
X157773091Y-97294713D01*
X157772908Y-97504367D01*
X157852970Y-97698132D01*
X157998000Y-97843416D01*
X157998000Y-102933486D01*
X157358523Y-103572963D01*
X157295633Y-103572908D01*
X157101868Y-103652970D01*
X156953491Y-103801088D01*
X156873091Y-103994713D01*
X156872908Y-104204367D01*
X154602000Y-104204367D01*
X154602000Y-77828367D01*
X163556908Y-77828367D01*
X163636970Y-78022132D01*
X163785088Y-78170509D01*
X163978713Y-78250909D01*
X164188367Y-78251092D01*
X164382132Y-78171030D01*
X164427241Y-78126000D01*
X165481000Y-78126000D01*
X165499085Y-78122403D01*
X165502713Y-78123909D01*
X165712367Y-78124092D01*
X165906132Y-78044030D01*
X166054509Y-77895912D01*
X166134909Y-77702287D01*
X166135092Y-77492633D01*
X166055030Y-77298868D01*
X165906912Y-77150491D01*
X165713287Y-77070091D01*
X165503633Y-77069908D01*
X165309868Y-77149970D01*
X165161491Y-77298088D01*
X165151562Y-77322000D01*
X164427343Y-77322000D01*
X164382912Y-77277491D01*
X164189287Y-77197091D01*
X163979633Y-77196908D01*
X163785868Y-77276970D01*
X163637491Y-77425088D01*
X163557091Y-77618713D01*
X163556908Y-77828367D01*
X154602000Y-77828367D01*
X154602000Y-69900000D01*
X154563788Y-69707893D01*
X154563788Y-69707892D01*
X154520200Y-69642660D01*
X154454968Y-69545032D01*
X154454965Y-69545030D01*
X154426986Y-69517051D01*
X154427126Y-69356025D01*
X154316680Y-69088725D01*
X154112350Y-68884039D01*
X153845244Y-68773126D01*
X153556025Y-68772874D01*
X153381283Y-68845076D01*
X153316680Y-68688725D01*
X153112350Y-68484039D01*
X152845244Y-68373126D01*
X152556025Y-68372874D01*
X152288725Y-68483320D01*
X152084039Y-68687650D01*
X151973126Y-68954756D01*
X151972874Y-69243975D01*
X152083320Y-69511275D01*
X152198000Y-69626155D01*
X152198000Y-87025225D01*
X152147030Y-86901868D01*
X151998912Y-86753491D01*
X151805287Y-86673091D01*
X151595633Y-86672908D01*
X151401868Y-86752970D01*
X151253491Y-86901088D01*
X151173091Y-87094713D01*
X151172908Y-87304367D01*
X151252970Y-87498132D01*
X151401088Y-87646509D01*
X151594713Y-87726909D01*
X151658451Y-87726965D01*
X151798000Y-87866514D01*
X151798000Y-90356657D01*
X151753491Y-90401088D01*
X151673091Y-90594713D01*
X151672908Y-90804367D01*
X151752970Y-90998132D01*
X151901088Y-91146509D01*
X152094713Y-91226909D01*
X152198000Y-91226999D01*
X152198000Y-104579488D01*
X152188725Y-104583320D01*
X151984039Y-104787650D01*
X151873126Y-105054756D01*
X151872874Y-105343975D01*
X151936516Y-105498000D01*
X150543169Y-105498000D01*
X150398912Y-105353491D01*
X150205287Y-105273091D01*
X149995633Y-105272908D01*
X149801868Y-105352970D01*
X149653491Y-105501088D01*
X149573091Y-105694713D01*
X149573001Y-105798000D01*
X148766514Y-105798000D01*
X148227037Y-105258523D01*
X148227092Y-105195633D01*
X148147030Y-105001868D01*
X147998912Y-104853491D01*
X147805287Y-104773091D01*
X147602000Y-104772914D01*
X147602000Y-104743343D01*
X147646509Y-104698912D01*
X147726909Y-104505287D01*
X147727092Y-104295633D01*
X147647030Y-104101868D01*
X147498912Y-103953491D01*
X147305287Y-103873091D01*
X147095633Y-103872908D01*
X146901868Y-103952970D01*
X146753491Y-104101088D01*
X146673091Y-104294713D01*
X146672908Y-104504367D01*
X146752970Y-104698132D01*
X146798000Y-104743241D01*
X146798000Y-105700000D01*
X146828600Y-105853839D01*
X146915743Y-105984257D01*
X147098000Y-106166514D01*
X147098000Y-110356831D01*
X146953491Y-110501088D01*
X146873091Y-110694713D01*
X146872908Y-110904367D01*
X146952970Y-111098132D01*
X147101088Y-111246509D01*
X147294713Y-111326909D01*
X147504367Y-111327092D01*
X147674826Y-111256660D01*
X147058523Y-111872963D01*
X146995633Y-111872908D01*
X146801868Y-111952970D01*
X146653491Y-112101088D01*
X146573091Y-112294713D01*
X146572908Y-112504367D01*
X146652970Y-112698132D01*
X146801088Y-112846509D01*
X146994713Y-112926909D01*
X147204367Y-112927092D01*
X147398132Y-112847030D01*
X147546509Y-112698912D01*
X147626909Y-112505287D01*
X147626965Y-112441549D01*
X148684257Y-111384257D01*
X148771400Y-111253839D01*
X148802000Y-111100000D01*
X148802000Y-106602000D01*
X151885535Y-106602000D01*
X151688725Y-106683320D01*
X151484039Y-106887650D01*
X151373126Y-107154756D01*
X151372874Y-107443975D01*
X151483320Y-107711275D01*
X151598000Y-107826155D01*
X151598000Y-108692065D01*
X144699909Y-115590155D01*
X144616680Y-115388725D01*
X144412350Y-115184039D01*
X144145244Y-115073126D01*
X143856025Y-115072874D01*
X143588725Y-115183320D01*
X143473845Y-115298000D01*
X142007935Y-115298000D01*
X140126986Y-113417050D01*
X140127126Y-113256025D01*
X140016680Y-112988725D01*
X139812350Y-112784039D01*
X139545244Y-112673126D01*
X139256025Y-112672874D01*
X138988725Y-112783320D01*
X138784039Y-112987650D01*
X138673126Y-113254756D01*
X138672874Y-113543975D01*
X127112489Y-113543975D01*
X126568257Y-112999743D01*
X126437839Y-112912600D01*
X126284000Y-112882000D01*
X125326096Y-112882000D01*
X125316465Y-112833582D01*
X125061324Y-112451735D01*
X124679477Y-112196594D01*
X124580965Y-112176999D01*
X125087358Y-111939183D01*
X125477645Y-111510924D01*
X125647476Y-111100890D01*
X125526155Y-110871000D01*
X124333000Y-110871000D01*
X124333000Y-110891000D01*
X124079000Y-110891000D01*
X124079000Y-110871000D01*
X122885845Y-110871000D01*
X122764524Y-111100890D01*
X121985260Y-111100890D01*
X121986252Y-110387110D01*
X122764524Y-110387110D01*
X122885845Y-110617000D01*
X124079000Y-110617000D01*
X124079000Y-110597000D01*
X124333000Y-110597000D01*
X124333000Y-110617000D01*
X125526155Y-110617000D01*
X125647476Y-110387110D01*
X125477645Y-109977076D01*
X125087358Y-109548817D01*
X124580965Y-109311001D01*
X124679477Y-109291406D01*
X125061324Y-109036265D01*
X125316465Y-108654418D01*
X125406059Y-108204000D01*
X125316465Y-107753582D01*
X125061324Y-107371735D01*
X124679477Y-107116594D01*
X124229059Y-107027000D01*
X124182941Y-107027000D01*
X123732523Y-107116594D01*
X123350676Y-107371735D01*
X123095535Y-107753582D01*
X123005941Y-108204000D01*
X123095535Y-108654418D01*
X123350676Y-109036265D01*
X123732523Y-109291406D01*
X123831035Y-109311001D01*
X123324642Y-109548817D01*
X122934355Y-109977076D01*
X122764524Y-110387110D01*
X121986252Y-110387110D01*
X121992819Y-105664000D01*
X123005941Y-105664000D01*
X123095535Y-106114418D01*
X123350676Y-106496265D01*
X123732523Y-106751406D01*
X124182941Y-106841000D01*
X124229059Y-106841000D01*
X124679477Y-106751406D01*
X125061324Y-106496265D01*
X125316465Y-106114418D01*
X125326096Y-106066000D01*
X125954000Y-106066000D01*
X126107839Y-106035400D01*
X126238257Y-105948257D01*
X131327514Y-100859000D01*
X137729444Y-100859000D01*
X137673091Y-100994713D01*
X137672908Y-101204367D01*
X137752970Y-101398132D01*
X137798000Y-101443241D01*
X137798000Y-106800000D01*
X137828600Y-106953839D01*
X137915743Y-107084257D01*
X137972963Y-107141477D01*
X137972908Y-107204367D01*
X138052970Y-107398132D01*
X138201088Y-107546509D01*
X138394713Y-107626909D01*
X138604367Y-107627092D01*
X138798132Y-107547030D01*
X138946509Y-107398912D01*
X139026909Y-107205287D01*
X139027092Y-106995633D01*
X138947030Y-106801868D01*
X138798912Y-106653491D01*
X138605287Y-106573091D01*
X138602000Y-106573088D01*
X138602000Y-106543975D01*
X141472874Y-106543975D01*
X141583320Y-106811275D01*
X141787650Y-107015961D01*
X142054756Y-107126874D01*
X142343975Y-107127126D01*
X142611275Y-107016680D01*
X142815961Y-106812350D01*
X142926874Y-106545244D01*
X142927015Y-106382921D01*
X145054968Y-104254968D01*
X145163788Y-104092107D01*
X145202001Y-103900000D01*
X145202000Y-103899995D01*
X145202000Y-102626113D01*
X145315961Y-102512350D01*
X145426874Y-102245244D01*
X145427126Y-101956025D01*
X145316680Y-101688725D01*
X145112350Y-101484039D01*
X144845244Y-101373126D01*
X144556025Y-101372874D01*
X144288725Y-101483320D01*
X144084039Y-101687650D01*
X143973126Y-101954756D01*
X143972874Y-102243975D01*
X144083320Y-102511275D01*
X144198000Y-102626155D01*
X144198000Y-103692064D01*
X142217050Y-105673014D01*
X142056025Y-105672874D01*
X141788725Y-105783320D01*
X141584039Y-105987650D01*
X141473126Y-106254756D01*
X141472874Y-106543975D01*
X138602000Y-106543975D01*
X138602000Y-101443343D01*
X138646509Y-101398912D01*
X138726909Y-101205287D01*
X138727092Y-100995633D01*
X138647030Y-100801868D01*
X138498912Y-100653491D01*
X138354138Y-100593376D01*
X139222257Y-99725257D01*
X139309400Y-99594839D01*
X139340000Y-99441000D01*
X139340000Y-99018624D01*
X139411477Y-99004406D01*
X139793324Y-98749265D01*
X140048465Y-98367418D01*
X140138059Y-97917000D01*
X140083034Y-97640367D01*
X142347908Y-97640367D01*
X142427970Y-97834132D01*
X142576088Y-97982509D01*
X142769713Y-98062909D01*
X142773119Y-98062912D01*
X142772874Y-98343975D01*
X142883320Y-98611275D01*
X143029337Y-98757547D01*
X143036212Y-98792107D01*
X143145032Y-98954968D01*
X144173014Y-99982950D01*
X144172874Y-100143975D01*
X144283320Y-100411275D01*
X144487650Y-100615961D01*
X144754756Y-100726874D01*
X145043975Y-100727126D01*
X145311275Y-100616680D01*
X145515961Y-100412350D01*
X145626874Y-100145244D01*
X145627126Y-99856025D01*
X145516680Y-99588725D01*
X145312350Y-99384039D01*
X145045244Y-99273126D01*
X144882921Y-99272985D01*
X144147157Y-98537221D01*
X144226874Y-98345244D01*
X144227126Y-98056025D01*
X144178359Y-97938000D01*
X145883486Y-97938000D01*
X148062963Y-100117477D01*
X148062908Y-100180367D01*
X148142970Y-100374132D01*
X148291088Y-100522509D01*
X148484713Y-100602909D01*
X148694367Y-100603092D01*
X148888132Y-100523030D01*
X149036509Y-100374912D01*
X149116909Y-100181287D01*
X149117092Y-99971633D01*
X149037030Y-99777868D01*
X148888912Y-99629491D01*
X148695287Y-99549091D01*
X148631549Y-99549035D01*
X146334257Y-97251743D01*
X146203839Y-97164600D01*
X146050000Y-97134000D01*
X143218343Y-97134000D01*
X143173912Y-97089491D01*
X142980287Y-97009091D01*
X142770633Y-97008908D01*
X142576868Y-97088970D01*
X142428491Y-97237088D01*
X142348091Y-97430713D01*
X142347908Y-97640367D01*
X140083034Y-97640367D01*
X140048465Y-97466582D01*
X139793324Y-97084735D01*
X139411477Y-96829594D01*
X138961059Y-96740000D01*
X138914941Y-96740000D01*
X138464523Y-96829594D01*
X138082676Y-97084735D01*
X137827535Y-97466582D01*
X137737941Y-97917000D01*
X137827535Y-98367418D01*
X138082676Y-98749265D01*
X138464523Y-99004406D01*
X138536000Y-99018624D01*
X138536000Y-99274486D01*
X137755486Y-100055000D01*
X131161000Y-100055000D01*
X131007161Y-100085600D01*
X130876743Y-100172743D01*
X125787486Y-105262000D01*
X125326096Y-105262000D01*
X125316465Y-105213582D01*
X125061324Y-104831735D01*
X124679477Y-104576594D01*
X124229059Y-104487000D01*
X124182941Y-104487000D01*
X123732523Y-104576594D01*
X123350676Y-104831735D01*
X123095535Y-105213582D01*
X123005941Y-105664000D01*
X121992819Y-105664000D01*
X121996350Y-103124000D01*
X123005941Y-103124000D01*
X123095535Y-103574418D01*
X123350676Y-103956265D01*
X123732523Y-104211406D01*
X124182941Y-104301000D01*
X124229059Y-104301000D01*
X124679477Y-104211406D01*
X125061324Y-103956265D01*
X125316465Y-103574418D01*
X125406059Y-103124000D01*
X125316465Y-102673582D01*
X125061324Y-102291735D01*
X124679477Y-102036594D01*
X124229059Y-101947000D01*
X124182941Y-101947000D01*
X123732523Y-102036594D01*
X123350676Y-102291735D01*
X123095535Y-102673582D01*
X123005941Y-103124000D01*
X121996350Y-103124000D01*
X121999881Y-100584000D01*
X123005941Y-100584000D01*
X123095535Y-101034418D01*
X123350676Y-101416265D01*
X123732523Y-101671406D01*
X124182941Y-101761000D01*
X124229059Y-101761000D01*
X124679477Y-101671406D01*
X125061324Y-101416265D01*
X125316465Y-101034418D01*
X125406059Y-100584000D01*
X125316465Y-100133582D01*
X125061324Y-99751735D01*
X124679477Y-99496594D01*
X124229059Y-99407000D01*
X124182941Y-99407000D01*
X123732523Y-99496594D01*
X123350676Y-99751735D01*
X123095535Y-100133582D01*
X123005941Y-100584000D01*
X121999881Y-100584000D01*
X122004595Y-97194000D01*
X123022594Y-97194000D01*
X123022594Y-98894000D01*
X123045395Y-99015179D01*
X123117012Y-99126474D01*
X123226286Y-99201138D01*
X123356000Y-99227406D01*
X125056000Y-99227406D01*
X125177179Y-99204605D01*
X125288474Y-99132988D01*
X125363138Y-99023714D01*
X125389406Y-98894000D01*
X125389406Y-97194000D01*
X125366605Y-97072821D01*
X125294988Y-96961526D01*
X125185714Y-96886862D01*
X125056000Y-96860594D01*
X123356000Y-96860594D01*
X123234821Y-96883395D01*
X123123526Y-96955012D01*
X123048862Y-97064286D01*
X123022594Y-97194000D01*
X122004595Y-97194000D01*
X122022167Y-84557890D01*
X122764524Y-84557890D01*
X122934355Y-84967924D01*
X123324642Y-85396183D01*
X123831035Y-85633999D01*
X123732523Y-85653594D01*
X123350676Y-85908735D01*
X123095535Y-86290582D01*
X123005941Y-86741000D01*
X123095535Y-87191418D01*
X123350676Y-87573265D01*
X123732523Y-87828406D01*
X124182941Y-87918000D01*
X124229059Y-87918000D01*
X124679477Y-87828406D01*
X125061324Y-87573265D01*
X125316465Y-87191418D01*
X125326096Y-87143000D01*
X125775486Y-87143000D01*
X124706701Y-88211785D01*
X124679477Y-88193594D01*
X124229059Y-88104000D01*
X124182941Y-88104000D01*
X123732523Y-88193594D01*
X123350676Y-88448735D01*
X123095535Y-88830582D01*
X123005941Y-89281000D01*
X123095535Y-89731418D01*
X123350676Y-90113265D01*
X123732523Y-90368406D01*
X124182941Y-90458000D01*
X124229059Y-90458000D01*
X124679477Y-90368406D01*
X125061324Y-90113265D01*
X125316465Y-89731418D01*
X125406059Y-89281000D01*
X125316465Y-88830582D01*
X125279802Y-88775712D01*
X126531514Y-87524000D01*
X127934486Y-87524000D01*
X124706701Y-90751785D01*
X124679477Y-90733594D01*
X124229059Y-90644000D01*
X124182941Y-90644000D01*
X123732523Y-90733594D01*
X123350676Y-90988735D01*
X123095535Y-91370582D01*
X123005941Y-91821000D01*
X123095535Y-92271418D01*
X123350676Y-92653265D01*
X123732523Y-92908406D01*
X124182941Y-92998000D01*
X124229059Y-92998000D01*
X124679477Y-92908406D01*
X125061324Y-92653265D01*
X125316465Y-92271418D01*
X125406059Y-91821000D01*
X125316465Y-91370582D01*
X125279802Y-91315712D01*
X128690514Y-87905000D01*
X130093486Y-87905000D01*
X124706701Y-93291785D01*
X124679477Y-93273594D01*
X124229059Y-93184000D01*
X124182941Y-93184000D01*
X123732523Y-93273594D01*
X123350676Y-93528735D01*
X123095535Y-93910582D01*
X123005941Y-94361000D01*
X123095535Y-94811418D01*
X123350676Y-95193265D01*
X123732523Y-95448406D01*
X124182941Y-95538000D01*
X124229059Y-95538000D01*
X124679477Y-95448406D01*
X125061324Y-95193265D01*
X125316465Y-94811418D01*
X125373039Y-94527000D01*
X137754594Y-94527000D01*
X137754594Y-96227000D01*
X137777395Y-96348179D01*
X137849012Y-96459474D01*
X137958286Y-96534138D01*
X138088000Y-96560406D01*
X139788000Y-96560406D01*
X139909179Y-96537605D01*
X140020474Y-96465988D01*
X140095138Y-96356714D01*
X140121406Y-96227000D01*
X140121406Y-94527000D01*
X140098605Y-94405821D01*
X140026988Y-94294526D01*
X139917714Y-94219862D01*
X139788000Y-94193594D01*
X138088000Y-94193594D01*
X137966821Y-94216395D01*
X137855526Y-94288012D01*
X137780862Y-94397286D01*
X137754594Y-94527000D01*
X125373039Y-94527000D01*
X125406059Y-94361000D01*
X125316465Y-93910582D01*
X125279802Y-93855712D01*
X130849514Y-88286000D01*
X148717000Y-88286000D01*
X148735085Y-88282403D01*
X148738713Y-88283909D01*
X148948367Y-88284092D01*
X149142132Y-88204030D01*
X149290509Y-88055912D01*
X149370909Y-87862287D01*
X149371092Y-87652633D01*
X149291030Y-87458868D01*
X149271792Y-87439596D01*
X149290509Y-87420912D01*
X149370909Y-87227287D01*
X149371092Y-87017633D01*
X149291030Y-86823868D01*
X149142912Y-86675491D01*
X148982942Y-86609066D01*
X148989909Y-86592287D01*
X148990092Y-86382633D01*
X148910030Y-86188868D01*
X148761912Y-86040491D01*
X148710265Y-86019045D01*
X148735909Y-85957287D01*
X148736092Y-85747633D01*
X148656030Y-85553868D01*
X148507912Y-85405491D01*
X148314287Y-85325091D01*
X148104633Y-85324908D01*
X147910868Y-85404970D01*
X147762491Y-85553088D01*
X147682091Y-85746713D01*
X147682035Y-85810451D01*
X147153486Y-86339000D01*
X125326096Y-86339000D01*
X125316465Y-86290582D01*
X125061324Y-85908735D01*
X124679477Y-85653594D01*
X124580965Y-85633999D01*
X125087358Y-85396183D01*
X125477645Y-84967924D01*
X125647476Y-84557890D01*
X125526155Y-84328000D01*
X124333000Y-84328000D01*
X124333000Y-84348000D01*
X124079000Y-84348000D01*
X124079000Y-84328000D01*
X122885845Y-84328000D01*
X122764524Y-84557890D01*
X122022167Y-84557890D01*
X122023159Y-83844110D01*
X122764524Y-83844110D01*
X122885845Y-84074000D01*
X124079000Y-84074000D01*
X124079000Y-84054000D01*
X124333000Y-84054000D01*
X124333000Y-84074000D01*
X125526155Y-84074000D01*
X125647476Y-83844110D01*
X125477645Y-83434076D01*
X125087358Y-83005817D01*
X124580965Y-82768001D01*
X124679477Y-82748406D01*
X125061324Y-82493265D01*
X125316465Y-82111418D01*
X125406059Y-81661000D01*
X125316465Y-81210582D01*
X125061324Y-80828735D01*
X124679477Y-80573594D01*
X124229059Y-80484000D01*
X124182941Y-80484000D01*
X123732523Y-80573594D01*
X123350676Y-80828735D01*
X123095535Y-81210582D01*
X123005941Y-81661000D01*
X123095535Y-82111418D01*
X123350676Y-82493265D01*
X123732523Y-82748406D01*
X123831035Y-82768001D01*
X123324642Y-83005817D01*
X122934355Y-83434076D01*
X122764524Y-83844110D01*
X122023159Y-83844110D01*
X122029726Y-79121000D01*
X123005941Y-79121000D01*
X123095535Y-79571418D01*
X123350676Y-79953265D01*
X123732523Y-80208406D01*
X124182941Y-80298000D01*
X124229059Y-80298000D01*
X124679477Y-80208406D01*
X124706701Y-80190215D01*
X125699743Y-81183257D01*
X125830161Y-81270400D01*
X125984000Y-81301000D01*
X140484904Y-81301000D01*
X140494535Y-81349418D01*
X140749676Y-81731265D01*
X141131523Y-81986406D01*
X141581941Y-82076000D01*
X141628059Y-82076000D01*
X142078477Y-81986406D01*
X142460324Y-81731265D01*
X142715465Y-81349418D01*
X142805059Y-80899000D01*
X142715465Y-80448582D01*
X142460324Y-80066735D01*
X142210750Y-79899975D01*
X144814874Y-79899975D01*
X144925320Y-80167275D01*
X145040000Y-80282155D01*
X145040000Y-80753887D01*
X144926039Y-80867650D01*
X144815126Y-81134756D01*
X144814874Y-81423975D01*
X144925320Y-81691275D01*
X145129650Y-81895961D01*
X145396756Y-82006874D01*
X145685975Y-82007126D01*
X145953275Y-81896680D01*
X146157961Y-81692350D01*
X146268874Y-81425244D01*
X146269126Y-81136025D01*
X146158680Y-80868725D01*
X146044000Y-80753845D01*
X146044000Y-80282113D01*
X146157961Y-80168350D01*
X146268874Y-79901244D01*
X146269126Y-79612025D01*
X146158680Y-79344725D01*
X145954350Y-79140039D01*
X145687244Y-79029126D01*
X145398025Y-79028874D01*
X145130725Y-79139320D01*
X144926039Y-79343650D01*
X144815126Y-79610756D01*
X144814874Y-79899975D01*
X142210750Y-79899975D01*
X142078477Y-79811594D01*
X141628059Y-79722000D01*
X141581941Y-79722000D01*
X141131523Y-79811594D01*
X140749676Y-80066735D01*
X140494535Y-80448582D01*
X140484904Y-80497000D01*
X126150514Y-80497000D01*
X125640881Y-79987367D01*
X130663908Y-79987367D01*
X130743970Y-80181132D01*
X130892088Y-80329509D01*
X131085713Y-80409909D01*
X131295367Y-80410092D01*
X131489132Y-80330030D01*
X131534241Y-80285000D01*
X134784657Y-80285000D01*
X134829088Y-80329509D01*
X135022713Y-80409909D01*
X135232367Y-80410092D01*
X135426132Y-80330030D01*
X135574509Y-80181912D01*
X135654909Y-79988287D01*
X135655092Y-79778633D01*
X135575030Y-79584868D01*
X135426912Y-79436491D01*
X135233287Y-79356091D01*
X135023633Y-79355908D01*
X134829868Y-79435970D01*
X134784759Y-79481000D01*
X131534343Y-79481000D01*
X131489912Y-79436491D01*
X131296287Y-79356091D01*
X131086633Y-79355908D01*
X130892868Y-79435970D01*
X130744491Y-79584088D01*
X130664091Y-79777713D01*
X130663908Y-79987367D01*
X125640881Y-79987367D01*
X125279802Y-79626288D01*
X125316465Y-79571418D01*
X125406059Y-79121000D01*
X125316465Y-78670582D01*
X125061324Y-78288735D01*
X124679477Y-78033594D01*
X124229059Y-77944000D01*
X124182941Y-77944000D01*
X123732523Y-78033594D01*
X123350676Y-78288735D01*
X123095535Y-78670582D01*
X123005941Y-79121000D01*
X122029726Y-79121000D01*
X122036790Y-74041000D01*
X123005941Y-74041000D01*
X123095535Y-74491418D01*
X123350676Y-74873265D01*
X123732523Y-75128406D01*
X124182941Y-75218000D01*
X124229059Y-75218000D01*
X124679477Y-75128406D01*
X125061324Y-74873265D01*
X125316465Y-74491418D01*
X125326096Y-74443000D01*
X135596486Y-74443000D01*
X135616963Y-74463477D01*
X135616908Y-74526367D01*
X135696970Y-74720132D01*
X135779708Y-74803015D01*
X135697491Y-74885088D01*
X135617091Y-75078713D01*
X135617035Y-75142451D01*
X134580486Y-76179000D01*
X125326096Y-76179000D01*
X125316465Y-76130582D01*
X125061324Y-75748735D01*
X124679477Y-75493594D01*
X124229059Y-75404000D01*
X124182941Y-75404000D01*
X123732523Y-75493594D01*
X123350676Y-75748735D01*
X123095535Y-76130582D01*
X123005941Y-76581000D01*
X123095535Y-77031418D01*
X123350676Y-77413265D01*
X123732523Y-77668406D01*
X124182941Y-77758000D01*
X124229059Y-77758000D01*
X124679477Y-77668406D01*
X125061324Y-77413265D01*
X125316465Y-77031418D01*
X125326096Y-76983000D01*
X129718589Y-76983000D01*
X129601892Y-77006212D01*
X129564169Y-77031418D01*
X129439032Y-77115032D01*
X129439030Y-77115035D01*
X128541050Y-78013014D01*
X128380025Y-78012874D01*
X128112725Y-78123320D01*
X127908039Y-78327650D01*
X127797126Y-78594756D01*
X127796874Y-78883975D01*
X127907320Y-79151275D01*
X128111650Y-79355961D01*
X128378756Y-79466874D01*
X128667975Y-79467126D01*
X128935275Y-79356680D01*
X129139961Y-79152350D01*
X129250874Y-78885244D01*
X129251015Y-78722920D01*
X130001935Y-77972000D01*
X135490887Y-77972000D01*
X135604650Y-78085961D01*
X135871756Y-78196874D01*
X136160975Y-78197126D01*
X136428275Y-78086680D01*
X136632961Y-77882350D01*
X136743874Y-77615244D01*
X136743966Y-77509000D01*
X140421594Y-77509000D01*
X140421594Y-79209000D01*
X140444395Y-79330179D01*
X140516012Y-79441474D01*
X140625286Y-79516138D01*
X140755000Y-79542406D01*
X142455000Y-79542406D01*
X142576179Y-79519605D01*
X142687474Y-79447988D01*
X142762138Y-79338714D01*
X142788406Y-79209000D01*
X142788406Y-77509000D01*
X142765605Y-77387821D01*
X142693988Y-77276526D01*
X142584714Y-77201862D01*
X142455000Y-77175594D01*
X140755000Y-77175594D01*
X140633821Y-77198395D01*
X140522526Y-77270012D01*
X140447862Y-77379286D01*
X140421594Y-77509000D01*
X136743966Y-77509000D01*
X136744126Y-77326025D01*
X136633680Y-77058725D01*
X136429350Y-76854039D01*
X136162244Y-76743126D01*
X135873025Y-76742874D01*
X135605725Y-76853320D01*
X135490845Y-76968000D01*
X134822411Y-76968000D01*
X134900839Y-76952400D01*
X135031257Y-76865257D01*
X136185477Y-75711037D01*
X136248367Y-75711092D01*
X136442132Y-75631030D01*
X136590509Y-75482912D01*
X136670909Y-75289287D01*
X136671092Y-75079633D01*
X136591030Y-74885868D01*
X136508292Y-74802985D01*
X136590509Y-74720912D01*
X136670909Y-74527287D01*
X136671092Y-74317633D01*
X136591030Y-74123868D01*
X136508292Y-74040985D01*
X136590509Y-73958912D01*
X136670909Y-73765287D01*
X136671092Y-73555633D01*
X136591030Y-73361868D01*
X136442912Y-73213491D01*
X136249287Y-73133091D01*
X136185549Y-73133035D01*
X134269257Y-71216743D01*
X134138839Y-71129600D01*
X133985000Y-71099000D01*
X125389406Y-71099000D01*
X125389406Y-70651000D01*
X125366605Y-70529821D01*
X125294988Y-70418526D01*
X125185714Y-70343862D01*
X125056000Y-70317594D01*
X123356000Y-70317594D01*
X123234821Y-70340395D01*
X123123526Y-70412012D01*
X123048862Y-70521286D01*
X123022594Y-70651000D01*
X123022594Y-72351000D01*
X123045395Y-72472179D01*
X123117012Y-72583474D01*
X123226286Y-72658138D01*
X123356000Y-72684406D01*
X125056000Y-72684406D01*
X125177179Y-72661605D01*
X125288474Y-72589988D01*
X125363138Y-72480714D01*
X125389406Y-72351000D01*
X125389406Y-71903000D01*
X133818486Y-71903000D01*
X135554486Y-73639000D01*
X125326096Y-73639000D01*
X125316465Y-73590582D01*
X125061324Y-73208735D01*
X124679477Y-72953594D01*
X124229059Y-72864000D01*
X124182941Y-72864000D01*
X123732523Y-72953594D01*
X123350676Y-73208735D01*
X123095535Y-73590582D01*
X123005941Y-74041000D01*
X122036790Y-74041000D01*
X122044947Y-68174890D01*
X138004524Y-68174890D01*
X138174355Y-68584924D01*
X138564642Y-69013183D01*
X139071035Y-69250999D01*
X138972523Y-69270594D01*
X138590676Y-69525735D01*
X138335535Y-69907582D01*
X138245941Y-70358000D01*
X138335535Y-70808418D01*
X138590676Y-71190265D01*
X138972523Y-71445406D01*
X139422941Y-71535000D01*
X139469059Y-71535000D01*
X139919477Y-71445406D01*
X140301324Y-71190265D01*
X140556465Y-70808418D01*
X140646059Y-70358000D01*
X140556465Y-69907582D01*
X140301324Y-69525735D01*
X139919477Y-69270594D01*
X139820965Y-69250999D01*
X140327358Y-69013183D01*
X140717645Y-68584924D01*
X140887476Y-68174890D01*
X140766155Y-67945000D01*
X139573000Y-67945000D01*
X139573000Y-67965000D01*
X139319000Y-67965000D01*
X139319000Y-67945000D01*
X138125845Y-67945000D01*
X138004524Y-68174890D01*
X122044947Y-68174890D01*
X122045939Y-67461110D01*
X138004524Y-67461110D01*
X138125845Y-67691000D01*
X139319000Y-67691000D01*
X139319000Y-67671000D01*
X139573000Y-67671000D01*
X139573000Y-67691000D01*
X140766155Y-67691000D01*
X140887476Y-67461110D01*
X140717645Y-67051076D01*
X140327358Y-66622817D01*
X139983657Y-66461406D01*
X140296000Y-66461406D01*
X140417179Y-66438605D01*
X140528474Y-66366988D01*
X140603138Y-66257714D01*
X140623735Y-66156000D01*
X142784594Y-66156000D01*
X142784594Y-67956000D01*
X142807395Y-68077179D01*
X142879012Y-68188474D01*
X142988286Y-68263138D01*
X143118000Y-68289406D01*
X144918000Y-68289406D01*
X145039179Y-68266605D01*
X145150474Y-68194988D01*
X145225138Y-68085714D01*
X145251406Y-67956000D01*
X145251406Y-67858578D01*
X145650424Y-68293966D01*
X146193258Y-68547046D01*
X146431000Y-68426997D01*
X146431000Y-67183000D01*
X146411000Y-67183000D01*
X146411000Y-66929000D01*
X146431000Y-66929000D01*
X146431000Y-65685003D01*
X146685000Y-65685003D01*
X146685000Y-66929000D01*
X146705000Y-66929000D01*
X146705000Y-67183000D01*
X146685000Y-67183000D01*
X146685000Y-68426997D01*
X146922742Y-68547046D01*
X147465576Y-68293966D01*
X147870240Y-67852417D01*
X147980650Y-67585848D01*
X148206342Y-67923620D01*
X148604409Y-68189600D01*
X149073962Y-68283000D01*
X149122038Y-68283000D01*
X149591591Y-68189600D01*
X149989658Y-67923620D01*
X150255638Y-67525553D01*
X150292198Y-67341750D01*
X155183000Y-67341750D01*
X155183000Y-68082310D01*
X155279673Y-68315699D01*
X155458302Y-68494327D01*
X155691691Y-68591000D01*
X156432250Y-68591000D01*
X156591000Y-68432250D01*
X156591000Y-67183000D01*
X155341750Y-67183000D01*
X155183000Y-67341750D01*
X150292198Y-67341750D01*
X150349038Y-67056000D01*
X150255638Y-66586447D01*
X149989658Y-66188380D01*
X149752162Y-66029690D01*
X155183000Y-66029690D01*
X155183000Y-66770250D01*
X155341750Y-66929000D01*
X156591000Y-66929000D01*
X156591000Y-65679750D01*
X156845000Y-65679750D01*
X156845000Y-66929000D01*
X156865000Y-66929000D01*
X156865000Y-67183000D01*
X156845000Y-67183000D01*
X156845000Y-68432250D01*
X157003750Y-68591000D01*
X157744309Y-68591000D01*
X157977698Y-68494327D01*
X158156327Y-68315699D01*
X158253000Y-68082310D01*
X158253000Y-67753992D01*
X158366342Y-67923620D01*
X158756000Y-68183981D01*
X158756000Y-69769064D01*
X158386050Y-70139014D01*
X158225025Y-70138874D01*
X157957725Y-70249320D01*
X157753039Y-70453650D01*
X157642126Y-70720756D01*
X157641874Y-71009975D01*
X157752320Y-71277275D01*
X157956650Y-71481961D01*
X158223756Y-71592874D01*
X158512975Y-71593126D01*
X158780275Y-71482680D01*
X158984961Y-71278350D01*
X159095874Y-71011244D01*
X159096015Y-70848921D01*
X159612968Y-70331968D01*
X159721788Y-70169107D01*
X159760001Y-69977000D01*
X159760000Y-69976995D01*
X159760000Y-69508000D01*
X165186594Y-69508000D01*
X165186594Y-71208000D01*
X165209395Y-71329179D01*
X165281012Y-71440474D01*
X165390286Y-71515138D01*
X165520000Y-71541406D01*
X167220000Y-71541406D01*
X167341179Y-71518605D01*
X167452474Y-71446988D01*
X167527138Y-71337714D01*
X167553406Y-71208000D01*
X167553406Y-69508000D01*
X167530605Y-69386821D01*
X167458988Y-69275526D01*
X167349714Y-69200862D01*
X167220000Y-69174594D01*
X165520000Y-69174594D01*
X165398821Y-69197395D01*
X165287526Y-69269012D01*
X165212862Y-69378286D01*
X165186594Y-69508000D01*
X159760000Y-69508000D01*
X159760000Y-68183981D01*
X160149658Y-67923620D01*
X160415638Y-67525553D01*
X160509038Y-67056000D01*
X160546962Y-67056000D01*
X160640362Y-67525553D01*
X160906342Y-67923620D01*
X161304409Y-68189600D01*
X161773962Y-68283000D01*
X161822038Y-68283000D01*
X162291591Y-68189600D01*
X162689658Y-67923620D01*
X162955638Y-67525553D01*
X163049038Y-67056000D01*
X162955638Y-66586447D01*
X162689658Y-66188380D01*
X162291591Y-65922400D01*
X161822038Y-65829000D01*
X161773962Y-65829000D01*
X161304409Y-65922400D01*
X160906342Y-66188380D01*
X160640362Y-66586447D01*
X160546962Y-67056000D01*
X160509038Y-67056000D01*
X160415638Y-66586447D01*
X160149658Y-66188380D01*
X159751591Y-65922400D01*
X159282038Y-65829000D01*
X159233962Y-65829000D01*
X158764409Y-65922400D01*
X158366342Y-66188380D01*
X158253000Y-66358008D01*
X158253000Y-66029690D01*
X158156327Y-65796301D01*
X157977698Y-65617673D01*
X157744309Y-65521000D01*
X157003750Y-65521000D01*
X156845000Y-65679750D01*
X156591000Y-65679750D01*
X156432250Y-65521000D01*
X155691691Y-65521000D01*
X155458302Y-65617673D01*
X155279673Y-65796301D01*
X155183000Y-66029690D01*
X149752162Y-66029690D01*
X149591591Y-65922400D01*
X149122038Y-65829000D01*
X149073962Y-65829000D01*
X148604409Y-65922400D01*
X148206342Y-66188380D01*
X147980650Y-66526152D01*
X147870240Y-66259583D01*
X147465576Y-65818034D01*
X146922742Y-65564954D01*
X146685000Y-65685003D01*
X146431000Y-65685003D01*
X146193258Y-65564954D01*
X145650424Y-65818034D01*
X145251406Y-66253422D01*
X145251406Y-66156000D01*
X145228605Y-66034821D01*
X145156988Y-65923526D01*
X145047714Y-65848862D01*
X144918000Y-65822594D01*
X143118000Y-65822594D01*
X142996821Y-65845395D01*
X142885526Y-65917012D01*
X142810862Y-66026286D01*
X142784594Y-66156000D01*
X140623735Y-66156000D01*
X140629406Y-66128000D01*
X140629406Y-65278000D01*
X165169941Y-65278000D01*
X165259535Y-65728418D01*
X165514676Y-66110265D01*
X165896523Y-66365406D01*
X166346941Y-66455000D01*
X166393059Y-66455000D01*
X166843477Y-66365406D01*
X167225324Y-66110265D01*
X167480465Y-65728418D01*
X167570059Y-65278000D01*
X167480465Y-64827582D01*
X167225324Y-64445735D01*
X166843477Y-64190594D01*
X166393059Y-64101000D01*
X166346941Y-64101000D01*
X165896523Y-64190594D01*
X165514676Y-64445735D01*
X165259535Y-64827582D01*
X165169941Y-65278000D01*
X140629406Y-65278000D01*
X140629406Y-64428000D01*
X140606605Y-64306821D01*
X140534988Y-64195526D01*
X140425714Y-64120862D01*
X140296000Y-64094594D01*
X138596000Y-64094594D01*
X138474821Y-64117395D01*
X138363526Y-64189012D01*
X138288862Y-64298286D01*
X138262594Y-64428000D01*
X138262594Y-66128000D01*
X138285395Y-66249179D01*
X138357012Y-66360474D01*
X138466286Y-66435138D01*
X138596000Y-66461406D01*
X138908343Y-66461406D01*
X138564642Y-66622817D01*
X138174355Y-67051076D01*
X138004524Y-67461110D01*
X122045939Y-67461110D01*
X122052594Y-62676781D01*
X122121706Y-62331529D01*
X122310490Y-62049524D01*
X122592756Y-61861132D01*
X122938107Y-61792500D01*
X183215604Y-61792500D01*
X183495121Y-61836811D01*
M02*
