M48
METRIC,TZ
T1C0.200
T2C0.400
T3C1.000
T4C1.001
T5C1.300
T6C1.448
T7C1.300
T8C2.400
T9C3.251
T10C3.500
%
G90
G05
T1
X126.7Y-106.2
X126.8Y-103.8
X128.7Y-132.9
X130.4Y-99.8
X131.191Y-79.883
X131.7Y-129.9
X133.6Y-131.5
X134.6Y-121.6
X135.128Y-79.883
X136.144Y-73.66
X136.144Y-74.422
X136.144Y-75.184
X138.2Y-101.1
X138.5Y-107.1
X141.7Y-113.8
X142.7Y-134.6
X142.8Y-138.4
X142.875Y-97.536
X143.8Y-130.5
X145.6Y-106.4
X145.9Y-103.4
X146.2Y-110.9
X146.5Y-113.5
X147.1Y-112.4
X147.2Y-104.4
X147.4Y-110.8
X147.7Y-105.3
X148.Y-108.4
X148.Y-110.8
X148.209Y-85.852
X148.463Y-86.487
X148.59Y-100.076
X148.844Y-87.122
X148.844Y-87.757
X149.Y-111.
X149.1Y-71.8
X149.1Y-108.7
X150.1Y-105.8
X150.4Y-113.1
X151.7Y-87.2
X152.2Y-90.7
X155.194Y-70.866
X155.321Y-68.834
X155.5Y-118.4
X155.8Y-73.5
X156.1Y-105.
X157.1Y-110.6
X157.4Y-104.1
X157.48Y-83.248
X158.3Y-97.4
X158.5Y-105.8
X159.639Y-104.648
X160.1Y-106.1
X161.4Y-105.2
X162.3Y-115.
X163.2Y-113.9
X164.084Y-77.724
X165.Y-76.7
X165.608Y-77.597
X168.4Y-78.9
X168.4Y-104.8
X168.5Y-130.8
X169.1Y-105.2
X169.1Y-113.9
X169.4Y-80.
X169.6Y-77.3
X170.18Y-80.01
X171.5Y-132.9
X172.72Y-77.597
X173.3Y-127.2
X174.942Y-128.397
X177.3Y-113.8
X177.4Y-116.2
X178.5Y-114.3
X179.Y-109.3
X179.2Y-112.8
X180.Y-109.2
X180.1Y-114.3
T2
X128.524Y-78.74
X136.017Y-77.47
X139.4Y-113.4
X142.2Y-106.4
X143.5Y-98.2
X144.Y-115.8
X144.7Y-102.1
X144.9Y-100.
X145.542Y-79.756
X145.542Y-81.28
X148.4Y-117.5
X148.4Y-119.9
X152.1Y-107.3
X152.6Y-105.2
X152.7Y-69.1
X153.7Y-69.5
X153.8Y-119.4
X154.1Y-105.3
X155.4Y-107.5
X155.5Y-121.1
X158.369Y-70.866
X159.3Y-117.5
X170.5Y-121.9
X171.9Y-109.3
X174.2Y-80.8
X177.3Y-75.7
X179.3Y-96.5
T3
X124.206Y-71.501
X124.206Y-74.041
X124.206Y-76.581
X124.206Y-79.121
X124.206Y-81.661
X124.206Y-84.201
X124.206Y-86.741
X124.206Y-89.281
X124.206Y-91.821
X124.206Y-94.361
X124.206Y-98.044
X124.206Y-100.584
X124.206Y-103.124
X124.206Y-105.664
X124.206Y-108.204
X124.206Y-110.744
X124.206Y-113.284
X124.206Y-115.824
X124.206Y-118.364
X124.206Y-120.904
X138.938Y-95.377
X138.938Y-97.917
X139.446Y-65.278
X139.446Y-67.818
X139.446Y-70.358
X141.605Y-78.359
X141.605Y-80.899
X144.018Y-67.056
X146.558Y-67.056
X149.098Y-67.056
X156.718Y-67.056
X159.258Y-67.056
X161.798Y-67.056
X166.37Y-65.278
X166.37Y-67.818
X166.37Y-70.358
X167.64Y-91.821
X167.64Y-94.361
X167.64Y-96.901
X172.847Y-91.821
X172.847Y-94.361
X172.847Y-96.901
X182.245Y-71.501
X182.245Y-74.041
X182.245Y-76.581
X182.245Y-79.121
X182.245Y-81.661
X182.245Y-84.201
X182.245Y-86.741
X182.245Y-89.281
X182.245Y-91.821
X182.245Y-94.361
X182.245Y-98.044
X182.245Y-100.584
X182.245Y-103.124
X182.245Y-105.664
X182.245Y-108.204
X182.245Y-110.744
X182.245Y-113.284
X182.245Y-115.824
X182.245Y-118.364
X182.245Y-120.904
T4
X128.778Y-126.111
X132.812Y-126.105
X132.969Y-137.541
X136.652Y-137.541
X136.779Y-126.111
X140.335Y-137.541
X140.716Y-126.111
X144.653Y-126.111
T5
X166.172Y-139.891
X168.672Y-137.391
X173.672Y-139.891
X178.672Y-137.391
X181.172Y-139.891
T6
X150.507Y-138.62
X150.508Y-128.46
X160.007Y-128.46
X160.007Y-138.62
X160.007Y-146.24
T7
X171.172Y-149.891
X176.172Y-149.891
T8
X166.172Y-144.891
X181.172Y-144.891
T9
X155.257Y-128.46
X155.257Y-133.54
X155.257Y-146.24
T10
X146.558Y-50.396
X159.258Y-50.396
T0
M30
